<?xml version="1.0" encoding="UTF-8" standalone="no"?>
<svg
   xmlns:dc="http://purl.org/dc/elements/1.1/"
   xmlns:cc="http://creativecommons.org/ns#"
   xmlns:rdf="http://www.w3.org/1999/02/22-rdf-syntax-ns#"
   xmlns:svg="http://www.w3.org/2000/svg"
   xmlns="http://www.w3.org/2000/svg"
   viewBox="0 0 512 511.99882"
   height="511.99881"
   width="512"
   xml:space="preserve"
   id="svg2"
   version="1.1"><metadata
     id="metadata8"><rdf:RDF><cc:Work
         rdf:about=""><dc:format>image/svg+xml</dc:format><dc:type
           rdf:resource="http://purl.org/dc/dcmitype/StillImage" /><dc:title></dc:title></cc:Work></rdf:RDF></metadata><defs
     id="defs6"><clipPath
       id="clipPath20"
       clipPathUnits="userSpaceOnUse"><path
         id="path18"
         d="M 0,105.465 H 228.128 V 0 H 0 Z" /></clipPath><clipPath
       id="clipPath388"
       clipPathUnits="userSpaceOnUse"><path
         id="path386"
         d="m 27.541,53.087 c 0,-13.445 10.899,-24.343 24.342,-24.343 v 0 c 13.444,0 24.342,10.898 24.342,24.343 v 0 c 0,13.444 -10.898,24.342 -24.342,24.342 v 0 C 38.44,77.429 27.541,66.531 27.541,53.087" /></clipPath><clipPath
       id="clipPath416"
       clipPathUnits="userSpaceOnUse"><path
         id="path414"
         d="M 0,105.465 H 228.128 V 0 H 0 Z" /></clipPath><clipPath
       id="clipPath436"
       clipPathUnits="userSpaceOnUse"><path
         id="path434"
         d="m 47.399,61.617 h -0.122 -0.245 c -1.287,-0.407 -3.028,0.007 -3.918,-0.98 v 0 c -0.369,0.12 -0.729,0.251 -1.102,0.368 v 0 C 41.962,60.907 41.9,60.82 41.833,60.741 v 0 c -0.03,-0.024 -0.057,-0.05 -0.085,-0.076 v 0 c -0.02,-0.019 -0.04,-0.037 -0.06,-0.057 v 0 c -0.039,-0.037 -0.076,-0.075 -0.112,-0.114 v 0 C 41.055,60.067 40.38,59.795 40.415,58.812 v 0 C 40.352,58.716 40.288,58.621 40.22,58.53 v 0 l -10e-4,-10e-4 c -1.324,-1.002 -3.008,-2.6 -2.247,-4.503 v 0 C 37.975,53.738 37.76,53.665 37.85,53.291 v 0 c -0.155,-0.212 -0.414,-0.32 -0.368,-0.734 v 0 c -0.035,-0.198 0.116,-0.211 0.122,-0.367 v 0 c 0.102,-0.346 -0.172,-0.318 -0.122,-0.613 v 0 c 0.387,-0.224 0.669,-0.555 0.98,-0.857 v 0 c -0.058,-0.384 0.329,-0.324 0.367,-0.612 v 0 c 0.227,-0.792 0.838,-1.202 1.469,-1.592 v 0 h 0.368 v -0.122 c -0.021,-0.201 0.754,-0.201 0.734,0 v 0 0.122 h 0.367 c 0.047,0.002 0.098,0 0.15,-0.002 v 0 c 0.162,-0.006 0.323,-0.013 0.34,0.125 v 0 h 0.122 c 0.104,-0.115 0.632,-0.411 0.735,-0.123 v 0 0.123 c 0.186,-0.044 0.277,0.008 0.367,0.061 v 0 c 0.09,0.053 0.181,0.106 0.368,0.062 v 0 c 0.325,0.083 0.623,0.192 0.857,0.366 v 0 h 0.489 c 0.104,-0.263 0.537,-0.197 0.735,-0.366 v 0 -0.368 c 0.504,-0.19 1.287,-0.101 1.469,-0.612 v 0 -0.857 c -0.118,-0.004 -0.095,-0.15 -0.122,-0.245 v 0 c -0.247,-0.136 -0.14,-0.947 0,-1.101 v 0 c 0.819,-0.692 1.23,-1.79 1.469,-3.061 v 0 c -0.088,-0.375 0.211,-0.361 0.122,-0.735 v 0 c -0.23,-0.3 -0.462,-0.599 -0.489,-1.102 v 0 C 48.166,40.486 48.113,40.13 48.134,39.702 v 0 C 48.2,39.523 47.991,39.068 48.256,39.09 v 0 c -0.02,-0.143 0.027,-0.218 0.123,-0.246 v 0 c 0.119,-0.004 0.095,-0.149 0.122,-0.245 v 0 c -0.006,-0.21 0.095,-0.313 0.245,-0.367 v 0 c 0.241,-0.208 0.328,-0.57 0.367,-0.979 v 0 c 0.117,-1.067 0.124,-2.243 0.857,-2.694 v 0 c -0.02,-0.142 0.028,-0.218 0.122,-0.245 v 0 c -0.074,-0.524 0.4,-0.499 0.368,-0.979 v 0 -0.489 -0.123 c 0.443,-0.541 1.378,-0.228 2.119,-0.138 v 0 c 0.063,-10e-4 0.136,0.009 0.208,0.017 v 0 c 0.085,0.005 0.168,0.006 0.245,-0.002 v 0 c 0.234,0.052 0.526,0.045 0.488,0.368 v 0 c 0.106,-0.008 0.17,0.027 0.235,0.062 v 0 c 0.068,0.037 0.136,0.074 0.256,0.06 v 0 c 0.256,0.152 0.46,0.356 0.612,0.612 v 0 0.123 c 0.245,0.203 0.569,0.328 0.612,0.734 v 0 c 0.231,0.014 0.085,0.405 0.367,0.367 v 0 c 0.168,0.103 0.214,0.252 0.223,0.419 v 0 c 0.006,0.166 -0.023,0.348 -0.007,0.514 v 0 c 0.379,0.848 1.767,0.64 1.836,1.612 v 0 h -0.069 c 0.069,0.138 0.208,0.278 -0.106,0.526 v 0 c -0.048,0.062 -0.086,0.125 -0.115,0.192 v 0 c -0.058,0.132 -0.083,0.273 -0.098,0.432 v 0 c -0.237,1.001 1.013,0.932 1.393,1.722 v 0 c 0.09,0.145 0.151,0.31 0.193,0.482 v 0 c 0.084,0.344 0.101,0.713 0.056,1.08 v 0 c 0.005,0.076 0.002,0.146 -0.006,0.21 v 0 c -0.023,0.19 -0.103,0.324 -0.239,0.403 v 0 H 58.54 c 0.051,0.295 -0.223,0.265 -0.122,0.612 v 0 c -0.066,0.177 0.143,0.632 -0.122,0.612 v 0 0.367 c 0.195,0.662 0.559,1.155 0.979,1.592 v 0 0.123 c 0.013,0.231 0.405,0.084 0.368,0.367 v 0 c 0.153,0.049 0.249,0.157 0.245,0.366 v 0 c 0.068,0.177 0.191,0.3 0.366,0.368 v 0 h 0.123 c 0.389,0.428 1.054,0.578 1.224,1.224 v 0 c -0.032,0.359 0.277,0.376 0.246,0.735 v 0 h 0.122 c 0.408,0.285 1.179,1.845 0.711,2.239 v 0 c -0.019,0.031 -0.047,0.055 -0.084,0.071 v 0 C 62.58,51.2 62.56,51.205 62.54,51.207 v 0 c -0.003,10e-4 -0.004,10e-4 -0.005,10e-4 v 0 c -0.024,0.004 -0.049,0.004 -0.077,0.002 v 0 c -0.142,0.02 -0.218,-0.027 -0.245,-0.122 v 0 C 61.57,51.078 61.062,50.933 60.622,50.72 v 0 H 60.5 c -0.081,0.164 -0.262,0.228 -0.49,0.245 v 0 c -0.171,0.564 -0.29,1.18 -0.858,1.348 v 0 c -0.11,0.215 -0.273,0.378 -0.489,0.489 v 0 c -0.411,-0.045 -0.203,0.53 -0.367,0.734 v 0 c -1.142,1.388 -1.6,3.462 -2.694,4.897 v 0 c 0.283,-10e-4 0.654,-0.947 0.734,-0.367 v 0 0.123 c 0.327,0.255 -0.305,0.585 -0.244,0.979 v 0 c -1.261,-0.165 -2.626,0.066 -3.983,0.477 v 0 c -0.028,0.014 -0.058,0.027 -0.086,0.039 v 0 c -0.006,0.003 -0.011,0.005 -0.016,0.007 v 0 c -0.026,0.011 -0.053,0.02 -0.079,0.029 v 0 c -0.008,0.003 -0.016,0.007 -0.024,0.009 v 0 c -0.026,0.009 -0.053,0.016 -0.081,0.023 v 0 c -0.008,0.002 -0.016,0.004 -0.025,0.006 v 0 c -0.037,0.008 -0.074,0.015 -0.115,0.021 v 0 c -0.122,0.039 -0.244,0.081 -0.366,0.124 v 0 c -0.346,-0.454 -0.004,-0.872 -0.612,-1.102 v 0 c -0.949,0.56 -2.063,0.958 -2.938,1.592 v 0 c 0.123,0.487 0.075,0.794 -0.123,1.224 v 0 z" /></clipPath><clipPath
       id="clipPath460"
       clipPathUnits="userSpaceOnUse"><path
         id="path458"
         d="M 0,105.465 H 228.128 V 0 H 0 Z" /></clipPath></defs><g
     transform="matrix(1.3333333,0,0,-1.3333333,-52.278816,526.39079)"
     id="g10"><g
       transform="matrix(4.5155116,0,0,4.5155116,-5.1399842,-36.519534)"
       id="g2483"><g
         id="g14"><g
           id="g16"
           clip-path="url(#clipPath20)"><g
             id="g2249"><g
               transform="translate(13.9492,62.7092)"
               id="g38"><path
                 id="path40"
                 style="fill:#1d6434;fill-opacity:1;fill-rule:nonzero;stroke:none"
                 d="M 0,0 0.133,0.518 2.928,-0.201 2.795,-0.719 Z" /></g><g
               transform="translate(14.2694,63.9693)"
               id="g42"><path
                 id="path44"
                 style="fill:#1d6434;fill-opacity:1;fill-rule:nonzero;stroke:none"
                 d="M 0,0 0.182,0.573 2.556,1.079 0.547,1.719 0.709,2.229 3.459,1.353 3.279,0.788 0.91,0.272 2.912,-0.366 2.75,-0.875 Z" /></g><g
               transform="translate(15.8449,67.0062)"
               id="g46"><path
                 id="path48"
                 style="fill:#1d6434;fill-opacity:1;fill-rule:nonzero;stroke:none"
                 d="M 0,0 -0.193,-0.495 -0.677,-0.306 -0.094,1.189 0.39,1.001 0.194,0.499 2.399,-0.36 2.205,-0.859 Z" /></g><g
               transform="translate(15.9328,68.6246)"
               id="g50"><path
                 id="path52"
                 style="fill:#1d6434;fill-opacity:1;fill-rule:nonzero;stroke:none"
                 d="M 0,0 0.636,1.414 1.11,1.2 0.693,0.275 1.298,0.002 1.698,0.889 2.171,0.675 1.772,-0.211 2.377,-0.484 2.794,0.442 3.268,0.229 2.631,-1.185 Z" /></g><g
               transform="translate(18.4748,70.7601)"
               id="g54"><path
                 id="path56"
                 style="fill:#1d6434;fill-opacity:1;fill-rule:nonzero;stroke:none"
                 d="M 0,0 C 0.065,0.124 0.131,0.293 0.091,0.433 0.058,0.547 -0.017,0.64 -0.124,0.696 -0.235,0.754 -0.371,0.763 -0.484,0.708 -0.625,0.641 -0.69,0.534 -0.755,0.401 l -0.138,-0.263 0.757,-0.397 z m -1.601,-0.094 0.388,0.74 c 0.13,0.24 0.264,0.461 0.528,0.569 C -0.437,1.318 -0.139,1.307 0.1,1.182 0.287,1.084 0.473,0.876 0.546,0.679 0.616,0.484 0.606,0.29 0.554,0.097 L 1.86,0.293 1.554,-0.291 0.224,-0.448 1.202,-0.961 0.953,-1.435 Z" /></g><g
               transform="translate(19.906,74.2547)"
               id="g58"><path
                 id="path60"
                 style="fill:#1d6434;fill-opacity:1;fill-rule:nonzero;stroke:none"
                 d="m 0,0 c -0.293,-0.019 -0.573,-0.194 -0.726,-0.439 -0.131,-0.208 -0.181,-0.458 -0.143,-0.699 0.043,-0.262 0.214,-0.525 0.44,-0.666 0.205,-0.129 0.481,-0.173 0.716,-0.122 0.279,0.056 0.523,0.225 0.67,0.46 0.181,0.288 0.186,0.695 0.008,0.991 L 0.324,-1.498 -0.102,-1.23 0.897,0.365 0.949,0.331 c 0.715,-0.447 0.878,-1.387 0.44,-2.086 -0.441,-0.705 -1.368,-0.963 -2.086,-0.513 -0.721,0.452 -0.909,1.403 -0.469,2.105 0.31,0.496 0.92,0.815 1.506,0.706 z" /></g><g
               transform="translate(21.3558,75.32)"
               id="g62"><path
                 id="path64"
                 style="fill:#1d6434;fill-opacity:1;fill-rule:nonzero;stroke:none"
                 d="M 0,0 C 0.426,-0.323 1.057,-0.248 1.375,0.172 1.694,0.591 1.597,1.219 1.171,1.542 0.739,1.87 0.131,1.793 -0.195,1.364 -0.521,0.934 -0.432,0.328 0,0 M 1.503,1.961 C 2.169,1.456 2.284,0.511 1.789,-0.142 1.293,-0.795 0.351,-0.938 -0.314,-0.433 -0.982,0.074 -1.111,1.015 -0.609,1.678 -0.106,2.34 0.835,2.469 1.503,1.961" /></g><g
               transform="translate(21.9901,78.5051)"
               id="g66"><path
                 id="path68"
                 style="fill:#1d6434;fill-opacity:1;fill-rule:nonzero;stroke:none"
                 d="M 0,0 0.375,0.419 2.528,-0.468 1.413,1.575 1.788,1.994 3.191,-0.764 2.896,-1.093 Z" /></g><g
               transform="translate(24.1512,80.8584)"
               id="g70"><path
                 id="path72"
                 style="fill:#1d6434;fill-opacity:1;fill-rule:nonzero;stroke:none"
                 d="M 0,0 1.108,1.084 1.471,0.712 0.745,0.003 1.209,-0.472 1.905,0.208 2.268,-0.164 1.572,-0.843 2.036,-1.318 2.762,-0.608 3.125,-0.98 2.017,-2.063 Z" /></g><g
               transform="translate(27.294,81.9177)"
               id="g74"><path
                 id="path76"
                 style="fill:#1d6434;fill-opacity:1;fill-rule:nonzero;stroke:none"
                 d="M 0,0 C 0.106,0.092 0.229,0.225 0.242,0.37 0.253,0.489 0.217,0.602 0.138,0.693 0.056,0.788 -0.067,0.846 -0.193,0.836 -0.348,0.825 -0.448,0.749 -0.558,0.648 l -0.224,-0.194 0.561,-0.646 z m -1.526,0.496 0.631,0.547 c 0.209,0.176 0.414,0.334 0.699,0.338 C 0.073,1.387 0.347,1.268 0.524,1.065 0.662,0.905 0.76,0.644 0.756,0.434 0.75,0.226 0.671,0.049 0.551,-0.111 L 1.84,-0.404 1.341,-0.837 0.045,-0.499 0.769,-1.333 0.365,-1.684 Z" /></g><g
               transform="translate(27.6681,84.041)"
               id="g78"><path
                 id="path80"
                 style="fill:#1d6434;fill-opacity:1;fill-rule:nonzero;stroke:none"
                 d="M 0,0 0.481,0.361 2.709,-0.603 1.442,1.083 1.87,1.405 3.603,-0.903 3.129,-1.259 0.899,-0.306 2.161,-1.986 1.733,-2.307 Z" /></g><g
               transform="translate(30.211,85.9232)"
               id="g82"><path
                 id="path84"
                 style="fill:#1d6434;fill-opacity:1;fill-rule:nonzero;stroke:none"
                 d="M 0,0 0.62,0.386 2.442,-1.079 1.943,1.209 2.559,1.592 4.084,-0.858 3.629,-1.14 2.487,0.696 2.996,-1.534 2.612,-1.773 0.836,-0.331 1.978,-2.167 1.524,-2.45 Z" /></g><g
               transform="translate(33.4372,87.8611)"
               id="g86"><path
                 id="path88"
                 style="fill:#1d6434;fill-opacity:1;fill-rule:nonzero;stroke:none"
                 d="m 0,0 1.375,0.716 0.24,-0.461 -0.901,-0.469 0.307,-0.588 0.862,0.449 0.24,-0.461 -0.863,-0.449 0.307,-0.588 0.9,0.468 0.24,-0.46 -1.374,-0.716 z" /></g><g
               transform="translate(35.4494,88.8965)"
               id="g90"><path
                 id="path92"
                 style="fill:#1d6434;fill-opacity:1;fill-rule:nonzero;stroke:none"
                 d="M 0,0 0.551,0.241 2.497,-1.211 1.653,0.722 2.144,0.936 3.298,-1.709 2.754,-1.947 0.804,-0.505 1.645,-2.431 1.154,-2.645 Z" /></g><g
               transform="translate(38.7697,89.7128)"
               id="g94"><path
                 id="path96"
                 style="fill:#1d6434;fill-opacity:1;fill-rule:nonzero;stroke:none"
                 d="M 0,0 -0.499,-0.181 -0.676,0.307 0.832,0.855 1.009,0.367 0.503,0.183 1.311,-2.041 0.808,-2.224 Z" /></g><g
               transform="translate(41.6835,89.5184)"
               id="g98"><path
                 id="path100"
                 style="fill:#1d6434;fill-opacity:1;fill-rule:nonzero;stroke:none"
                 d="m 0,0 -0.547,0.749 -0.044,-0.927 z m -0.964,1.402 0.4,0.121 1.994,-2.414 -0.564,-0.17 -0.514,0.624 -0.98,-0.294 -0.092,-0.807 -0.564,-0.17 z" /></g><g
               transform="translate(42.7873,91.4973)"
               id="g102"><path
                 id="path104"
                 style="fill:#1d6434;fill-opacity:1;fill-rule:nonzero;stroke:none"
                 d="m 0,0 0.521,0.121 0.535,-2.305 0.859,0.2 0.118,-0.506 -1.381,-0.32 z" /></g><g
               transform="translate(47.5921,90.7402)"
               id="g106"><path
                 id="path108"
                 style="fill:#1d6434;fill-opacity:1;fill-rule:nonzero;stroke:none"
                 d="M 0,0 -0.421,0.827 -0.612,-0.081 Z M -0.728,1.538 -0.314,1.593 1.27,-1.108 0.685,-1.185 0.277,-0.487 -0.737,-0.622 -0.956,-1.403 -1.541,-1.481 Z" /></g><g
               transform="translate(49.5535,92.5576)"
               id="g110"><path
                 id="path112"
                 style="fill:#1d6434;fill-opacity:1;fill-rule:nonzero;stroke:none"
                 d="m 0,0 0.103,-1.797 c 0.008,-0.133 0.008,-0.269 0.077,-0.387 0.087,-0.143 0.229,-0.233 0.396,-0.223 0.141,0.008 0.28,0.094 0.351,0.223 0.075,0.137 0.062,0.285 0.053,0.437 L 0.877,0.05 1.411,0.081 1.514,-1.716 C 1.531,-2 1.523,-2.271 1.349,-2.508 1.174,-2.741 0.899,-2.909 0.606,-2.926 0.333,-2.941 0.04,-2.81 -0.151,-2.617 c -0.224,0.225 -0.262,0.489 -0.28,0.789 l -0.103,1.797 z" /></g><g
               transform="translate(51.9793,92.1252)"
               id="g114"><path
                 id="path116"
                 style="fill:#1d6434;fill-opacity:1;fill-rule:nonzero;stroke:none"
                 d="M 0,0 -0.531,-0.009 -0.539,0.511 1.065,0.537 1.073,0.018 0.535,0.009 0.573,-2.357 0.039,-2.366 Z" /></g><g
               transform="translate(53.5733,92.6432)"
               id="g118"><path
                 id="path120"
                 style="fill:#1d6434;fill-opacity:1;fill-rule:nonzero;stroke:none"
                 d="m 0,0 0.534,-0.031 -0.068,-1.154 1.03,-0.06 0.067,1.153 0.534,-0.031 -0.169,-2.881 -0.534,0.032 0.071,1.208 -1.029,0.06 -0.071,-1.208 -0.534,0.031 z" /></g><g
               transform="translate(56.6656,90.9677)"
               id="g122"><path
                 id="path124"
                 style="fill:#1d6434;fill-opacity:1;fill-rule:nonzero;stroke:none"
                 d="M 0,0 C -0.075,-0.53 0.298,-1.044 0.82,-1.117 1.342,-1.191 1.842,-0.8 1.917,-0.271 1.993,0.266 1.629,0.759 1.096,0.835 0.562,0.91 0.076,0.537 0,0 M 2.445,-0.357 C 2.328,-1.184 1.559,-1.746 0.747,-1.631 -0.064,-1.517 -0.648,-0.764 -0.531,0.063 -0.414,0.894 0.345,1.465 1.168,1.349 1.992,1.233 2.563,0.474 2.445,-0.357" /></g><g
               transform="translate(60.4882,90.3886)"
               id="g126"><path
                 id="path128"
                 style="fill:#1d6434;fill-opacity:1;fill-rule:nonzero;stroke:none"
                 d="m 0,0 c 0.137,-0.03 0.317,-0.05 0.442,0.026 0.101,0.062 0.171,0.159 0.197,0.277 0.027,0.122 0,0.256 -0.083,0.35 C 0.454,0.771 0.334,0.806 0.188,0.834 L -0.101,0.898 -0.286,0.063 Z M -0.512,1.521 0.304,1.34 C 0.57,1.278 0.819,1.207 0.992,0.98 1.158,0.768 1.225,0.477 1.167,0.214 1.122,0.008 0.97,-0.226 0.799,-0.349 0.629,-0.467 0.439,-0.509 0.24,-0.509 l 0.532,-1.209 -0.644,0.142 -0.502,1.243 -0.238,-1.079 -0.522,0.115 z" /></g><g
               transform="translate(62.3604,91.3516)"
               id="g130"><path
                 id="path132"
                 style="fill:#1d6434;fill-opacity:1;fill-rule:nonzero;stroke:none"
                 d="m 0,0 0.516,-0.14 -0.755,-2.785 -0.517,0.14 z" /></g><g
               transform="translate(63.7012,90.4289)"
               id="g134"><path
                 id="path136"
                 style="fill:#1d6434;fill-opacity:1;fill-rule:nonzero;stroke:none"
                 d="M 0,0 -0.507,0.159 -0.351,0.654 1.18,0.174 1.024,-0.321 0.51,-0.16 l -0.708,-2.258 -0.51,0.161 z" /></g><g
               transform="translate(65.3441,88.5018)"
               id="g138"><path
                 id="path140"
                 style="fill:#1d6434;fill-opacity:1;fill-rule:nonzero;stroke:none"
                 d="M 0,0 -0.244,2.038 0.307,1.829 0.426,0.365 1.483,1.385 2.031,1.178 0.5,-0.189 0.124,-1.186 -0.377,-0.997 Z" /></g><g
               transform="translate(68.6607,87.5189)"
               id="g142"><path
                 id="path144"
                 style="fill:#1d6434;fill-opacity:1;fill-rule:nonzero;stroke:none"
                 d="M 0,0 C -0.243,-0.477 -0.058,-1.084 0.412,-1.324 0.881,-1.563 1.482,-1.357 1.725,-0.88 1.972,-0.397 1.788,0.188 1.308,0.433 0.828,0.678 0.247,0.483 0,0 M 2.196,-1.134 C 1.817,-1.878 0.906,-2.159 0.176,-1.786 -0.555,-1.414 -0.862,-0.512 -0.482,0.233 -0.1,0.98 0.803,1.274 1.544,0.896 2.285,0.518 2.578,-0.386 2.196,-1.134" /></g><g
               transform="translate(72.1155,87.3303)"
               id="g146"><path
                 id="path148"
                 style="fill:#1d6434;fill-opacity:1;fill-rule:nonzero;stroke:none"
                 d="m 0,0 0.511,-0.318 -0.093,-2.425 1.114,1.79 0.454,-0.282 -1.524,-2.45 -0.504,0.313 0.082,2.423 -1.11,-1.783 -0.454,0.282 z" /></g><g
               transform="translate(74.7886,82.6852)"
               id="g150"><path
                 id="path152"
                 style="fill:#1d6434;fill-opacity:1;fill-rule:nonzero;stroke:none"
                 d="M 0,0 C 0.237,-0.186 0.462,-0.347 0.772,-0.357 1.053,-0.36 1.313,-0.231 1.486,-0.01 1.672,0.227 1.748,0.539 1.658,0.829 1.568,1.107 1.34,1.297 1.118,1.47 L 1.088,1.494 -0.052,0.041 Z M 0.987,2.233 1.464,1.86 C 1.799,1.591 2.12,1.285 2.209,0.848 2.294,0.444 2.16,-0.017 1.907,-0.34 1.659,-0.656 1.25,-0.881 0.84,-0.897 0.383,-0.916 0.039,-0.691 -0.308,-0.418 l -0.486,0.381 z" /></g><g
               transform="translate(78.0816,83.0638)"
               id="g154"><path
                 id="path156"
                 style="fill:#1d6434;fill-opacity:1;fill-rule:nonzero;stroke:none"
                 d="m 0,0 1.154,-1.035 -0.346,-0.386 -0.756,0.677 -0.443,-0.494 0.724,-0.649 -0.347,-0.387 -0.724,0.649 -0.443,-0.494 0.756,-0.678 -0.346,-0.387 -1.155,1.035 z" /></g><g
               transform="translate(79.5892,81.716)"
               id="g158"><path
                 id="path160"
                 style="fill:#1d6434;fill-opacity:1;fill-rule:nonzero;stroke:none"
                 d="m 0,0 0.393,-0.402 -1.024,-2.09 2.112,0.98 0.393,-0.402 -2.843,-1.221 -0.309,0.315 z" /></g><g
               transform="translate(81.7973,79.4085)"
               id="g162"><path
                 id="path164"
                 style="fill:#1d6434;fill-opacity:1;fill-rule:nonzero;stroke:none"
                 d="M 0,0 1.01,-1.176 0.616,-1.515 -0.046,-0.744 -0.549,-1.177 0.084,-1.915 -0.31,-2.253 -0.943,-1.515 -1.447,-1.947 -0.786,-2.718 -1.18,-3.056 -2.19,-1.88 Z" /></g><g
               transform="translate(83.2298,77.704)"
               id="g166"><path
                 id="path168"
                 style="fill:#1d6434;fill-opacity:1;fill-rule:nonzero;stroke:none"
                 d="m 0,0 0.327,-0.423 -1.873,-1.446 0.539,-0.699 -0.411,-0.317 -0.866,1.122 z" /></g><g
               transform="translate(83.4368,75.0342)"
               id="g170"><path
                 id="path172"
                 style="fill:#1d6434;fill-opacity:1;fill-rule:nonzero;stroke:none"
                 d="M 0,0 C -0.445,-0.297 -0.58,-0.918 -0.288,-1.356 0.005,-1.795 0.63,-1.908 1.075,-1.611 1.527,-1.31 1.652,-0.71 1.353,-0.262 1.054,0.187 0.452,0.301 0,0 m 1.362,-2.063 c -0.695,-0.464 -1.626,-0.264 -2.082,0.419 -0.455,0.682 -0.282,1.619 0.413,2.083 0.699,0.466 1.63,0.28 2.092,-0.412 0.462,-0.692 0.276,-1.624 -0.423,-2.09" /></g><g
               transform="translate(85.5407,72.0213)"
               id="g174"><path
                 id="path176"
                 style="fill:#1d6434;fill-opacity:1;fill-rule:nonzero;stroke:none"
                 d="m 0,0 c 0.065,-0.116 0.133,-0.252 0.23,-0.345 0.121,-0.111 0.292,-0.136 0.438,-0.054 0.153,0.086 0.205,0.25 0.164,0.41 C 0.801,0.129 0.714,0.268 0.657,0.37 L 0.609,0.455 -0.048,0.085 Z M -1.715,-0.24 0.799,1.176 1.132,0.584 C 1.268,0.342 1.407,0.12 1.382,-0.171 1.36,-0.457 1.189,-0.719 0.938,-0.861 0.689,-1.001 0.394,-1.033 0.126,-0.924 -0.157,-0.81 -0.309,-0.51 -0.448,-0.262 L -0.5,-0.17 -1.453,-0.706 Z" /></g><g
               transform="translate(87.5345,71.0678)"
               id="g178"><path
                 id="path180"
                 style="fill:#1d6434;fill-opacity:1;fill-rule:nonzero;stroke:none"
                 d="m 0,0 0.307,-0.662 -1.675,-1.631 2.331,0.217 0.306,-0.658 -2.617,-1.215 -0.226,0.485 1.963,0.911 -2.277,-0.235 -0.19,0.411 1.648,1.588 -1.962,-0.911 -0.226,0.485 z" /></g><g
               transform="translate(89.0668,67.626)"
               id="g182"><path
                 id="path184"
                 style="fill:#1d6434;fill-opacity:1;fill-rule:nonzero;stroke:none"
                 d="m 0,0 0.542,-1.452 -0.486,-0.182 -0.355,0.951 -0.622,-0.232 0.34,-0.911 -0.487,-0.182 -0.34,0.911 -0.622,-0.232 0.355,-0.951 -0.486,-0.182 -0.543,1.453 z" /></g><g
               transform="translate(89.8465,65.5038)"
               id="g186"><path
                 id="path188"
                 style="fill:#1d6434;fill-opacity:1;fill-rule:nonzero;stroke:none"
                 d="m 0,0 0.171,-0.576 -1.678,-1.753 2.021,0.6 0.152,-0.513 -2.765,-0.821 -0.169,0.568 1.668,1.759 -2.013,-0.599 -0.153,0.513 z" /></g><g
               transform="translate(90.2509,62.1073)"
               id="g190"><path
                 id="path192"
                 style="fill:#1d6434;fill-opacity:1;fill-rule:nonzero;stroke:none"
                 d="M 0,0 -0.119,0.518 0.387,0.634 0.746,-0.931 0.24,-1.047 0.119,-0.521 -2.187,-1.05 l -0.12,0.521 z" /></g><g
               transform="translate(13.7989,48.565)"
               id="g194"><path
                 id="path196"
                 style="fill:#1d6434;fill-opacity:1;fill-rule:nonzero;stroke:none"
                 d="M 0,0 0.836,0.402 -0.068,0.613 Z M 1.554,0.693 1.599,0.278 -1.136,-1.245 -1.2,-0.658 -0.493,-0.266 -0.605,0.75 -1.381,0.987 -1.446,1.573 Z" /></g><g
               transform="translate(15.6767,46.8795)"
               id="g198"><path
                 id="path200"
                 style="fill:#1d6434;fill-opacity:1;fill-rule:nonzero;stroke:none"
                 d="m 0,0 -1.771,-0.324 c -0.13,-0.024 -0.266,-0.041 -0.374,-0.124 -0.132,-0.103 -0.203,-0.255 -0.173,-0.42 0.025,-0.139 0.128,-0.267 0.265,-0.321 0.145,-0.057 0.29,-0.026 0.44,0.001 l 1.771,0.324 0.096,-0.527 -1.771,-0.323 c -0.28,-0.052 -0.549,-0.077 -0.806,0.067 -0.252,0.144 -0.454,0.397 -0.506,0.685 -0.049,0.269 0.045,0.576 0.213,0.789 0.196,0.251 0.453,0.321 0.749,0.376 l 1.771,0.323 z" /></g><g
               transform="translate(15.6083,44.5966)"
               id="g202"><path
                 id="path204"
                 style="fill:#1d6434;fill-opacity:1;fill-rule:nonzero;stroke:none"
                 d="m 0,0 -0.124,0.516 0.505,0.121 0.375,-1.56 -0.505,-0.121 -0.126,0.524 -2.301,-0.552 -0.125,0.52 z" /></g><g
               transform="translate(15.1393,42.6588)"
               id="g206"><path
                 id="path208"
                 style="fill:#1d6434;fill-opacity:1;fill-rule:nonzero;stroke:none"
                 d="m 0,0 c -0.511,-0.159 -0.817,-0.715 -0.66,-1.219 0.156,-0.503 0.723,-0.789 1.234,-0.631 0.519,0.161 0.809,0.701 0.649,1.216 C 1.063,-0.12 0.518,0.161 0,0 m 0.722,-2.364 c -0.799,-0.248 -1.635,0.208 -1.878,0.991 -0.243,0.783 0.188,1.633 0.986,1.88 C 0.632,0.756 1.473,0.314 1.719,-0.48 1.966,-1.275 1.523,-2.115 0.722,-2.364" /></g><g
               transform="translate(16.4168,39.119)"
               id="g210"><path
                 id="path212"
                 style="fill:#1d6434;fill-opacity:1;fill-rule:nonzero;stroke:none"
                 d="m 0,0 c 0.051,-0.131 0.135,-0.291 0.268,-0.352 0.108,-0.05 0.227,-0.053 0.34,-0.009 0.116,0.046 0.212,0.142 0.244,0.264 0.042,0.15 0.003,0.27 -0.055,0.406 L 0.689,0.585 -0.107,0.273 Z M 0.977,1.273 1.282,0.496 C 1.379,0.24 1.458,-0.006 1.367,-0.276 1.283,-0.532 1.08,-0.75 0.829,-0.849 0.633,-0.926 0.353,-0.931 0.157,-0.857 c -0.193,0.075 -0.334,0.208 -0.446,0.374 l -0.706,-1.116 -0.242,0.614 0.752,1.109 -1.029,-0.404 -0.195,0.498 z" /></g><g
               transform="translate(18.2268,38.3359)"
               id="g214"><path
                 id="path216"
                 style="fill:#1d6434;fill-opacity:1;fill-rule:nonzero;stroke:none"
                 d="m 0,0 0.218,-0.489 -2.637,-1.173 -0.217,0.489 z" /></g><g
               transform="translate(18.3179,36.8887)"
               id="g218"><path
                 id="path220"
                 style="fill:#1d6434;fill-opacity:1;fill-rule:nonzero;stroke:none"
                 d="m 0,0 -0.233,0.477 0.467,0.228 0.704,-1.442 -0.467,-0.228 -0.236,0.484 -2.126,-1.038 -0.235,0.48 z" /></g><g
               transform="translate(19.9833,36.045)"
               id="g222"><path
                 id="path224"
                 style="fill:#1d6434;fill-opacity:1;fill-rule:nonzero;stroke:none"
                 d="m 0,0 0.878,-0.52 -0.256,-0.377 -0.843,0.553 z m -0.622,-0.092 0.747,-1.359 -0.455,-0.25 -0.489,0.89 -0.582,-0.32 0.468,-0.852 -0.455,-0.25 -0.468,0.852 -0.582,-0.32 0.489,-0.89 -0.455,-0.25 -0.746,1.359 z" /></g><g
               transform="translate(20.8843,33.3264)"
               id="g226"><path
                 id="path228"
                 style="fill:#1d6434;fill-opacity:1;fill-rule:nonzero;stroke:none"
                 d="m 0,0 0.289,-0.45 -2.426,-1.561 -0.29,0.45 z" /></g><g
               transform="translate(21.4393,32.4435)"
               id="g230"><path
                 id="path232"
                 style="fill:#1d6434;fill-opacity:1;fill-rule:nonzero;stroke:none"
                 d="m 0,0 0.351,-0.488 -1.008,-2.208 1.711,1.232 0.312,-0.434 -2.342,-1.686 -0.346,0.482 0.998,2.209 -1.705,-1.227 -0.313,0.434 z" /></g><g
               transform="translate(22.9043,29.6055)"
               id="g234"><path
                 id="path236"
                 style="fill:#1d6434;fill-opacity:1;fill-rule:nonzero;stroke:none"
                 d="M 0,0 -0.335,0.412 0.068,0.74 1.08,-0.505 0.678,-0.833 l -0.34,0.418 -1.836,-1.493 -0.337,0.415 z" /></g><g
               transform="translate(24.133,28.9292)"
               id="g238"><path
                 id="path240"
                 style="fill:#1d6434;fill-opacity:1;fill-rule:nonzero;stroke:none"
                 d="m 0,0 1.034,-1.154 -0.386,-0.347 -0.678,0.756 -0.494,-0.443 0.649,-0.724 -0.387,-0.347 -0.649,0.725 -0.494,-0.444 0.677,-0.756 -0.387,-0.346 -1.034,1.154 z" /></g><g
               transform="translate(25.0759,25.9053)"
               id="g242"><path
                 id="path244"
                 style="fill:#1d6434;fill-opacity:1;fill-rule:nonzero;stroke:none"
                 d="M 0,0 C 0.1,-0.099 0.241,-0.212 0.387,-0.215 0.506,-0.217 0.616,-0.173 0.701,-0.087 0.79,0.001 0.839,0.128 0.82,0.252 0.797,0.407 0.714,0.501 0.607,0.603 L 0.397,0.812 -0.207,0.207 Z M 0.385,1.558 0.976,0.968 C 1.167,0.772 1.339,0.579 1.364,0.295 1.389,0.027 1.29,-0.255 1.1,-0.446 0.951,-0.595 0.697,-0.711 0.487,-0.723 0.28,-0.731 0.098,-0.665 -0.071,-0.558 l -0.2,-1.306 -0.467,0.466 0.244,1.317 -0.78,-0.782 -0.379,0.378 z" /></g><g
               transform="translate(28.0929,23.8598)"
               id="g246"><path
                 id="path248"
                 style="fill:#1d6434;fill-opacity:1;fill-rule:nonzero;stroke:none"
                 d="M 0,0 C 0.025,0.293 -0.105,0.596 -0.324,0.784 -0.51,0.945 -0.749,1.033 -0.992,1.031 -1.258,1.029 -1.545,0.899 -1.718,0.698 -1.876,0.515 -1.962,0.249 -1.947,0.009 c 0.013,-0.284 0.143,-0.552 0.353,-0.733 0.257,-0.222 0.658,-0.289 0.978,-0.157 l -0.914,0.788 0.329,0.381 1.425,-1.229 -0.04,-0.048 c -0.551,-0.638 -1.505,-0.656 -2.129,-0.118 -0.63,0.544 -0.744,1.498 -0.191,2.14 0.556,0.644 1.525,0.685 2.152,0.145 0.443,-0.383 0.665,-1.034 0.469,-1.596 z" /></g><g
               transform="translate(28.9387,22.4191)"
               id="g250"><path
                 id="path252"
                 style="fill:#1d6434;fill-opacity:1;fill-rule:nonzero;stroke:none"
                 d="M 0,0 C -0.313,-0.434 -0.223,-1.062 0.204,-1.371 0.631,-1.68 1.257,-1.568 1.57,-1.134 1.888,-0.694 1.796,-0.088 1.359,0.227 0.922,0.543 0.318,0.44 0,0 M 1.996,-1.457 C 1.507,-2.134 0.565,-2.272 -0.1,-1.792 c -0.665,0.48 -0.83,1.419 -0.34,2.096 0.491,0.68 1.429,0.831 2.103,0.344 0.674,-0.487 0.825,-1.425 0.333,-2.105" /></g><g
               transform="translate(32.558,21.6763)"
               id="g254"><path
                 id="path256"
                 style="fill:#1d6434;fill-opacity:1;fill-rule:nonzero;stroke:none"
                 d="m 0,0 -0.94,-1.535 c -0.07,-0.113 -0.148,-0.225 -0.158,-0.361 -0.011,-0.168 0.055,-0.322 0.198,-0.41 0.12,-0.073 0.284,-0.082 0.416,-0.016 0.139,0.07 0.213,0.198 0.293,0.328 l 0.94,1.535 0.456,-0.279 -0.94,-1.535 c -0.149,-0.243 -0.31,-0.461 -0.588,-0.556 -0.276,-0.092 -0.598,-0.073 -0.848,0.08 -0.233,0.143 -0.399,0.419 -0.446,0.685 -0.055,0.314 0.063,0.552 0.221,0.809 l 0.94,1.535 z" /></g><g
               transform="translate(33.9837,20.7972)"
               id="g258"><path
                 id="path260"
                 style="fill:#1d6434;fill-opacity:1;fill-rule:nonzero;stroke:none"
                 d="M 0,0 0.498,-0.26 0.173,-2.565 1.876,-0.979 2.374,-1.239 0.05,-3.28 -0.341,-3.076 Z" /></g><g
               transform="translate(36.5782,19.4726)"
               id="g262"><path
                 id="path264"
                 style="fill:#1d6434;fill-opacity:1;fill-rule:nonzero;stroke:none"
                 d="M 0,0 1.416,-0.629 1.206,-1.104 0.278,-0.692 0.009,-1.298 0.897,-1.693 0.686,-2.167 -0.202,-1.773 -0.472,-2.379 0.456,-2.791 0.245,-3.266 -1.171,-2.637 Z" /></g><g
               transform="translate(38.6818,17.1001)"
               id="g266"><path
                 id="path268"
                 style="fill:#1d6434;fill-opacity:1;fill-rule:nonzero;stroke:none"
                 d="M 0,0 C 0.132,-0.05 0.306,-0.095 0.441,-0.037 0.55,0.009 0.633,0.095 0.676,0.208 0.72,0.325 0.713,0.461 0.644,0.566 0.56,0.698 0.446,0.75 0.306,0.799 L 0.028,0.903 -0.274,0.104 Z M -0.289,1.578 0.493,1.283 C 0.748,1.183 0.983,1.077 1.123,0.828 1.256,0.594 1.281,0.297 1.186,0.045 1.111,-0.153 0.927,-0.363 0.741,-0.459 0.555,-0.552 0.362,-0.567 0.164,-0.538 l 0.354,-1.273 -0.617,0.233 -0.318,1.302 -0.391,-1.034 -0.5,0.189 z" /></g><g
               transform="translate(40.4603,17.9029)"
               id="g270"><path
                 id="path272"
                 style="fill:#1d6434;fill-opacity:1;fill-rule:nonzero;stroke:none"
                 d="m 0,0 0.576,-0.174 0.542,-2.365 0.609,2.018 0.512,-0.154 -0.833,-2.763 -0.569,0.172 -0.552,2.36 -0.606,-2.011 -0.512,0.155 z" /></g><g
               transform="translate(43.1828,17.1138)"
               id="g274"><path
                 id="path276"
                 style="fill:#1d6434;fill-opacity:1;fill-rule:nonzero;stroke:none"
                 d="m 0,0 1.511,-0.35 -0.118,-0.506 -0.989,0.229 -0.15,-0.646 0.948,-0.22 -0.117,-0.506 -0.948,0.219 -0.15,-0.646 0.99,-0.229 -0.118,-0.506 -1.51,0.349 z" /></g><g
               transform="translate(45.1035,16.6586)"
               id="g278"><path
                 id="path280"
                 style="fill:#1d6434;fill-opacity:1;fill-rule:nonzero;stroke:none"
                 d="M 0,0 0.721,-0.112 1.147,-2.41 2.261,-0.351 2.979,-0.462 2.536,-3.314 2.008,-3.231 2.339,-1.094 1.271,-3.117 0.823,-3.048 0.418,-0.796 0.086,-2.933 -0.442,-2.851 Z" /></g><g
               transform="translate(48.5247,16.1732)"
               id="g282"><path
                 id="path284"
                 style="fill:#1d6434;fill-opacity:1;fill-rule:nonzero;stroke:none"
                 d="M 0,0 1.545,-0.125 1.503,-0.643 0.491,-0.561 0.438,-1.223 1.407,-1.301 1.365,-1.819 0.396,-1.74 0.342,-2.402 1.355,-2.484 1.313,-3.002 -0.233,-2.877 Z" /></g><g
               transform="translate(50.4977,16.0148)"
               id="g286"><path
                 id="path288"
                 style="fill:#1d6434;fill-opacity:1;fill-rule:nonzero;stroke:none"
                 d="m 0,0 0.601,-0.01 1.168,-2.128 0.035,2.109 0.534,-0.009 -0.047,-2.885 -0.593,0.01 -1.176,2.12 -0.034,-2.101 -0.535,0.009 z" /></g><g
               transform="translate(53.6474,15.4943)"
               id="g290"><path
                 id="path292"
                 style="fill:#1d6434;fill-opacity:1;fill-rule:nonzero;stroke:none"
                 d="M 0,0 -0.531,-0.023 -0.553,0.496 1.051,0.565 1.073,0.046 0.534,0.023 0.635,-2.341 0.101,-2.364 Z" /></g><g
               transform="translate(56.2786,14.5718)"
               id="g294"><path
                 id="path296"
                 style="fill:#1d6434;fill-opacity:1;fill-rule:nonzero;stroke:none"
                 d="m 0,0 -0.389,0.842 -0.225,-0.9 z M -0.669,1.564 -0.253,1.603 1.227,-1.155 0.64,-1.21 0.259,-0.497 -0.76,-0.593 -1.008,-1.366 -1.595,-1.421 Z" /></g><g
               transform="translate(57.4679,16.3445)"
               id="g298"><path
                 id="path300"
                 style="fill:#1d6434;fill-opacity:1;fill-rule:nonzero;stroke:none"
                 d="M 0,0 0.528,0.083 0.894,-2.255 1.765,-2.118 1.846,-2.632 0.445,-2.85 Z" /></g><g
               transform="translate(59.1173,16.6108)"
               id="g302"><path
                 id="path304"
                 style="fill:#1d6434;fill-opacity:1;fill-rule:nonzero;stroke:none"
                 d="M 0,0 1.518,0.315 1.623,-0.194 0.629,-0.4 0.764,-1.05 1.716,-0.852 1.821,-1.361 0.87,-1.558 1.004,-2.208 1.998,-2.002 2.104,-2.51 0.586,-2.825 Z" /></g><g
               transform="translate(63.0383,16.2459)"
               id="g306"><path
                 id="path308"
                 style="fill:#1d6434;fill-opacity:1;fill-rule:nonzero;stroke:none"
                 d="M 0,0 C 0.127,0.038 0.275,0.074 0.388,0.148 0.523,0.241 0.585,0.402 0.537,0.563 0.487,0.731 0.339,0.818 0.174,0.813 0.052,0.81 -0.102,0.756 -0.215,0.722 L -0.308,0.694 -0.094,-0.028 Z M -0.147,-1.726 -0.969,1.04 -0.318,1.233 C -0.052,1.312 0.195,1.398 0.474,1.31 0.748,1.224 0.965,1 1.048,0.723 1.129,0.449 1.095,0.154 0.929,-0.082 0.755,-0.334 0.429,-0.414 0.155,-0.496 L 0.054,-0.525 0.366,-1.573 Z" /></g><g
               transform="translate(64.9845,16.6761)"
               id="g310"><path
                 id="path312"
                 style="fill:#1d6434;fill-opacity:1;fill-rule:nonzero;stroke:none"
                 d="M 0,0 C 0.189,-0.5 0.764,-0.771 1.256,-0.585 1.749,-0.398 2,0.185 1.811,0.685 1.619,1.193 1.063,1.45 0.559,1.259 0.055,1.068 -0.192,0.508 0,0 M 2.315,0.864 C 2.611,0.082 2.207,-0.78 1.44,-1.07 0.673,-1.361 -0.2,-0.982 -0.496,-0.2 -0.793,0.585 -0.403,1.45 0.375,1.745 1.153,2.039 2.018,1.649 2.315,0.864" /></g><g
               transform="translate(67.5977,19.288)"
               id="g314"><path
                 id="path316"
                 style="fill:#1d6434;fill-opacity:1;fill-rule:nonzero;stroke:none"
                 d="m 0,0 0.764,-1.63 c 0.056,-0.12 0.107,-0.247 0.215,-0.33 0.134,-0.101 0.299,-0.132 0.451,-0.06 0.127,0.059 0.225,0.191 0.242,0.338 0.018,0.155 -0.048,0.287 -0.113,0.425 L 0.795,0.373 1.28,0.6 2.044,-1.03 C 2.165,-1.288 2.258,-1.542 2.184,-1.826 2.109,-2.107 1.915,-2.366 1.65,-2.49 1.403,-2.606 1.082,-2.593 0.833,-2.485 0.541,-2.359 0.407,-2.129 0.28,-1.857 l -0.764,1.63 z" /></g><g
               transform="translate(70.7057,19.3081)"
               id="g318"><path
                 id="path320"
                 style="fill:#1d6434;fill-opacity:1;fill-rule:nonzero;stroke:none"
                 d="M 0,0 C 0.123,0.068 0.271,0.171 0.315,0.311 0.351,0.424 0.34,0.542 0.281,0.648 0.222,0.758 0.113,0.841 -0.011,0.857 -0.166,0.88 -0.279,0.827 -0.407,0.752 l -0.26,-0.143 0.41,-0.75 z m -1.386,0.808 0.733,0.401 C -0.412,1.337 -0.178,1.447 0.102,1.391 0.366,1.34 0.608,1.165 0.738,0.929 0.839,0.744 0.879,0.468 0.831,0.263 0.78,0.062 0.666,-0.094 0.515,-0.225 L 1.712,-0.785 1.133,-1.102 -0.062,-0.497 0.469,-1.466 0,-1.723 Z" /></g><g
               transform="translate(72.1496,21.7492)"
               id="g322"><path
                 id="path324"
                 style="fill:#1d6434;fill-opacity:1;fill-rule:nonzero;stroke:none"
                 d="m 0,0 0.447,0.294 1.3,-1.977 0.737,0.484 0.285,-0.434 -1.184,-0.778 z" /></g><g
               transform="translate(73.5378,22.6714)"
               id="g326"><path
                 id="path328"
                 style="fill:#1d6434;fill-opacity:1;fill-rule:nonzero;stroke:none"
                 d="M 0,0 1.252,0.914 1.558,0.495 0.738,-0.104 1.13,-0.64 1.915,-0.067 2.221,-0.486 1.436,-1.059 1.827,-1.596 2.647,-0.997 2.953,-1.416 1.702,-2.33 Z" /></g><g
               transform="translate(77.9652,23.1186)"
               id="g330"><path
                 id="path332"
                 style="fill:#1d6434;fill-opacity:1;fill-rule:nonzero;stroke:none"
                 d="M 0,0 C 0.226,0.198 0.426,0.39 0.493,0.693 0.547,0.969 0.468,1.248 0.282,1.459 0.084,1.685 -0.209,1.818 -0.51,1.782 -0.8,1.745 -1.028,1.555 -1.24,1.37 L -1.269,1.344 -0.05,-0.044 Z m -2.014,1.381 0.455,0.399 c 0.325,0.281 0.685,0.54 1.131,0.547 C -0.015,2.336 0.414,2.121 0.684,1.812 0.95,1.51 1.095,1.066 1.036,0.661 0.971,0.208 0.686,-0.089 0.355,-0.38 l -0.464,-0.407 z" /></g><g
               transform="translate(77.9491,26.2885)"
               id="g334"><path
                 id="path336"
                 style="fill:#1d6434;fill-opacity:1;fill-rule:nonzero;stroke:none"
                 d="M 0,0 1.099,1.094 1.465,0.726 0.746,0.009 1.214,-0.461 1.903,0.225 2.269,-0.143 1.58,-0.829 2.049,-1.3 2.768,-0.583 3.135,-0.952 2.036,-2.045 Z M -0.261,0.572 -0.005,1.56 0.429,1.418 0.131,0.455 Z" /></g><g
               transform="translate(79.1916,27.51)"
               id="g338"><path
                 id="path340"
                 style="fill:#1d6434;fill-opacity:1;fill-rule:nonzero;stroke:none"
                 d="M 0,0 0.373,0.421 2.531,-0.455 1.405,1.583 1.778,2.004 3.195,-0.747 2.902,-1.077 Z" /></g><g
               transform="translate(81.1057,29.7062)"
               id="g342"><path
                 id="path344"
                 style="fill:#1d6434;fill-opacity:1;fill-rule:nonzero;stroke:none"
                 d="M 0,0 0.955,1.221 1.364,0.902 0.739,0.102 1.262,-0.307 1.86,0.459 2.27,0.139 1.671,-0.627 l 0.523,-0.409 0.625,0.8 0.409,-0.319 -0.954,-1.222 z" /></g><g
               transform="translate(82.3139,31.2765)"
               id="g346"><path
                 id="path348"
                 style="fill:#1d6434;fill-opacity:1;fill-rule:nonzero;stroke:none"
                 d="m 0,0 0.308,0.437 1.934,-1.364 0.509,0.721 0.424,-0.3 -0.817,-1.158 z" /></g><g
               transform="translate(84.7163,32.2066)"
               id="g350"><path
                 id="path352"
                 style="fill:#1d6434;fill-opacity:1;fill-rule:nonzero;stroke:none"
                 d="M 0,0 C 0.456,-0.279 1.076,-0.141 1.351,0.308 1.627,0.758 1.467,1.373 1.011,1.652 0.548,1.935 -0.049,1.797 -0.33,1.338 -0.612,0.878 -0.463,0.283 0,0 M 1.3,2.102 C 2.013,1.666 2.223,0.737 1.794,0.037 1.366,-0.662 0.443,-0.899 -0.269,-0.462 -0.985,-0.024 -1.208,0.899 -0.773,1.609 -0.339,2.318 0.584,2.54 1.3,2.102" /></g><g
               transform="translate(86.3541,35.3759)"
               id="g354"><path
                 id="path356"
                 style="fill:#1d6434;fill-opacity:1;fill-rule:nonzero;stroke:none"
                 d="M 0,0 C 0.061,0.118 0.138,0.25 0.162,0.382 0.189,0.544 0.116,0.701 -0.033,0.778 -0.189,0.858 -0.354,0.812 -0.466,0.689 -0.547,0.599 -0.616,0.45 -0.669,0.346 l -0.045,-0.087 0.669,-0.346 z m 1.142,-1.302 -2.563,1.325 0.312,0.603 c 0.127,0.246 0.237,0.484 0.494,0.624 0.251,0.138 0.564,0.139 0.821,0.006 C 0.459,1.125 0.648,0.896 0.703,0.612 0.764,0.313 0.596,0.022 0.465,-0.232 L 0.417,-0.325 1.388,-0.827 Z" /></g><g
               transform="translate(87.3205,37.3601)"
               id="g358"><path
                 id="path360"
                 style="fill:#1d6434;fill-opacity:1;fill-rule:nonzero;stroke:none"
                 d="M 0,0 C 0.054,0.121 0.123,0.257 0.14,0.391 0.157,0.554 0.076,0.706 -0.078,0.774 -0.238,0.846 -0.4,0.79 -0.505,0.661 -0.581,0.567 -0.64,0.414 -0.688,0.307 l -0.04,-0.089 0.688,-0.307 z m 1.215,-1.235 -2.635,1.176 0.277,0.62 c 0.113,0.253 0.208,0.497 0.457,0.651 0.243,0.153 0.555,0.172 0.819,0.054 C 0.393,1.15 0.595,0.932 0.667,0.652 0.745,0.356 0.594,0.056 0.478,-0.204 L 0.435,-0.301 1.433,-0.746 Z" /></g><g
               transform="translate(86.7558,39.2583)"
               id="g362"><path
                 id="path364"
                 style="fill:#1d6434;fill-opacity:1;fill-rule:nonzero;stroke:none"
                 d="M 0,0 0.551,1.449 1.037,1.264 0.676,0.315 1.296,0.079 1.642,0.988 2.127,0.803 1.782,-0.105 2.402,-0.342 2.763,0.607 3.249,0.423 2.697,-1.026 Z" /></g><g
               transform="translate(87.4661,41.0965)"
               id="g366"><path
                 id="path368"
                 style="fill:#1d6434;fill-opacity:1;fill-rule:nonzero;stroke:none"
                 d="M 0,0 0.209,0.7 2.544,0.81 0.654,2.193 0.862,2.889 3.627,2.064 3.474,1.551 1.401,2.17 3.261,0.837 3.132,0.402 0.845,0.306 2.918,-0.312 2.765,-0.825 Z" /></g><g
               transform="translate(88.4128,44.4231)"
               id="g370"><path
                 id="path372"
                 style="fill:#1d6434;fill-opacity:1;fill-rule:nonzero;stroke:none"
                 d="M 0,0 0.333,1.514 0.84,1.402 0.622,0.411 1.27,0.268 1.479,1.218 1.986,1.106 1.777,0.157 2.425,0.014 2.644,1.006 3.151,0.894 2.818,-0.62 Z" /></g><g
               transform="translate(88.8351,46.3537)"
               id="g374"><path
                 id="path376"
                 style="fill:#1d6434;fill-opacity:1;fill-rule:nonzero;stroke:none"
                 d="M 0,0 0.09,0.594 2.356,1.466 0.271,1.783 0.352,2.312 3.204,1.878 3.115,1.291 0.856,0.411 2.933,0.095 2.852,-0.434 Z" /></g><g
               transform="translate(89.7728,49.4052)"
               id="g378"><path
                 id="path380"
                 style="fill:#1d6434;fill-opacity:1;fill-rule:nonzero;stroke:none"
                 d="M 0,0 -0.048,-0.529 -0.566,-0.481 -0.419,1.117 0.098,1.069 0.049,0.533 2.405,0.317 2.356,-0.216 Z" /></g></g></g></g><g
         id="g382"><g
           id="g384"
           clip-path="url(#clipPath388)"><path
             d="M 79.971,56.86 H 25.202 v 1.301 h 54.769 z"
             style="fill:#f89c0e;fill-opacity:1;fill-rule:nonzero;stroke:none"
             id="path390" /><path
             d="M 79.971,53.094 H 25.202 v 1.301 h 54.769 z"
             style="fill:#f89c0e;fill-opacity:1;fill-rule:nonzero;stroke:none"
             id="path392" /><path
             d="M 79.971,49.363 H 25.202 v 1.301 h 54.769 z"
             style="fill:#f89c0e;fill-opacity:1;fill-rule:nonzero;stroke:none"
             id="path394" /><path
             d="M 79.971,41.816 H 25.202 v 1.301 h 54.769 z"
             style="fill:#1d6434;fill-opacity:1;fill-rule:nonzero;stroke:none"
             id="path396" /><path
             d="M 79.971,38.059 H 25.202 v 1.301 h 54.769 z"
             style="fill:#1d6434;fill-opacity:1;fill-rule:nonzero;stroke:none"
             id="path398" /><path
             d="M 79.971,34.294 H 25.202 v 1.301 h 54.769 z"
             style="fill:#1d6434;fill-opacity:1;fill-rule:nonzero;stroke:none"
             id="path400" /><path
             d="m 28.918,71.879 h 7.581 v -4.381 h -7.581 z"
             style="fill:#f89c0e;fill-opacity:1;fill-rule:nonzero;stroke:none"
             id="path402" /><path
             d="m 67.37,71.879 h 7.581 V 67.498 H 67.37 Z"
             style="fill:#f89c0e;fill-opacity:1;fill-rule:nonzero;stroke:none"
             id="path404" /><path
             d="m 26.623,65.898 h 9.876 v -2.643 h -9.876 z"
             style="fill:#f89c0e;fill-opacity:1;fill-rule:nonzero;stroke:none"
             id="path406" /><path
             d="m 67.509,65.898 h 9.876 v -2.643 h -9.876 z"
             style="fill:#f89c0e;fill-opacity:1;fill-rule:nonzero;stroke:none"
             id="path408" /></g></g><g
         id="g410"><g
           id="g412"
           clip-path="url(#clipPath416)"><g
             id="g418"
             transform="translate(51.8835,77.2974)"><path
               d="m 0,0 c -13.35,0 -24.211,-10.861 -24.211,-24.211 0,-13.35 10.861,-24.211 24.211,-24.211 13.35,0 24.211,10.861 24.211,24.211 C 24.211,-10.861 13.35,0 0,0 m 0,-48.685 c -13.495,0 -24.473,10.979 -24.473,24.474 0,13.495 10.978,24.474 24.473,24.474 13.495,0 24.474,-10.979 24.474,-24.474 0,-13.495 -10.979,-24.474 -24.474,-24.474"
               style="fill:#231f20;fill-opacity:1;fill-rule:nonzero;stroke:none"
               id="path420" /></g><g
             id="g422"
             transform="translate(62.3358,40.8034)"><path
               d="M 0,0 C -0.019,0.144 0.021,0.347 -0.123,0.367 -0.03,0.834 -0.62,0.553 -0.489,0.245 -0.692,0.243 -0.558,-0.095 -0.734,-0.123 -1.309,-0.611 -2.779,-0.851 -2.204,-2.081 v -0.367 c -0.095,-0.027 -0.142,-0.103 -0.122,-0.246 h -0.122 c -0.311,-0.33 -0.472,-1.171 -0.193,-1.643 0.047,-0.078 0.106,-0.147 0.178,-0.201 0.488,-0.252 0.904,-0.044 1.321,0.095 -0.139,0.278 -0.07,0.347 0.169,0.585 0.003,0.093 -0.011,0.21 -0.006,0.307 0.182,0.186 0.197,0.538 0.245,0.857 v 0.368 h 0.122 c 0.181,0.104 0.263,0.308 0.245,0.612 -0.038,0.487 0.283,0.615 0.244,1.102 H 0 C 0.2,-0.667 0.2,0.055 0,0"
               style="fill:#110f0d;fill-opacity:1;fill-rule:evenodd;stroke:none"
               id="path424" /></g><g
             id="g426"
             transform="translate(59.6428,46.1904)"><path
               d="M 0,0 C 0.153,0.05 0.25,0.158 0.245,0.367 0.313,0.544 0.436,0.666 0.612,0.735 H 0.734 C 1.124,1.162 1.788,1.313 1.959,1.959 1.926,2.318 2.235,2.335 2.204,2.694 H 2.326 C 2.734,2.979 3.505,4.539 3.037,4.932 3.018,4.964 2.99,4.988 2.953,5.003 2.937,5.01 2.918,5.014 2.897,5.017 2.895,5.018 2.893,5.018 2.892,5.018 2.869,5.021 2.844,5.021 2.816,5.02 2.673,5.04 2.598,4.993 2.57,4.897 1.927,4.888 1.42,4.743 0.979,4.53 H 0.857 C 0.776,4.694 0.595,4.758 0.367,4.775 0.197,5.339 0.078,5.955 -0.49,6.122 -0.601,6.337 -0.764,6.501 -0.98,6.611 -1.391,6.567 -1.184,7.142 -1.347,7.346 c -1.142,1.388 -1.599,3.462 -2.693,4.897 0.283,-10e-4 0.654,-0.948 0.734,-0.367 v 0.123 c 0.326,0.255 -0.305,0.584 -0.245,0.979 -1.261,-0.166 -2.625,0.066 -3.982,0.476 h -10e-4 c -0.028,0.015 -0.057,0.028 -0.086,0.04 -0.005,0.003 -0.011,0.005 -0.016,0.007 -0.026,0.01 -0.052,0.02 -0.079,0.029 -0.008,0.003 -0.016,0.006 -0.024,0.008 -0.026,0.009 -0.053,0.016 -0.081,0.023 -0.008,0.002 -0.016,0.005 -0.025,0.007 -0.037,0.008 -0.074,0.015 -0.114,0.02 -0.123,0.04 -0.245,0.082 -0.367,0.125 -0.345,-0.455 -0.004,-0.873 -0.612,-1.103 -0.949,0.561 -2.062,0.958 -2.938,1.592 0.123,0.488 0.075,0.795 -0.123,1.225 h -0.245 -0.122 -0.245 c -1.286,-0.407 -3.028,0.007 -3.918,-0.98 -0.369,0.12 -0.729,0.25 -1.101,0.367 -0.05,-0.098 -0.112,-0.184 -0.18,-0.263 -0.029,-0.025 -0.056,-0.051 -0.084,-0.076 -0.021,-0.02 -0.041,-0.038 -0.061,-0.057 -0.038,-0.037 -0.075,-0.075 -0.111,-0.114 -0.522,-0.427 -1.196,-0.7 -1.161,-1.682 h -0.001 c -0.063,-0.097 -0.127,-0.191 -0.195,-0.283 l -0.001,-0.001 c -1.324,-1.001 -3.008,-2.6 -2.247,-4.502 0.003,-0.289 -0.211,-0.361 -0.123,-0.735 -0.154,-0.212 -0.413,-0.32 -0.367,-0.734 -0.034,-0.198 0.116,-0.211 0.122,-0.368 0.102,-0.346 -0.172,-0.317 -0.122,-0.612 0.388,-0.224 0.669,-0.556 0.98,-0.857 -0.058,-0.384 0.329,-0.324 0.367,-0.612 0.227,-0.793 0.838,-1.203 1.469,-1.592 h 0.368 V 2.204 c -0.021,-0.201 0.754,-0.201 0.734,0 v 0.122 h 0.368 c 0.193,0.011 0.466,-0.059 0.489,0.123 h 0.123 c 0.103,-0.115 0.631,-0.411 0.734,-0.123 v 0.123 c 0.375,-0.089 0.36,0.211 0.735,0.122 0.325,0.083 0.623,0.193 0.857,0.367 h 0.49 c 0.103,-0.264 0.536,-0.197 0.734,-0.367 V 2.204 c 0.504,-0.19 1.287,-0.101 1.469,-0.612 V 0.735 c -0.118,-0.003 -0.095,-0.15 -0.122,-0.245 -0.246,-0.137 -0.141,-0.947 0,-1.102 0.819,-0.691 1.23,-1.79 1.469,-3.061 -0.088,-0.375 0.212,-0.36 0.123,-0.734 -0.231,-0.3 -0.462,-0.599 -0.49,-1.103 -0.213,-0.195 -0.266,-0.551 -0.245,-0.979 0.067,-0.178 -0.143,-0.633 0.122,-0.612 -0.02,-0.143 0.028,-0.218 0.123,-0.245 0.119,-0.004 0.095,-0.15 0.122,-0.245 -0.006,-0.21 0.094,-0.313 0.245,-0.367 0.241,-0.208 0.328,-0.57 0.368,-0.98 0.116,-1.066 0.123,-2.243 0.856,-2.693 -0.02,-0.142 0.028,-0.218 0.123,-0.245 -0.075,-0.525 0.399,-0.499 0.368,-0.979 v -0.49 -0.122 c 0.442,-0.541 1.377,-0.228 2.118,-0.138 v 0 h 0.001 c 0.062,-0.002 0.135,0.008 0.207,0.017 0.086,0.005 0.168,0.005 0.245,-0.002 0.233,0.052 0.526,0.044 0.489,0.367 0.219,-0.015 0.258,0.15 0.49,0.123 0.256,0.152 0.46,0.356 0.612,0.612 v 0.122 c 0.246,0.204 0.569,0.329 0.612,0.735 0.231,0.013 0.085,0.405 0.368,0.367 0.168,0.103 0.213,0.252 0.222,0.418 0.007,0.167 -0.023,0.349 -0.007,0.515 0.379,0.848 1.767,0.64 1.837,1.612 h -0.07 c 0.07,0.138 0.208,0.277 -0.106,0.526 -0.048,0.061 -0.085,0.125 -0.114,0.192 -0.059,0.131 -0.084,0.272 -0.099,0.431 -0.236,1.002 1.013,0.932 1.394,1.723 0.09,0.145 0.15,0.31 0.192,0.482 0.084,0.343 0.101,0.712 0.056,1.08 0.005,0.076 0.003,0.146 -0.005,0.209 -0.024,0.191 -0.104,0.325 -0.24,0.403 h -0.122 c 0.05,0.295 -0.223,0.266 -0.123,0.612 -0.066,0.178 0.143,0.633 -0.122,0.612 v 0.367 c 0.195,0.663 0.559,1.155 0.979,1.593 v 0.122 C -0.354,-0.136 0.037,-0.282 0,0"
               style="fill:#231f20;fill-opacity:1;fill-rule:evenodd;stroke:none"
               id="path428" /></g></g></g><g
         id="g430"><g
           id="g432"
           clip-path="url(#clipPath436)"><path
             d="M 80.501,54.979 H 25.732 v 1.301 h 54.769 z"
             style="fill:#f89c0e;fill-opacity:1;fill-rule:nonzero;stroke:none"
             id="path438" /><path
             d="M 80.501,58.74 H 25.732 v 1.301 h 54.769 z"
             style="fill:#f89c0e;fill-opacity:1;fill-rule:nonzero;stroke:none"
             id="path440" /><path
             d="M 80.501,51.218 H 25.732 v 1.301 h 54.769 z"
             style="fill:#f89c0e;fill-opacity:1;fill-rule:nonzero;stroke:none"
             id="path442" /><path
             d="M 80.501,47.457 H 25.732 v 1.301 h 54.769 z"
             style="fill:#f89c0e;fill-opacity:1;fill-rule:nonzero;stroke:none"
             id="path444" /><path
             d="M 80.501,43.696 H 25.732 v 1.301 h 54.769 z"
             style="fill:#f89c0e;fill-opacity:1;fill-rule:nonzero;stroke:none"
             id="path446" /><path
             d="M 80.501,39.935 H 25.732 v 1.301 h 54.769 z"
             style="fill:#1e5f2e;fill-opacity:1;fill-rule:nonzero;stroke:none"
             id="path448" /><path
             d="M 80.501,36.174 H 25.732 v 1.301 h 54.769 z"
             style="fill:#1e5f2e;fill-opacity:1;fill-rule:nonzero;stroke:none"
             id="path450" /><path
             d="M 80.501,32.413 H 25.732 v 1.301 h 54.769 z"
             style="fill:#1e5f2e;fill-opacity:1;fill-rule:nonzero;stroke:none"
             id="path452" /></g></g><g
         id="g454"><g
           id="g456"
           clip-path="url(#clipPath460)"><g
             id="g462"
             transform="translate(64.3644,52.8219)"><path
               d="m 0,0 c 0,-4.063 -3.294,-7.356 -7.356,-7.356 -4.063,0 -7.357,3.293 -7.357,7.356 0,4.063 3.294,7.356 7.357,7.356 C -3.294,7.356 0,4.063 0,0"
               style="fill:#ffffff;fill-opacity:1;fill-rule:nonzero;stroke:none"
               id="path464" /></g><g
             id="g466"
             transform="translate(57.0081,60.0469)"><path
               d="m 0,0 c -3.984,0 -7.225,-3.241 -7.225,-7.225 0,-3.984 3.241,-7.225 7.225,-7.225 3.984,0 7.225,3.241 7.225,7.225 C 7.225,-3.241 3.984,0 0,0 m 0,-14.713 c -4.129,0 -7.488,3.359 -7.488,7.488 0,4.129 3.359,7.488 7.488,7.488 4.129,0 7.488,-3.359 7.488,-7.488 0,-4.129 -3.359,-7.488 -7.488,-7.488"
               style="fill:#231f20;fill-opacity:1;fill-rule:nonzero;stroke:none"
               id="path468" /></g><path
             d="m 42.084,62.671 h -1.603 v 9.984 h 1.603 z"
             style="fill:#1d6434;fill-opacity:1;fill-rule:nonzero;stroke:none"
             id="path470" /><g
             id="g472"
             transform="translate(54.4825,67.8731)"><path
               d="m 0,0 v 3.296 c 0,1.048 -0.12,1.746 -0.689,1.746 h -0.54 c -0.535,0 -0.677,-0.698 -0.677,-1.746 L -1.906,0 Z M 1.603,-5.202 H 0.001 v 3.599 h -1.907 v -3.599 h -1.603 v 1.79 7.958 c 0,1.071 0.877,1.947 1.948,1.947 h 1.233 c 1.072,0 1.931,-0.876 1.931,-1.947 z"
               style="fill:#1d6434;fill-opacity:1;fill-rule:nonzero;stroke:none"
               id="path474" /></g><g
             id="g476"
             transform="translate(60.0508,64.2722)"><path
               d="M 0,0 H 0.424 C 1.087,0 1.63,0.651 1.63,1.446 v 3.891 c 0,0.796 -0.543,1.446 -1.206,1.446 H 0 -0.415 V 0 Z m -2.019,-1.601 v 9.987 h 1.686 1.797 c 0.975,0 1.772,-0.797 1.772,-1.771 V 0.168 c 0,-0.974 -0.797,-1.769 -1.772,-1.769 h -1.797 z"
               style="fill:#1d6434;fill-opacity:1;fill-rule:nonzero;stroke:none"
               id="path478" /></g><g
             id="g480"
             transform="translate(49.0273,68.8347)"><path
               d="m 0,0 v -4.254 c 0,-1.05 -0.728,-1.909 -1.778,-1.909 h -1.309 c -1.05,0 -1.91,0.859 -1.91,1.909 v 7.578 c 0,1.051 0.86,1.91 1.91,1.91 h 2.829 V 3.649 h -2.507 c 0,0 -0.629,0.063 -0.629,-0.898 v -6.486 c 0,0 -0.023,-0.825 0.961,-0.825 0.985,0 0.846,0.845 0.846,0.845 v 2.118 H -2.433 V 0 Z"
               style="fill:#1d6434;fill-opacity:1;fill-rule:nonzero;stroke:none"
               id="path482" /></g><g
             id="g484"
             transform="translate(94.627,52.9981)"><path
               d="m 0,0 c 0,-23.41 -18.955,-42.388 -42.337,-42.388 -23.382,0 -42.337,18.978 -42.337,42.388 0,23.41 18.955,42.388 42.337,42.388 C -18.955,42.388 0,23.41 0,0 Z"
               style="fill:none;stroke:#231f20;stroke-width:0.26300001;stroke-linecap:butt;stroke-linejoin:miter;stroke-miterlimit:10;stroke-dasharray:none;stroke-opacity:1"
               id="path486" /></g><g
             id="g488"
             transform="translate(52.3417,95.255)"><path
               d="m 0,0 c -23.3,0 -42.257,-18.956 -42.257,-42.257 0,-23.3 18.957,-42.257 42.257,-42.257 23.3,0 42.257,18.957 42.257,42.257 C 42.257,-18.956 23.3,0 0,0 m 0,-84.777 c -23.445,0 -42.52,19.075 -42.52,42.52 0,23.446 19.075,42.52 42.52,42.52 23.445,0 42.52,-19.074 42.52,-42.52 0,-23.445 -19.075,-42.52 -42.52,-42.52"
               style="fill:#231f20;fill-opacity:1;fill-rule:nonzero;stroke:none"
               id="path490" /></g><g
             id="g492"
             transform="translate(52.3417,87.8077)"><path
               d="m 0,0 c -19.194,0 -34.81,-15.616 -34.81,-34.81 0,-19.194 15.616,-34.809 34.81,-34.809 19.194,0 34.81,15.615 34.81,34.809 C 34.81,-15.616 19.194,0 0,0 m 0,-69.882 c -19.339,0 -35.072,15.733 -35.072,35.072 0,19.339 15.733,35.073 35.072,35.073 19.339,0 35.073,-15.734 35.073,-35.073 0,-19.339 -15.734,-35.072 -35.073,-35.072"
               style="fill:#231f20;fill-opacity:1;fill-rule:nonzero;stroke:none"
               id="path494" /></g><g
             id="g496"
             transform="translate(13.9031,57.7878)"><path
               d="m 0,0 0.344,-1.307 1.35,-0.069 -1.137,-0.731 0.351,-1.305 -1.046,0.855 -1.133,-0.737 0.49,1.259 -1.051,0.85 1.349,-0.077 z"
               style="fill:#1e5f2e;fill-opacity:1;fill-rule:nonzero;stroke:none"
               id="path498" /></g><g
             id="g500"
             transform="translate(90.9506,57.7878)"><path
               d="m 0,0 -0.344,-1.307 -1.35,-0.069 1.137,-0.731 -0.351,-1.305 1.046,0.855 1.133,-0.737 -0.49,1.259 1.051,0.85 -1.349,-0.077 z"
               style="fill:#1e5f2e;fill-opacity:1;fill-rule:nonzero;stroke:none"
               id="path502" /></g><g
             id="g504"
             transform="translate(58.7104,46.2604)"><path
               d="M 0,0 0.106,0.218 0.228,0.543 0.458,0.832 0.651,0.994 0.898,1.23 1.037,1.501 1.267,1.773 1.478,2.007 1.636,2.17 2.023,2.478 2.322,2.749 2.534,2.893 2.762,3.021 2.921,3.147 3.097,3.328 3.255,3.491 3.342,3.599 3.605,3.871 3.958,4.431 4.256,5.009 4.503,5.481 4.661,5.661 4.75,5.968 4.942,6.276 4.978,6.511 5.048,6.746 5.065,6.963 5.083,7.181 5.135,7.288 5.032,7.324 4.942,7.378 4.907,7.308 4.818,7.199 4.642,7.144 4.379,7.108 4.186,7.035 3.974,7.017 3.852,6.945 H 3.746 L 3.605,6.963 H 3.466 L 3.29,6.836 3.097,6.783 2.99,6.764 2.849,6.783 2.762,6.8 2.637,6.783 2.515,6.692 2.355,6.62 2.235,6.602 2.111,6.638 2.005,6.728 1.899,6.836 1.793,6.945 1.671,7.09 1.567,7.144 1.478,7.162 1.389,7.126 1.337,7.108 1.267,7.181 1.373,7.235 1.424,7.308 1.567,7.361 1.654,7.397 1.671,7.487 1.584,7.668 1.478,7.741 1.356,7.85 1.267,7.922 1.196,8.031 1.109,8.139 1.02,8.229 0.863,8.284 0.846,8.356 0.74,8.519 0.616,8.573 0.529,8.608 0.386,8.663 0.317,8.699 0.211,8.754 0.07,8.735 0.017,8.88 -0.07,9.025 -0.141,9.187 -0.16,9.368 l -0.016,0.127 -0.052,0.162 -0.195,0.362 -0.122,0.126 -0.106,0.146 -0.158,0.09 h -0.122 l -0.071,0.108 -0.018,0.2 -0.053,0.289 v 0.272 l -0.036,0.271 -0.051,0.216 -0.071,0.163 -0.175,0.127 -0.106,0.144 -0.071,0.037 -0.122,0.108 -0.107,0.018 -0.087,-0.054 h -0.07 l -0.089,-0.091 -0.07,-0.126 -0.105,-0.091 -0.124,-0.036 -0.017,-0.09 -0.07,-0.09 -0.106,0.035 -0.159,0.018 -0.104,0.074 -0.158,-0.019 -0.23,0.019 -0.176,0.017 -0.21,-0.017 -0.23,-0.019 -0.175,-0.018 h -0.351 -0.282 -0.228 -0.283 -0.192 l -0.423,0.018 -0.212,0.019 -0.122,-0.019 -0.228,-0.055 -0.071,-0.053 v -0.271 l 0.036,-0.272 -0.019,-0.144 -0.087,-0.055 -0.228,-0.018 -0.072,-0.018 -0.017,-0.199 V 10.508 L -6.754,10.236 -6.788,9.965 V 9.73 L -6.754,9.405 V 9.241 L -6.771,9.08 -6.84,9.043 H -6.983 -7.158 L -7.211,8.917 -7.298,8.735 -7.404,8.699 -7.456,8.537 -7.51,8.392 -7.544,8.193 -7.615,8.066 V 7.922 L -7.72,7.76 l 0.016,-0.128 0.16,0.072 0.069,-0.09 -0.018,-0.236 c 0,0 0.037,-0.108 0.089,-0.143 0.053,-0.036 0.122,-0.128 0.122,-0.128 L -7.263,6.999 -7.247,6.819 -7.088,6.674 -7,6.456 -6.983,6.222 -7.017,6.041 l 0.07,-0.11 0.176,-0.017 0.089,-0.127 0.017,-0.09 0.14,-0.054 0.124,-0.037 0.053,-0.09 0.07,-0.181 L -6.155,5.173 -5.979,5.154 -5.856,5.101 -5.891,4.992 -5.786,4.973 -5.751,4.81 -5.681,4.757 -5.663,4.63 -5.522,4.576 -5.328,4.521 V 4.394 4.268 l 0.157,-0.145 0.178,-0.18 0.193,-0.037 0.193,0.055 0.14,-0.037 0.105,0.128 0.087,-0.055 0.054,-0.108 0.16,-0.145 0.07,-0.091 L -3.887,3.545 -3.746,3.473 -3.782,3.274 -3.817,3.056 -3.711,2.858 -3.817,2.622 -4.01,2.531 -4.097,2.405 -4.203,2.134 -4.29,1.972 V 1.7 l -0.089,-0.253 0.193,-0.127 0.106,0.109 0.141,0.036 0.122,0.018 h 0.247 l 0.352,0.036 0.352,0.018 h 0.335 L -2.39,1.483 -2.251,1.429 -2.005,1.266 -1.564,1.031 -1.283,0.886 c 0,0 0.174,-0.144 0.229,-0.144 0.052,0 0.229,-0.199 0.229,-0.199 l 0.035,-0.126 0.033,-0.128 0.177,-0.127 0.124,-0.054 0.176,-0.181 0.139,0.019 z"
               style="fill:#f89c0e;fill-opacity:1;fill-rule:nonzero;stroke:none"
               id="path506" /></g><g
             id="g508"
             transform="translate(51.8996,22.6453)"><path
               d="m 0,0 c 0,0 0.4,0.008 1.23,-0.04 0.873,-0.05 1.471,-0.227 2.238,-0.41 1.007,-0.239 1.703,-1.56 1.703,-1.56 l 1.752,0.175 c 0,0 -0.088,0.744 -0.263,1.007 -0.175,0.263 -0.788,0.657 -0.788,0.657 0,0 1.357,0.219 2.101,0.263 0.745,0.043 2.496,0.35 3.591,0.744 1.095,0.394 3.547,1.576 3.547,1.576 l 1.138,0.526 c 0,0 -0.537,0.06 -0.853,0.152 -0.294,0.086 -0.504,0.548 -0.504,0.548 0,0 1.27,-0.35 2.321,0 1.051,0.351 2.058,1.445 2.495,1.883 0.438,0.438 2.496,2.015 2.496,2.015 l -1.97,-0.132 0.088,0.876 c 0,0 0.569,0.044 1.357,0.219 0.788,0.175 1.751,0.482 3.196,1.751 1.445,1.27 2.365,2.978 2.365,2.978 l -2.255,0.066 0.547,0.81 c 0,0 0.657,0.131 1.796,0.788 1.138,0.657 1.751,2.145 2.145,2.977 0.394,0.832 1.051,3.328 1.051,3.328 0,0 -0.438,-0.481 -0.963,-0.832 -0.526,-0.35 -0.876,-0.175 -0.876,-0.175 l 0.263,1.358 c 0,0 0.35,0.131 0.832,0.262 0.481,0.132 1.269,1.007 1.664,1.62 0.394,0.613 0.613,2.934 0.569,3.372 -0.044,0.438 0.394,2.058 0.394,2.058 0,0 -0.438,-0.263 -0.876,-0.744 -0.438,-0.482 -1.051,-0.745 -1.051,-0.745 v 0.92 c 0,0 0.482,0.306 0.788,0.613 0.307,0.306 0.789,1.226 0.789,1.226 l 0.043,6.261 c 0,0 -0.394,-0.481 -0.7,-0.744 -0.307,-0.263 -1.27,-1.532 -1.27,-1.532 l -0.131,0.963 c 0,0 0.788,1.138 1.007,2.058 0.219,0.919 -0.219,2.277 -0.394,3.328 -0.176,1.051 -0.132,2.145 -0.132,2.145 0,0 -0.23,-0.438 -0.766,-1.04 -0.525,-0.589 -1.139,-0.646 -1.139,-0.646 0,0 -0.145,2.282 -0.689,3.23 -0.887,1.543 -3.514,2.682 -3.514,2.682 0,0 -0.075,-2.786 0.832,-4.094 0.569,-0.821 1.74,-1.971 1.74,-1.971 0,0 -0.602,-0.175 -1.193,0.153 -0.591,0.329 -0.952,0.789 -0.952,0.789 0,0 0.361,-2.299 1.215,-4.073 0.854,-1.773 2.299,-2.693 2.299,-2.693 l 0.033,-0.985 c 0,0 -0.438,0.175 -0.964,0.548 -0.479,0.339 -0.711,0.832 -0.711,0.832 v -4.959 c 0,0 0.281,-0.853 0.744,-1.215 0.504,-0.395 0.963,-0.821 0.963,-0.821 l 0.066,-1.084 c 0,0 -0.46,0.394 -0.919,0.854 -0.46,0.459 -0.789,0.919 -0.789,0.919 0,0 -0.098,-2.791 -0.459,-4.893 -0.268,-1.559 0.919,-2.069 0.919,-2.069 l -0.46,-1.675 c 0,0 -0.328,1.018 -0.788,1.609 -0.46,0.591 -0.525,0.92 -0.525,0.92 0,0 -0.066,-2.43 -0.854,-3.481 -0.788,-1.051 -1.15,-2.036 -1.15,-2.759 0,-0.722 0.756,-1.642 0.756,-1.642 l -0.526,-0.854 c 0,0 -0.427,0.569 -0.525,1.051 -0.093,0.455 -0.197,0.985 -0.197,0.985 0,0 -1.182,-1.839 -2.102,-2.955 -0.919,-1.117 -1.182,-1.774 -1.182,-2.299 0,-0.526 -0.526,-1.905 -0.526,-1.905 l -0.788,-0.197 0.066,2.496 c 0,0 -3.021,-2.759 -3.481,-3.415 -0.46,-0.657 -1.018,-1.668 -1.117,-2.299 -0.035,-0.228 0.118,-1.047 0.118,-1.047 0,0 -3.301,-1.551 -5.511,-2.058 C 5.974,1.989 2.434,2.073 1.712,2.007 0.989,1.942 0.012,1.958 0.012,1.958 l 0.009,0.003 c 0,0 -0.977,-0.016 -1.7,0.049 -0.722,0.066 -4.262,-0.018 -6.692,0.541 -2.21,0.507 -5.51,2.058 -5.51,2.058 0,0 0.153,0.819 0.117,1.047 -0.098,0.631 -0.657,1.642 -1.117,2.298 -0.459,0.657 -3.481,3.416 -3.481,3.416 l 0.066,-2.496 -0.788,0.197 c 0,0 -0.526,1.379 -0.526,1.905 0,0.525 -0.262,1.182 -1.182,2.299 -0.919,1.116 -2.102,2.955 -2.102,2.955 0,0 -0.104,-0.53 -0.197,-0.985 -0.098,-0.482 -0.525,-1.051 -0.525,-1.051 l -0.526,0.854 c 0,0 0.756,0.92 0.756,1.642 0,0.723 -0.362,1.708 -1.15,2.759 -0.788,1.051 -0.854,3.481 -0.854,3.481 0,0 -0.065,-0.329 -0.525,-0.92 -0.46,-0.591 -0.788,-1.609 -0.788,-1.609 l -0.46,1.675 c 0,0 1.188,0.51 0.92,2.069 -0.362,2.102 -0.46,4.893 -0.46,4.893 0,0 -0.329,-0.46 -0.788,-0.919 -0.46,-0.46 -0.92,-0.854 -0.92,-0.854 l 0.066,1.083 c 0,0 0.46,0.427 0.963,0.821 0.463,0.363 0.745,1.216 0.745,1.216 v 4.959 c 0,0 -0.233,-0.493 -0.712,-0.832 -0.525,-0.373 -0.963,-0.548 -0.963,-0.548 l 0.032,0.985 c 0,0 1.445,0.92 2.299,2.693 0.854,1.774 1.215,4.073 1.215,4.073 0,0 -0.361,-0.46 -0.952,-0.789 -0.591,-0.328 -1.193,-0.153 -1.193,-0.153 0,0 1.171,1.15 1.74,1.971 0.907,1.308 0.832,4.094 0.832,4.094 0,0 -2.627,-1.139 -3.514,-2.682 -0.544,-0.948 -0.689,-3.23 -0.689,-3.23 0,0 -0.614,0.057 -1.139,0.646 -0.536,0.602 -0.766,1.04 -0.766,1.04 0,0 0.044,-1.094 -0.131,-2.145 -0.176,-1.051 -0.613,-2.409 -0.394,-3.328 0.218,-0.92 1.007,-2.058 1.007,-2.058 l -0.132,-0.964 c 0,0 -0.963,1.27 -1.27,1.533 -0.306,0.263 -0.7,0.744 -0.7,0.744 l 0.044,-6.261 c 0,0 0.481,-0.92 0.788,-1.226 0.306,-0.307 0.788,-0.613 0.788,-0.613 v -0.92 c 0,0 -0.613,0.263 -1.051,0.745 -0.438,0.481 -0.876,0.744 -0.876,0.744 0,0 0.438,-1.62 0.394,-2.058 -0.043,-0.438 0.176,-2.759 0.57,-3.372 0.394,-0.613 1.182,-1.488 1.664,-1.62 0.481,-0.131 0.832,-0.263 0.832,-0.263 l 0.262,-1.357 c 0,0 -0.35,-0.175 -0.875,0.175 -0.526,0.351 -0.964,0.832 -0.964,0.832 0,0 0.657,-2.496 1.051,-3.328 0.394,-0.832 1.007,-2.32 2.146,-2.977 1.138,-0.657 1.795,-0.788 1.795,-0.788 l 0.547,-0.81 -2.255,-0.066 c 0,0 0.92,-1.708 2.365,-2.978 1.445,-1.27 2.408,-1.576 3.196,-1.751 0.788,-0.175 1.358,-0.219 1.358,-0.219 l 0.087,-0.876 -1.97,0.131 c 0,0 2.058,-1.576 2.496,-2.014 0.438,-0.438 1.445,-1.532 2.496,-1.883 1.051,-0.35 2.32,0 2.32,0 0,0 -0.209,-0.462 -0.504,-0.548 -0.316,-0.092 -0.853,-0.152 -0.853,-0.152 l 1.138,-0.526 c 0,0 2.453,-1.182 3.547,-1.576 1.095,-0.394 2.846,-0.701 3.591,-0.744 0.744,-0.044 2.102,-0.263 2.102,-0.263 0,0 -0.613,-0.394 -0.789,-0.657 -0.175,-0.263 -0.262,-1.007 -0.262,-1.007 l 1.751,-0.175 c 0,0 0.696,1.321 1.703,1.56 0.768,0.183 1.365,0.36 2.238,0.41 0.831,0.048 1.23,0.04 1.23,0.04"
               style="fill:#1d6434;fill-opacity:1;fill-rule:nonzero;stroke:none"
               id="path510" /></g></g></g></g></g></svg>