<?xml version="1.0" encoding="iso-8859-1"?>
<!-- Generator: Adobe Illustrator 19.0.0, SVG Export Plug-In . SVG Version: 6.00 Build 0)  -->
<svg version="1.1" id="Layer_1" xmlns="http://www.w3.org/2000/svg" xmlns:xlink="http://www.w3.org/1999/xlink" x="0px" y="0px"
	 viewBox="0 0 318.188 318.188" style="enable-background:new 0 0 318.188 318.188;" xml:space="preserve">
<g>
	<g>
		<g>
			<polygon points="192.675,252.131 192.675,244.19 163.5,244.19 163.5,254.003 178.005,254.003 162.614,274.054 162.614,281.372 
				193.396,281.372 193.396,271.559 177.939,271.559 			"/>
			<polygon points="124.184,244.189 124.185,244.189 144.958,244.189 128.483,281.371 141.906,281.371 158.807,241.103 
				158.807,233.457 124.184,233.457 			"/>
			<rect x="119.911" y="136.748" width="25.615" height="15"/>
			<path d="M283.149,52.723L232.625,2.197C231.218,0.79,229.311,0,227.321,0H40.342c-4.143,0-7.5,3.358-7.5,7.5v303.188
				c0,4.142,3.357,7.5,7.5,7.5h237.504c4.143,0,7.5-3.358,7.5-7.5V58.025C285.346,56.036,284.556,54.129,283.149,52.723z
				 M234.821,25.606l24.918,24.919h-24.918V25.606z M47.842,15h171.98v10.263H47.842V15z M270.346,303.188H47.842V40.263h171.98
				v17.763c0,4.143,3.357,7.5,7.5,7.5h43.024V303.188z"/>
			<path d="M212.501,113.691c4.068-0.78,6.733-4.71,5.954-8.778c-0.78-4.068-4.723-6.731-8.778-5.954l-1.52,0.291v-3.396h2.932
				c4.143,0,7.5-3.357,7.5-7.5s-3.357-7.5-7.5-7.5h-17.593l-19.597-8.982c-0.98-0.45-2.046-0.683-3.125-0.683h-49.328
				c-1.989,0-3.897,0.79-5.304,2.197l-9.723,9.724h-9.228c-4.143,0-7.5,3.357-7.5,7.5v72.171c0,4.143,3.357,7.5,7.5,7.5h9.227
				l9.724,9.725c1.406,1.407,3.314,2.197,5.304,2.197h49.328c1.079,0,2.145-0.232,3.125-0.683l19.258-8.827v4.35h-2.931v15h20.862
				v-15h-2.932v-4.505h2.932c4.143,0,7.5-3.357,7.5-7.5s-3.357-7.5-7.5-7.5h-2.932v-5.495l4.344-0.833
				c4.068-0.78,6.733-4.71,5.954-8.778c-0.78-4.068-4.723-6.73-8.778-5.954l-1.52,0.291v-3.485l4.344-0.833
				c4.068-0.78,6.733-4.71,5.954-8.778c-0.78-4.068-4.723-6.727-8.778-5.954l-1.52,0.291v-3.484L212.501,113.691z M160.745,155.281
				h-56.053v-21.085h56.053V155.281z M160.745,119.196h-56.053V98.11h56.053V119.196z M193.157,102.127l-4.343,0.832
				c-4.068,0.78-6.733,4.71-5.954,8.778c0.689,3.591,3.832,6.089,7.357,6.089c0.469,0,0.944-0.044,1.421-0.135l1.519-0.291v3.484
				l-4.343,0.833c-4.068,0.78-6.733,4.71-5.954,8.778c0.689,3.591,3.832,6.089,7.357,6.089c0.469,0,0.944-0.044,1.421-0.135
				l1.519-0.291v3.485l-4.343,0.833c-4.068,0.78-6.733,4.71-5.954,8.778c0.689,3.591,3.832,6.089,7.357,6.089
				c0.469,0,0.944-0.044,1.421-0.135l1.519-0.291v2.619h-1.298c-1.079,0-2.145,0.232-3.125,0.683l-13.134,6.02
				c0.094-0.472,0.145-0.959,0.145-1.459V90.61c0-0.499-0.051-0.986-0.145-1.458l13.134,6.02c0.98,0.45,2.046,0.683,3.125,0.683
				h1.298V102.127z"/>
			<rect x="119.911" y="100.599" width="25.615" height="15"/>
		</g>
	</g>
</g>
<g>
</g>
<g>
</g>
<g>
</g>
<g>
</g>
<g>
</g>
<g>
</g>
<g>
</g>
<g>
</g>
<g>
</g>
<g>
</g>
<g>
</g>
<g>
</g>
<g>
</g>
<g>
</g>
<g>
</g>
</svg>
