<?xml version="1.0" encoding="iso-8859-1"?>
<!-- Generator: Adobe Illustrator 19.0.0, SVG Export Plug-In . SVG Version: 6.00 Build 0)  -->
<svg version="1.1" id="Layer_1" xmlns="http://www.w3.org/2000/svg" xmlns:xlink="http://www.w3.org/1999/xlink" x="0px" y="0px"
	 viewBox="0 0 318.188 318.188" style="enable-background:new 0 0 318.188 318.188;" xml:space="preserve">
<g>
	<g>
		<g>
			<path d="M109.925,233.195l-15.653,48.176h14.243l2.428-8.992h15.589l2.362,8.992h14.178l-15.852-48.176H109.925z
				 M113.634,261.746c1.99-7.526,3.276-12.569,3.856-15.129c0.58-2.56,0.969-4.397,1.166-5.513c0.219,1.204,0.672,3.194,1.361,5.973
				c0.689,2.779,1.274,5.043,1.756,6.793l2.068,7.876H113.634z"/>
			<path d="M180.091,117.631c-5.889,6.434-8.833,15.539-8.833,27.315c0,11.441,3.185,20.285,9.556,26.529
				c6.37,6.246,15.213,9.367,26.529,9.367c5.49,0,10.143-0.409,13.956-1.226c3.813-0.817,7.397-2.063,10.751-3.74V161.04
				c-4.108,1.928-8.047,3.332-11.819,4.212c-3.773,0.88-7.774,1.32-12.007,1.32c-5.449,0-9.682-1.529-12.699-4.589
				c-3.018-3.059-4.632-7.313-4.842-12.762h45.327v-9.304c0-9.974-2.767-17.791-8.298-23.449
				c-5.533-5.658-13.266-8.487-23.198-8.487C194.119,107.981,185.978,111.198,180.091,117.631z M214.321,125.489
				c2.389,2.578,3.624,6.234,3.709,10.97h-26.906c0.334-4.736,1.654-8.393,3.96-10.97c2.304-2.578,5.489-3.866,9.556-3.866
				C208.704,121.623,211.933,122.912,214.321,125.489z"/>
			<path d="M132.909,87.298h-23.826l-32.438,92.287h20.997l6.664-21.877h33.508l6.664,21.877h20.996L132.909,87.298z
				 M109.209,141.363c6.538-21.164,10.499-34.429,11.882-39.794c0.335,1.509,0.89,3.563,1.666,6.161
				c0.775,2.599,4.243,13.81,10.404,33.633H109.209z"/>
			<path d="M215.401,237.363c-3.042-2.647-7.593-3.971-13.652-3.971h-16.605v47.979h12.963v-15.917h3.643
				c5.819,0,10.309-1.46,13.472-4.381c3.161-2.92,4.742-7.061,4.742-12.421C219.963,243.773,218.441,240.01,215.401,237.363z
				 M205.112,253.247c-1.148,1.094-2.696,1.641-4.644,1.641h-2.362v-11.026h3.347c3.588,0,5.383,1.619,5.383,4.857
				C206.836,250.643,206.262,252.153,205.112,253.247z"/>
			<path d="M283.149,52.722L232.625,2.197C231.218,0.79,229.311,0,227.321,0H40.342c-4.143,0-7.5,3.358-7.5,7.5v303.188
				c0,4.142,3.357,7.5,7.5,7.5h237.504c4.143,0,7.5-3.358,7.5-7.5V58.025C285.346,56.036,284.556,54.129,283.149,52.722z
				 M234.821,25.607l24.918,24.919h-24.918V25.607z M47.842,15h171.98v10.263H47.842V15z M270.346,303.188H47.842V40.263h171.98
				v17.763c0,4.142,3.357,7.5,7.5,7.5h43.024V303.188z"/>
			<polygon points="148.257,281.371 176.742,281.371 176.742,270.804 161.22,270.804 161.22,261.746 175.594,261.746 
				175.594,251.343 161.22,251.343 161.22,243.795 176.742,243.795 176.742,233.392 148.257,233.392 			"/>
		</g>
	</g>
</g>
<g>
</g>
<g>
</g>
<g>
</g>
<g>
</g>
<g>
</g>
<g>
</g>
<g>
</g>
<g>
</g>
<g>
</g>
<g>
</g>
<g>
</g>
<g>
</g>
<g>
</g>
<g>
</g>
<g>
</g>
</svg>
