<?xml version="1.0" encoding="iso-8859-1"?>
<!-- Generator: Adobe Illustrator 19.0.0, SVG Export Plug-In . SVG Version: 6.00 Build 0)  -->
<svg version="1.1" id="Layer_1" xmlns="http://www.w3.org/2000/svg" xmlns:xlink="http://www.w3.org/1999/xlink" x="0px" y="0px"
	 viewBox="0 0 318.188 318.188" style="enable-background:new 0 0 318.188 318.188;" xml:space="preserve">
<g>
	<g>
		<g>
			<path d="M156.201,157.708l6.664,21.877h20.997l-32.564-92.287h-23.826l-32.439,92.287h20.997l6.664-21.877H156.201z
				 M139.479,101.569c0.335,1.509,0.89,3.563,1.666,6.161c0.775,2.599,4.243,13.81,10.404,33.633h-23.952
				C134.135,120.199,138.096,106.934,139.479,101.569z"/>
			<path d="M203.54,81.766c-6.957,0-10.436,3.123-10.436,9.367c0,6.287,3.479,9.43,10.436,9.43c3.478,0,6.087-0.827,7.827-2.483
				c1.739-1.655,2.609-3.97,2.609-6.946C213.975,84.889,210.496,81.766,203.54,81.766z"/>
			<rect x="193.921" y="109.301" width="19.174" height="70.284"/>
			<path d="M137.902,233.195l-15.654,48.176h14.243l2.429-8.992h15.589l2.361,8.992h14.178l-15.85-48.176H137.902z M141.611,261.746
				c1.991-7.526,3.276-12.569,3.856-15.129c0.58-2.56,0.968-4.397,1.165-5.513c0.219,1.204,0.674,3.194,1.361,5.973
				c0.689,2.779,1.275,5.043,1.756,6.793l2.068,7.876H141.611z"/>
			<path d="M283.149,52.722L232.624,2.197C231.218,0.79,229.311,0,227.321,0H40.342c-4.142,0-7.5,3.358-7.5,7.5v303.188
				c0,4.142,3.358,7.5,7.5,7.5h237.504c4.142,0,7.5-3.358,7.5-7.5V58.025C285.346,56.036,284.556,54.129,283.149,52.722z
				 M234.821,25.607l24.918,24.919h-24.918V25.607z M47.842,15h171.98v10.263H47.842V15z M270.346,303.188H47.842V40.263h171.98
				v17.763c0,4.142,3.358,7.5,7.5,7.5h43.024V303.188z"/>
			<rect x="176.233" y="233.392" width="13.028" height="47.979"/>
		</g>
	</g>
</g>
<g>
</g>
<g>
</g>
<g>
</g>
<g>
</g>
<g>
</g>
<g>
</g>
<g>
</g>
<g>
</g>
<g>
</g>
<g>
</g>
<g>
</g>
<g>
</g>
<g>
</g>
<g>
</g>
<g>
</g>
</svg>
