<?xml version="1.0" encoding="iso-8859-1"?>
<!-- Generator: Adobe Illustrator 19.0.0, SVG Export Plug-In . SVG Version: 6.00 Build 0)  -->
<svg version="1.1" id="Layer_1" xmlns="http://www.w3.org/2000/svg" xmlns:xlink="http://www.w3.org/1999/xlink" x="0px" y="0px"
	 viewBox="0 0 318.188 318.188" style="enable-background:new 0 0 318.188 318.188;" xml:space="preserve">
<g>
	<g>
		<g>
			<path d="M114.585,233.195l-15.654,48.176h14.243l2.429-8.992h15.588l2.363,8.992h14.177l-15.851-48.176H114.585z
				 M118.294,261.746c1.991-7.525,3.276-12.568,3.856-15.129c0.58-2.559,0.968-4.397,1.165-5.514
				c0.219,1.204,0.673,3.195,1.362,5.973c0.689,2.779,1.274,5.043,1.755,6.794l2.068,7.876H118.294z"/>
			<rect x="199.551" y="233.392" width="13.028" height="47.979"/>
			<path d="M157.628,60.242c-38.268,0-69.401,31.133-69.401,69.4c0,38.268,31.133,69.401,69.401,69.401s69.4-31.134,69.4-69.401
				C227.028,91.375,195.896,60.242,157.628,60.242z M157.628,184.044c-29.997,0-54.401-24.404-54.401-54.401
				c0-29.996,24.404-54.4,54.401-54.4c29.996,0,54.4,24.404,54.4,54.4C212.028,159.64,187.624,184.044,157.628,184.044z"/>
			<path d="M173.198,257.841c-0.351,1.313-0.755,3.118-1.215,5.415c-0.459,2.297-0.766,4.212-0.919,5.743
				c-0.131-2.122-0.875-5.886-2.231-11.29l-6.53-24.317h-14.571l15.654,47.979h15.26l15.72-47.979H179.86L173.198,257.841z"/>
			<path d="M283.149,52.723L232.625,2.197C231.218,0.79,229.311,0,227.321,0H40.342c-4.142,0-7.5,3.358-7.5,7.5v303.188
				c0,4.142,3.358,7.5,7.5,7.5h237.504c4.143,0,7.5-3.358,7.5-7.5V58.025C285.346,56.036,284.556,54.129,283.149,52.723z
				 M234.821,25.606l24.918,24.919h-24.918V25.606z M47.842,15h171.98v10.263H47.842V15z M270.346,303.188H47.842V40.263h171.98
				v17.763c0,4.143,3.357,7.5,7.5,7.5h43.024V303.188z"/>
			<path d="M187.851,116.707l-34.87-22.563c-2.953-1.909-5.96-2.878-8.939-2.878c-6.209,0-12.892,4.618-12.892,14.758v47.238
				c0,10.14,6.682,14.758,12.89,14.758c2.98,0,5.989-0.97,8.942-2.881l34.866-22.563c4.867-3.146,7.659-7.859,7.66-12.931
				C195.51,124.573,192.719,119.857,187.851,116.707z M179.702,129.98l-33.553,21.713V107.59l33.553,21.711
				c0.189,0.122,0.343,0.237,0.467,0.34C180.045,129.744,179.891,129.858,179.702,129.98z"/>
		</g>
	</g>
</g>
<g>
</g>
<g>
</g>
<g>
</g>
<g>
</g>
<g>
</g>
<g>
</g>
<g>
</g>
<g>
</g>
<g>
</g>
<g>
</g>
<g>
</g>
<g>
</g>
<g>
</g>
<g>
</g>
<g>
</g>
</svg>
