<?xml version="1.0" encoding="iso-8859-1"?>
<!-- Generator: Adobe Illustrator 19.0.0, SVG Export Plug-In . SVG Version: 6.00 Build 0)  -->
<svg version="1.1" id="Layer_1" xmlns="http://www.w3.org/2000/svg" xmlns:xlink="http://www.w3.org/1999/xlink" x="0px" y="0px"
	 viewBox="0 0 318.188 318.188" style="enable-background:new 0 0 318.188 318.188;" xml:space="preserve">
<g>
	<g>
		<g>
			<path d="M189.304,94.314c0.574-0.459,1.6-1.426,3.074-2.901l-0.144,4.368l-0.087,3.994v24.307h8.879V82.075h-7.299
				l-13.532,10.773l4.282,5.346L189.304,94.314z"/>
			<path d="M122.128,94.314c0.575-0.459,1.599-1.426,3.074-2.901l-0.145,4.368l-0.087,3.994v24.307h8.881V82.075h-7.299
				L113.02,92.848l4.279,5.346L122.128,94.314z"/>
			<path d="M189.304,151.904c0.574-0.461,1.6-1.43,3.074-2.903l-0.144,4.366l-0.087,3.994v24.306h8.879v-42.004h-7.299
				l-13.532,10.775l4.282,5.344L189.304,151.904z"/>
			<path d="M159.911,124.656c4.998,0,8.699-1.761,11.104-5.285c2.404-3.525,3.607-8.957,3.607-16.293
				c0-7.088-1.242-12.469-3.723-16.146c-2.479-3.677-6.143-5.517-10.988-5.517c-4.98,0-8.669,1.758-11.063,5.271
				c-2.395,3.516-3.592,8.979-3.592,16.392c0,7.106,1.231,12.48,3.692,16.119C151.411,122.836,155.064,124.656,159.911,124.656z
				 M155.428,91.974c0.901-2.249,2.396-3.376,4.483-3.376c2.049,0,3.538,1.127,4.468,3.376c0.928,2.253,1.393,5.954,1.393,11.104
				c0,5.097-0.459,8.773-1.379,11.033c-0.919,2.26-2.413,3.391-4.481,3.391c-2.108,0-3.607-1.115-4.498-3.348
				c-0.89-2.231-1.336-5.923-1.336-11.076C154.077,97.928,154.528,94.227,155.428,91.974z"/>
			<path d="M283.149,52.723L232.625,2.197C231.218,0.79,229.311,0,227.321,0H40.342c-4.143,0-7.5,3.358-7.5,7.5v303.188
				c0,4.142,3.357,7.5,7.5,7.5h237.504c4.143,0,7.5-3.358,7.5-7.5V58.025C285.346,56.036,284.556,54.129,283.149,52.723z
				 M234.821,25.606l24.918,24.919h-24.918V25.606z M47.842,15h171.98v10.263H47.842V15z M270.346,303.188H47.842V40.263h171.98
				v17.763c0,4.143,3.357,7.5,7.5,7.5h43.024V303.188z"/>
			<path d="M126.323,139.003c-4.981,0-8.668,1.756-11.063,5.271s-3.592,8.979-3.592,16.393c0,7.107,1.23,12.48,3.691,16.119
				c2.462,3.639,6.116,5.458,10.963,5.458c4.999,0,8.7-1.762,11.105-5.287c2.403-3.523,3.605-8.954,3.605-16.29
				c0-7.087-1.24-12.47-3.722-16.148C134.832,140.84,131.169,139.003,126.323,139.003z M130.805,171.699
				c-0.92,2.26-2.413,3.389-4.481,3.389c-2.107,0-3.607-1.114-4.497-3.346c-0.891-2.231-1.337-5.924-1.337-11.076
				s0.449-8.855,1.351-11.105c0.9-2.25,2.396-3.375,4.483-3.375c2.049,0,3.538,1.125,4.467,3.375
				c0.93,2.251,1.393,5.953,1.393,11.105C132.183,165.762,131.724,169.438,130.805,171.699z"/>
			<path d="M129.649,256.232v-0.328c2.252-0.547,4.068-1.771,5.447-3.676c1.379-1.902,2.067-4.2,2.067-6.891
				c0-4.092-1.581-7.105-4.742-9.041c-3.161-1.938-8.003-2.905-14.522-2.905h-16.737v47.979h18.674
				c5.645,0,10.102-1.252,13.373-3.758c3.27-2.505,4.906-5.934,4.906-10.288c0-2.932-0.668-5.316-2.002-7.154
				C134.779,258.333,132.624,257.021,129.649,256.232z M117.769,243.204c4.07,0,6.104,1.346,6.104,4.036
				c0,1.51-0.509,2.648-1.526,3.414c-1.018,0.766-2.456,1.148-4.315,1.148h-3.905v-8.598H117.769z M118.688,271.361h-4.563v-10.074
				h4.299c2.057,0,3.627,0.426,4.71,1.279c1.083,0.853,1.624,2.079,1.624,3.676C124.759,269.655,122.735,271.361,118.688,271.361z"
				/>
			<path d="M146.608,150.438l4.279,5.344l4.829-3.877c0.573-0.461,1.597-1.43,3.073-2.903l-0.144,4.366l-0.087,3.994v24.306h8.879
				v-42.004h-7.298L146.608,150.438z"/>
			<path d="M203.98,255.084c0,2.932,0.152,6.816,0.459,11.65h-0.196l-17.459-33.343H169.85v47.979h11.485v-21.627
				c0-2.801-0.208-6.859-0.623-12.176h0.295l17.525,33.803h16.999v-47.979H203.98V255.084z"/>
			<rect x="146.451" y="233.392" width="13.028" height="47.979"/>
		</g>
	</g>
</g>
<g>
</g>
<g>
</g>
<g>
</g>
<g>
</g>
<g>
</g>
<g>
</g>
<g>
</g>
<g>
</g>
<g>
</g>
<g>
</g>
<g>
</g>
<g>
</g>
<g>
</g>
<g>
</g>
<g>
</g>
</svg>
