<?xml version="1.0" encoding="iso-8859-1"?>
<!-- Generator: Adobe Illustrator 19.0.0, SVG Export Plug-In . SVG Version: 6.00 Build 0)  -->
<svg version="1.1" id="Layer_1" xmlns="http://www.w3.org/2000/svg" xmlns:xlink="http://www.w3.org/1999/xlink" x="0px" y="0px"
	 viewBox="0 0 318.188 318.188" style="enable-background:new 0 0 318.188 318.188;" xml:space="preserve">
<g>
	<g>
		<g>
			<path d="M118.737,243.335c2.034,0,3.938,0.285,5.71,0.854c1.772,0.569,3.544,1.269,5.316,2.1l3.971-10.206
				c-4.726-2.254-9.681-3.38-14.866-3.38c-4.748,0-8.877,1.012-12.389,3.036s-6.203,4.917-8.073,8.68s-2.806,8.128-2.806,13.094
				c0,7.942,1.931,14.013,5.793,18.214c3.86,4.201,9.412,6.301,16.654,6.301c5.054,0,9.582-0.886,13.586-2.658v-10.961
				c-2.013,0.831-4.015,1.542-6.006,2.133c-1.99,0.59-4.047,0.886-6.169,0.886c-7.022,0-10.534-4.616-10.534-13.849
				c0-4.441,0.863-7.925,2.592-10.452C113.245,244.599,115.651,243.335,118.737,243.335z"/>
			<path d="M158.107,64.714c-35.802,0-64.929,29.127-64.929,64.929s29.127,64.929,64.929,64.929s64.929-29.127,64.929-64.929
				S193.909,64.714,158.107,64.714z M109.028,137.296c0,0.573,0.019,1.142,0.043,1.709c-0.578-3.035-0.893-6.162-0.893-9.362
				c0-27.531,22.398-49.929,49.929-49.929c4.872,0,9.577,0.714,14.032,2.021c2.604,1.879,4.148,4.831,4.148,8.071
				c0,3.599-1.957,6.942-5.107,8.726l-0.097,0.056c-0.05,0.029-0.099,0.059-0.146,0.088c-0.869,0.459-1.819,0.787-2.827,0.975
				c-0.043,0.008-0.086,0.016-0.129,0.025c-4.576,0.936-10.365,0.088-14.591-0.532c-2.265-0.332-4.053-0.594-5.617-0.594
				C126.409,98.55,109.028,115.932,109.028,137.296z M155.571,127.102c0,2.161-1.758,3.919-3.919,3.919
				c-2.161,0-3.92-1.758-3.92-3.919c0-2.16,1.759-3.918,3.92-3.918C153.813,123.184,155.571,124.942,155.571,127.102z
				 M207.827,134.089c-2.258,25.455-23.688,45.483-49.72,45.483c-8.367,0-16.254-2.079-23.189-5.732
				c4.025,1.42,8.35,2.201,12.855,2.201c9.672,0,18.934-3.583,26.08-10.091c0.004-0.004,0.008-0.007,0.013-0.011
				c5.151-4.632,9.266-11.989,13.244-19.105c3.538-6.327,7.548-13.498,10.897-15.736c0.052-0.035,0.139-0.094,0.209-0.143
				c0.011-0.007,0.023-0.015,0.033-0.022c1.055-0.692,2.276-1.059,3.534-1.059C204.495,129.875,206.901,131.605,207.827,134.089z
				 M201.784,114.875c-4.102,0-8.088,1.167-11.544,3.375c-0.063,0.038-0.124,0.077-0.186,0.117
				c-0.053,0.034-0.126,0.083-0.191,0.128c-0.095,0.064-0.189,0.129-0.282,0.194c-6.3,4.258-10.8,12.307-15.563,20.825
				c-3.396,6.072-6.905,12.35-10.215,15.301c-0.038,0.034-0.076,0.068-0.113,0.103c-4.369,3.949-10.019,6.124-15.917,6.124
				c-13.093,0-23.745-10.652-23.745-23.745c0-8.731,4.74-16.371,11.777-20.497c-1.936,2.968-3.073,6.503-3.073,10.303
				c0,10.432,8.487,18.919,18.92,18.919c10.432,0,18.919-8.487,18.919-18.919c0-4.604-1.656-8.825-4.4-12.109
				c1.584-0.101,3.178-0.289,4.752-0.608c2.561-0.484,4.999-1.348,7.25-2.569c0.038-0.02,0.076-0.04,0.113-0.061h0.001
				c0.162-0.089,0.314-0.179,0.466-0.275c7.021-4.053,11.609-11.255,12.4-19.221c6.875,6.085,12.064,14.028,14.773,23.039
				C204.578,115.03,203.195,114.875,201.784,114.875z"/>
			<path d="M283.149,52.722L232.625,2.197C231.218,0.79,229.311,0,227.321,0H40.342c-4.143,0-7.5,3.358-7.5,7.5v303.188
				c0,4.142,3.357,7.5,7.5,7.5h237.504c4.143,0,7.5-3.358,7.5-7.5V58.025C285.346,56.036,284.556,54.129,283.149,52.722z
				 M234.821,25.606l24.918,24.919h-24.918V25.606z M47.842,15h171.979v10.263H47.842V15z M47.842,303.188V40.263h171.979v17.763
				c0,4.142,3.357,7.5,7.5,7.5h43.024v237.662H47.842z"/>
			<path d="M168.882,233.392h-11.979l-19.953,29.175v9.517h19.133v9.288h12.799v-9.288h5.283v-9.681h-5.283V233.392z
				 M156.198,252.574c-0.076,1.783-0.115,3.2-0.115,4.25v5.579h-7.908l5.316-7.909c0.939-1.466,1.783-3.041,2.527-4.726h0.359
				C156.335,249.855,156.274,250.791,156.198,252.574z"/>
			<path d="M196.975,233.392H180.37v47.979h15.522c7.985,0,14.183-2.166,18.591-6.498c4.408-4.332,6.613-10.502,6.613-18.509
				c0-7.439-2.096-13.127-6.285-17.065C210.621,235.361,204.676,233.392,196.975,233.392z M204.884,267.309
				c-1.838,2.287-4.726,3.43-8.664,3.43h-2.888v-26.877h3.773c3.545,0,6.186,1.061,7.926,3.183c1.739,2.123,2.609,5.382,2.609,9.78
				C207.641,261.528,206.722,265.023,204.884,267.309z"/>
		</g>
	</g>
</g>
<g>
</g>
<g>
</g>
<g>
</g>
<g>
</g>
<g>
</g>
<g>
</g>
<g>
</g>
<g>
</g>
<g>
</g>
<g>
</g>
<g>
</g>
<g>
</g>
<g>
</g>
<g>
</g>
<g>
</g>
</svg>
