<?xml version="1.0" encoding="iso-8859-1"?>
<!-- Generator: Adobe Illustrator 19.0.0, SVG Export Plug-In . SVG Version: 6.00 Build 0)  -->
<svg version="1.1" id="Layer_1" xmlns="http://www.w3.org/2000/svg" xmlns:xlink="http://www.w3.org/1999/xlink" x="0px" y="0px"
	 viewBox="0 0 318.188 318.188" style="enable-background:new 0 0 318.188 318.188;" xml:space="preserve">
<g>
	<g>
		<g>
			<path d="M154.541,233.392h-16.606v47.979h15.523c7.985,0,14.183-2.166,18.591-6.498c4.408-4.332,6.613-10.502,6.613-18.509
				c0-7.438-2.096-13.127-6.285-17.065C168.188,235.361,162.242,233.392,154.541,233.392z M162.45,267.309
				c-1.838,2.287-4.726,3.43-8.664,3.43h-2.888v-26.877h3.773c3.545,0,6.187,1.061,7.926,3.183s2.609,5.382,2.609,9.78
				C165.207,261.527,164.288,265.023,162.45,267.309z"/>
			<path d="M222.538,247.568c0-9.451-6.52-14.177-19.559-14.177h-15.72v47.979h12.963v-17.459h3.281l10.174,17.459h14.702
				l-13.98-20.904C219.825,257.426,222.538,253.127,222.538,247.568z M202.65,254.166h-2.428v-10.962h2.56
				c4.441,0,6.662,1.652,6.662,4.956C209.444,252.164,207.18,254.166,202.65,254.166z"/>
			<path d="M283.149,52.723L232.624,2.197C231.218,0.79,229.311,0,227.321,0H40.342c-4.142,0-7.5,3.358-7.5,7.5v303.188
				c0,4.142,3.358,7.5,7.5,7.5h237.504c4.142,0,7.5-3.358,7.5-7.5V58.025C285.346,56.036,284.556,54.129,283.149,52.723z
				 M234.821,25.606l24.918,24.919h-24.918V25.606z M47.842,15h171.979v10.263H47.842V15z M47.842,303.188V40.263h171.979v17.763
				c0,4.143,3.358,7.5,7.5,7.5h43.024v237.662H47.842z"/>
			<path d="M152.7,183.72c0.008,0.015,0.019,0.026,0.027,0.04c0.155,0.265,0.326,0.52,0.513,0.765c0.039,0.052,0.082,0.1,0.123,0.15
				c0.15,0.186,0.309,0.364,0.477,0.536c0.061,0.063,0.122,0.125,0.185,0.185c0.18,0.172,0.369,0.335,0.568,0.489
				c0.039,0.03,0.075,0.064,0.114,0.094c0.229,0.172,0.473,0.328,0.726,0.475c0.084,0.049,0.171,0.091,0.257,0.136
				c0.115,0.061,0.225,0.126,0.344,0.182l31.457,14.624c1.005,0.468,2.085,0.699,3.161,0.699c1.317,0,2.63-0.347,3.798-1.033
				c2.124-1.247,3.5-3.458,3.682-5.915l2.525-34.242c0.001-0.011,0-0.021,0.001-0.03c0.011-0.162,0.01-0.323,0.011-0.484
				c0.001-0.092,0.007-0.184,0.004-0.273c-0.003-0.101-0.016-0.2-0.023-0.3c-0.082-1.155-0.42-2.247-0.974-3.207
				c-0.001-0.002-0.002-0.005-0.003-0.007L140.824,54.673c-1.34-2.32-3.816-3.75-6.495-3.75H117.5c-4.142,0-7.5,3.357-7.5,7.5
				v49.329c0,1.316,0.347,2.61,1.005,3.75L152.7,183.72z M183.97,183.217l-8.53-3.966l9.215-5.319L183.97,183.217z M125,93.529
				l33.717,58.4c1.389,2.406,3.91,3.751,6.502,3.751c1.272,0,2.562-0.324,3.743-1.006c3.587-2.071,4.817-6.658,2.745-10.245
				l-45.325-78.507h3.617l52.933,91.684l-20.992,12.118L125,105.742V93.529z"/>
			<path d="M115.685,243.336c2.035,0,3.938,0.284,5.711,0.854c1.772,0.568,3.544,1.269,5.316,2.1l3.971-10.206
				c-4.726-2.253-9.681-3.38-14.866-3.38c-4.748,0-8.877,1.012-12.389,3.035c-3.511,2.023-6.203,4.918-8.073,8.68
				c-1.871,3.764-2.806,8.129-2.806,13.095c0,7.942,1.931,14.013,5.792,18.214s9.413,6.301,16.655,6.301
				c5.054,0,9.583-0.886,13.587-2.658V268.41c-2.013,0.832-4.015,1.543-6.006,2.133c-1.991,0.591-4.048,0.887-6.169,0.887
				c-7.023,0-10.535-4.616-10.535-13.85c0-4.441,0.864-7.926,2.593-10.452C110.193,244.6,112.6,243.336,115.685,243.336z"/>
		</g>
	</g>
</g>
<g>
</g>
<g>
</g>
<g>
</g>
<g>
</g>
<g>
</g>
<g>
</g>
<g>
</g>
<g>
</g>
<g>
</g>
<g>
</g>
<g>
</g>
<g>
</g>
<g>
</g>
<g>
</g>
<g>
</g>
</svg>
