<?xml version="1.0" encoding="iso-8859-1"?>
<!-- Generator: Adobe Illustrator 19.0.0, SVG Export Plug-In . SVG Version: 6.00 Build 0)  -->
<svg version="1.1" id="Layer_1" xmlns="http://www.w3.org/2000/svg" xmlns:xlink="http://www.w3.org/1999/xlink" x="0px" y="0px"
	 viewBox="0 0 318.188 318.188" style="enable-background:new 0 0 318.188 318.188;" xml:space="preserve">
<g>
	<g>
		<g>
			<path d="M118.484,225.868h-16.06v46.401h15.013c7.723,0,13.716-2.095,17.98-6.284c4.263-4.189,6.395-10.156,6.395-17.9
				c0-7.194-2.026-12.695-6.078-16.504C131.682,227.772,125.932,225.868,118.484,225.868z M126.133,258.67
				c-1.777,2.211-4.57,3.316-8.379,3.316h-2.793v-25.994h3.65c3.428,0,5.982,1.027,7.665,3.079c1.682,2.053,2.523,5.205,2.523,9.458
				C128.799,253.078,127.91,256.459,126.133,258.67z"/>
			<polygon points="162.663,225.868 150.127,225.868 150.127,272.269 180.532,272.269 180.532,262.144 162.663,262.144 			"/>
			<path d="M129.785,99.716c-14.019,0-25.425,11.406-25.425,25.426c0,14.018,11.406,25.424,25.425,25.424
				c14.019,0,25.425-11.405,25.425-25.424C155.21,111.122,143.804,99.716,129.785,99.716z M129.785,135.565
				c-5.748,0-10.425-4.676-10.425-10.424c0-5.749,4.677-10.426,10.425-10.426c5.748,0,10.425,4.677,10.425,10.426
				C140.21,130.89,135.533,135.565,129.785,135.565z"/>
			<path d="M218.071,111.707c-0.548-0.082-1.099-0.152-1.651-0.21c-1.331-3.469-4.664-5.864-8.547-5.864
				c-0.653,0-1.31,0.069-1.953,0.207c-0.27,0.058-0.538,0.131-0.801,0.219l-11.077,3.689c-0.259,0.086-0.514,0.187-0.762,0.301
				c-0.556,0.256-1.077,0.567-1.564,0.92l-1.836-8.546c-0.058-0.272-0.132-0.541-0.22-0.805c-1.409-4.212-5.31-7.042-9.705-7.042
				c-1.521,0-3.001,0.33-4.4,0.982l-0.064,0.029c-1.675-2.585-3.57-5.032-5.653-7.301l0.05-0.061
				c1.879-2.279,2.703-5.238,2.259-8.116c-0.444-2.878-2.12-5.451-4.599-7.059c-0.233-0.152-0.476-0.291-0.725-0.415l-17.179-8.596
				c-0.248-0.124-0.503-0.234-0.764-0.331c-1.167-0.43-2.383-0.647-3.612-0.647c-4.727,0-8.814,3.236-9.939,7.863l-0.015,0.062
				c-3.382-0.347-6.78-0.375-10.177-0.082l-0.016-0.069c-1.071-4.726-5.174-8.025-9.978-8.025c-1.175,0-2.34,0.199-3.462,0.593
				c-0.262,0.092-0.519,0.198-0.769,0.318L93.604,72.05c-0.251,0.121-0.496,0.257-0.733,0.405c-2.501,1.568-4.217,4.113-4.707,6.98
				c-0.49,2.868,0.284,5.838,2.127,8.152l0.048,0.061c-2.123,2.235-4.059,4.648-5.776,7.201l-0.073-0.035
				c-1.419-0.689-2.99-1.054-4.546-1.054c-4.325,0-8.205,2.771-9.654,6.895c-0.092,0.262-0.17,0.528-0.232,0.798l-4.326,18.716
				c-0.063,0.271-0.11,0.544-0.142,0.82c-0.343,2.934,0.569,5.865,2.501,8.042c1.933,2.178,4.735,3.431,7.691,3.439h0.052
				c0.411,3.065,1.083,6.077,2.013,9.02l-0.052,0.025c-2.669,1.266-4.671,3.594-5.492,6.388c-0.821,2.793-0.396,5.834,1.164,8.343
				c0.148,0.237,0.308,0.466,0.481,0.685l11.898,15.079c0.17,0.216,0.352,0.423,0.545,0.618c1.968,1.997,4.573,3.097,7.335,3.097
				c3.109,0,6.028-1.409,8.004-3.863l0.044-0.056c2.643,1.586,5.422,2.948,8.292,4.066l-0.018,0.076
				c-0.683,2.876-0.117,5.895,1.551,8.283c1.668,2.388,4.307,3.958,7.242,4.307c0.275,0.033,0.551,0.051,0.828,0.053l19.208,0.149
				h0.058c0.258,0,0.516-0.014,0.772-0.04c2.937-0.304,5.599-1.831,7.304-4.19c1.706-2.359,2.32-5.369,1.685-8.261l-0.014-0.064
				c2.885-1.072,5.685-2.39,8.353-3.933l0.051,0.064c1.979,2.538,4.933,3.993,8.104,3.993c2.702,0,5.266-1.059,7.221-2.98
				c0.197-0.193,0.383-0.397,0.557-0.611l3.731-4.582l3.838,6.146c0.148,0.236,0.309,0.465,0.482,0.684
				c1.765,2.229,4.39,3.506,7.204,3.506c1.587,0,3.117-0.405,4.471-1.164c0.463,0.31,0.933,0.608,1.41,0.896
				c-0.121,1.735,0.249,3.483,1.093,5.028c1.25,2.289,3.439,3.944,6.005,4.539c0.269,0.063,0.542,0.11,0.816,0.143l11.595,1.369
				c0.275,0.032,0.553,0.05,0.83,0.052h0.062c2.621,0,5.118-1.107,6.853-3.038c1.171-1.304,1.932-2.913,2.216-4.624
				c0.525-0.166,1.046-0.345,1.564-0.534c1.673,1.56,3.872,2.444,6.223,2.444c2.051,0,4.078-0.706,5.705-1.988
				c0.217-0.171,0.424-0.354,0.62-0.547l8.32-8.193c0.197-0.193,0.383-0.398,0.557-0.612c1.661-2.043,2.376-4.692,1.96-7.267
				c-0.281-1.741-1.063-3.352-2.226-4.65c0.198-0.514,0.385-1.033,0.56-1.556c4.44-0.638,7.775-4.371,7.814-9.02
				c0.002-0.276-0.01-0.552-0.039-0.827l-1.188-11.616c-0.028-0.273-0.071-0.545-0.128-0.813c-0.92-4.279-4.602-7.268-8.953-7.268
				c-0.167,0-0.334,0.005-0.5,0.014c-0.279-0.48-0.57-0.955-0.873-1.423c0.877-1.509,1.316-3.246,1.237-5.01
				c-0.116-2.607-1.355-5.057-3.4-6.719c-0.211-0.172-0.432-0.333-0.661-0.48l-9.806-6.338c-0.232-0.15-0.473-0.287-0.72-0.411
				c-1.284-0.642-2.715-0.98-4.137-0.98C222.523,107.878,219.77,109.35,218.071,111.707z M176.81,118.249
				c-1.981-0.035-3.91,0.736-5.336,2.126c-1.426,1.389-2.242,3.287-2.267,5.277c-0.076,5.966-1.446,11.676-4.072,16.972
				c-0.885,1.784-1.023,3.847-0.386,5.733c0.638,1.886,1.999,3.441,3.784,4.323l1.004,0.496l-4.267,5.24l-0.695-0.893
				c-1.224-1.571-3.022-2.591-4.998-2.835c-1.977-0.244-3.969,0.308-5.538,1.534c-4.69,3.666-10.002,6.167-15.788,7.433
				c-1.945,0.426-3.641,1.607-4.714,3.285c-1.073,1.677-1.436,3.712-1.007,5.656l0.241,1.096l-6.757-0.053l0.26-1.093
				c0.461-1.939,0.132-3.98-0.914-5.674c-1.046-1.695-2.723-2.904-4.662-3.361c-5.691-1.342-11.109-3.998-15.667-7.682
				c-1.549-1.252-3.529-1.832-5.51-1.625c-1.979,0.212-3.794,1.201-5.043,2.751l-0.708,0.88l-4.187-5.306l1.008-0.478
				c1.8-0.853,3.187-2.385,3.855-4.261c0.668-1.876,0.563-3.94-0.292-5.738c-2.51-5.278-3.79-10.934-3.805-16.809
				c0.002-0.09,0.004-0.188,0.004-0.256c0-4.135-3.346-7.489-7.48-7.5l-1.125-0.003l1.522-6.584l1.001,0.487
				c1.789,0.87,3.851,0.994,5.731,0.345c1.881-0.649,3.426-2.02,4.296-3.809c2.553-5.251,6.334-9.965,10.934-13.632
				c1.555-1.24,2.554-3.048,2.777-5.024c0.223-1.977-0.349-3.961-1.589-5.516l-0.705-0.884l6.089-2.93l0.248,1.096
				c0.44,1.94,1.632,3.627,3.315,4.688c1.683,1.062,3.72,1.41,5.659,0.97c6.014-1.366,12.199-1.308,18.14,0.143
				c4.026,0.98,8.082-1.483,9.064-5.508l0.266-1.09l6.042,3.023l-0.712,0.864c-1.266,1.534-1.87,3.51-1.679,5.49
				c0.19,1.98,1.16,3.804,2.695,5.069c4.521,3.726,8.221,8.504,10.698,13.817c0.841,1.803,2.363,3.197,4.232,3.878
				c1.869,0.68,3.932,0.59,5.735-0.251l1.015-0.474l1.42,6.607L176.81,118.249z M227.754,132.664
				c2.221,2.277,3.857,4.945,4.864,7.931c0.635,1.882,1.99,3.435,3.768,4.318c-1.567,1.226-2.584,3.023-2.826,4.998
				c-0.385,3.148-1.444,6.092-3.147,8.748c-1.073,1.674-1.438,3.705-1.013,5.647c-1.934-0.455-3.969-0.124-5.66,0.92
				c-2.69,1.661-5.653,2.675-8.808,3.011c-1.977,0.211-3.788,1.198-5.038,2.744c-0.856-1.791-2.386-3.171-4.257-3.836
				c-2.916-1.036-5.517-2.673-7.732-4.866c-0.048-0.051-0.098-0.102-0.137-0.141c-1.458-1.46-3.368-2.193-5.28-2.2
				c0.864-1.786,0.985-3.841,0.336-5.716c-1.016-2.938-1.367-6.143-1.015-9.266c0.223-1.972-0.345-3.951-1.579-5.505
				c1.932-0.443,3.61-1.634,4.667-3.312c0.846-1.342,1.831-2.579,2.935-3.682c1.18-1.182,2.513-2.227,3.962-3.108
				c1.765-1.073,2.93-2.759,3.387-4.617c1.534,1.258,3.499,1.854,5.479,1.669c3.129-0.302,6.295,0.102,9.245,1.176
				c1.863,0.678,3.919,0.593,5.719-0.241C225.6,129.325,226.366,131.241,227.754,132.664z"/>
			<path d="M283.149,52.723L232.624,2.197C231.218,0.79,229.311,0,227.321,0H40.342c-4.142,0-7.5,3.358-7.5,7.5v303.188
				c0,4.142,3.358,7.5,7.5,7.5h237.504c4.142,0,7.5-3.358,7.5-7.5V58.025C285.346,56.036,284.556,54.129,283.149,52.723z
				 M234.821,25.606l24.918,24.919h-24.918V25.606z M47.842,15h171.98v10.263H47.842V15z M270.346,303.188H47.842V40.263h171.98
				v17.763c0,4.143,3.358,7.5,7.5,7.5h43.024V303.188z"/>
			<path d="M199.69,134.324c-3.475,3.475-5.388,8.095-5.388,13.009c0,4.913,1.914,9.533,5.388,13.006
				c3.474,3.475,8.093,5.389,13.007,5.389c4.913,0,9.532-1.913,13.006-5.388c3.475-3.474,5.389-8.093,5.389-13.007
				c0.001-4.914-1.913-9.533-5.388-13.009c-3.475-3.474-8.094-5.387-13.007-5.387S203.165,130.85,199.69,134.324z M216.092,147.332
				c0,0.524-0.129,1.535-0.995,2.4c-0.865,0.865-1.876,0.995-2.4,0.995c-0.525,0-1.535-0.13-2.4-0.995s-0.995-1.875-0.995-2.4
				c0-0.525,0.129-1.536,0.994-2.4c0.865-0.865,1.876-0.994,2.401-0.994c0.525,0,1.537,0.129,2.401,0.993
				C215.963,145.796,216.092,146.807,216.092,147.332z"/>
			<polygon points="200.495,225.868 187.959,225.868 187.959,272.269 218.364,272.269 218.364,262.144 200.495,262.144 			"/>
		</g>
	</g>
</g>
<g>
</g>
<g>
</g>
<g>
</g>
<g>
</g>
<g>
</g>
<g>
</g>
<g>
</g>
<g>
</g>
<g>
</g>
<g>
</g>
<g>
</g>
<g>
</g>
<g>
</g>
<g>
</g>
<g>
</g>
</svg>
