<?xml version="1.0" encoding="iso-8859-1"?>
<!-- Generator: Adobe Illustrator 19.0.0, SVG Export Plug-In . SVG Version: 6.00 Build 0)  -->
<svg version="1.1" id="Layer_1" xmlns="http://www.w3.org/2000/svg" xmlns:xlink="http://www.w3.org/1999/xlink" x="0px" y="0px"
	 viewBox="0 0 318.188 318.188" style="enable-background:new 0 0 318.188 318.188;" xml:space="preserve">
<g>
	<g>
		<g>
			<path d="M136.381,169.742c7.023-6.563,10.536-16.014,10.536-28.352c0-11.587-3.384-20.61-10.151-27.07
				c-6.768-6.46-16.27-9.69-28.506-9.69H84.727v74.957h21.226C119.213,179.586,129.357,176.305,136.381,169.742z M100.619,117.652
				L100.619,117.652h8.46c14.218,0,21.328,8.049,21.328,24.148c0,16.44-7.657,24.661-22.969,24.661h-6.819V117.652z"/>
			<path d="M219.668,147.645c-0.342,1.504-0.906,4.401-1.692,8.689c-0.787,4.291-1.333,7.666-1.641,10.127h-0.308
				c-0.035-0.957-0.163-2.231-0.384-3.82c-0.223-1.59-0.471-3.212-0.744-4.871c-0.274-1.656-0.556-3.221-0.846-4.69
				c-0.29-1.47-0.504-2.58-0.641-3.333l-6.716-27.48H189.47l-7.075,27.48l-0.82,4.358c-1.06,5.64-1.658,9.759-1.794,12.357h-0.308
				c-1.094-7.998-2.171-14.27-3.23-18.816l-6.614-25.379h-15.586l16.304,57.32h16.816l10.459-45.374h0.359l5.947,25.327
				l4.409,20.047h17.021l16.509-57.32h-15.33L219.668,147.645z"/>
			<polygon points="199.748,243.992 211.463,243.992 211.463,281.371 224.426,281.371 224.426,243.992 236.109,243.992 
				236.109,233.392 199.748,233.392 			"/>
			<path d="M100.704,233.392H84.098v47.979h15.523c7.985,0,14.182-2.166,18.591-6.498c4.409-4.332,6.613-10.502,6.613-18.509
				c0-7.438-2.095-13.127-6.284-17.065C114.35,235.361,108.404,233.392,100.704,233.392z M108.612,267.309
				c-1.837,2.287-4.725,3.43-8.663,3.43h-2.888v-26.877h3.774c3.544,0,6.186,1.061,7.925,3.183s2.609,5.382,2.609,9.78
				C111.369,261.527,110.45,265.023,108.612,267.309z"/>
			<path d="M283.149,52.723L232.624,2.197C231.218,0.79,229.311,0,227.321,0H40.342c-4.142,0-7.5,3.358-7.5,7.5v303.188
				c0,4.142,3.358,7.5,7.5,7.5h237.504c4.142,0,7.5-3.358,7.5-7.5V58.025C285.346,56.036,284.556,54.129,283.149,52.723z
				 M234.821,25.606l24.918,24.919h-24.918V25.606z M47.842,15h171.98v10.263H47.842V15z M270.346,303.188H47.842V40.263h171.98
				v17.763c0,4.143,3.358,7.5,7.5,7.5h43.024V303.188z"/>
			<path d="M179.235,257.513c-1.269,5.995-2.046,10.206-2.33,12.635c-0.24-1.882-0.722-4.726-1.443-8.532
				c-0.722-3.807-1.434-7.166-2.133-10.075l-4.103-18.148h-12.012l-4.233,18.148c-0.635,2.517-1.318,5.688-2.051,9.517
				c-0.733,3.829-1.242,6.859-1.526,9.091c-0.438-3.15-1.247-7.384-2.429-12.7l-5.217-24.056h-12.503l11.88,47.979h15.325
				c2.801-12.58,4.393-19.756,4.775-21.528c0.383-1.772,0.771-3.714,1.165-5.825s0.678-3.877,0.854-5.3
				c0.218,1.751,0.563,3.927,1.033,6.53c0.471,2.604,0.816,4.344,1.034,5.219l4.595,20.904h15.325l11.814-47.979h-12.503
				L179.235,257.513z"/>
		</g>
	</g>
</g>
<g>
</g>
<g>
</g>
<g>
</g>
<g>
</g>
<g>
</g>
<g>
</g>
<g>
</g>
<g>
</g>
<g>
</g>
<g>
</g>
<g>
</g>
<g>
</g>
<g>
</g>
<g>
</g>
<g>
</g>
</svg>
