<?xml version="1.0" encoding="iso-8859-1"?>
<!-- Generator: Adobe Illustrator 19.0.0, SVG Export Plug-In . SVG Version: 6.00 Build 0)  -->
<svg version="1.1" id="Layer_1" xmlns="http://www.w3.org/2000/svg" xmlns:xlink="http://www.w3.org/1999/xlink" x="0px" y="0px"
	 viewBox="0 0 318.188 318.188" style="enable-background:new 0 0 318.188 318.188;" xml:space="preserve">
<g>
	<g>
		<g>
			<path d="M95.683,233.392H79.077v47.979H94.6c7.985,0,14.183-2.166,18.591-6.498c4.408-4.331,6.613-10.501,6.613-18.509
				c0-7.438-2.096-13.127-6.285-17.065C109.329,235.361,103.384,233.392,95.683,233.392z M103.591,267.309
				c-1.837,2.287-4.725,3.43-8.663,3.43H92.04v-26.877h3.773c3.545,0,6.187,1.061,7.926,3.183c1.739,2.123,2.609,5.382,2.609,9.78
				C106.349,261.528,105.429,265.023,103.591,267.309z"/>
			<path d="M219.667,282.027c6.738,0,12.919-0.962,18.542-2.888v-25.86h-20.708v10.009h8.565v7.515
				c-1.619,0.372-3.392,0.558-5.316,0.558c-3.523,0-6.219-1.176-8.09-3.528c-1.87-2.352-2.806-5.771-2.806-10.256
				c0-4.572,1.033-8.089,3.102-10.551c2.067-2.461,4.993-3.692,8.778-3.692c4.135,0,7.931,0.854,11.388,2.56l4.102-10.174
				c-1.991-0.874-4.327-1.597-7.007-2.166c-2.681-0.568-5.53-0.853-8.549-0.853c-7.964,0-14.156,2.155-18.575,6.465
				c-4.419,4.311-6.629,10.338-6.629,18.083c0,7.942,2.018,14.058,6.055,18.345C206.557,279.883,212.271,282.027,219.667,282.027z"
				/>
			<path d="M283.149,52.722L232.625,2.197C231.218,0.79,229.311,0,227.321,0H40.342c-4.143,0-7.5,3.358-7.5,7.5v303.188
				c0,4.142,3.357,7.5,7.5,7.5h237.504c4.143,0,7.5-3.358,7.5-7.5V58.025C285.346,56.036,284.556,54.129,283.149,52.722z
				 M234.821,25.606l24.918,24.919h-24.918V25.606z M227.321,65.526h43.024v34.71h-118.49V88.927c0-4.142-3.357-7.5-7.5-7.5h-11.309
				V40.263h86.775v17.763C219.821,62.168,223.178,65.526,227.321,65.526z M136.855,96.427v22.617h-22.617V96.427H136.855z
				 M47.842,15h171.98v10.263H47.842V15z M47.842,40.263h70.204v41.165h-11.309c-4.142,0-7.5,3.358-7.5,7.5v11.309H47.842V40.263z
				 M270.346,303.188H47.842V115.236h51.395v11.308c0,4.142,3.358,7.5,7.5,7.5h11.309v65.296h15v-65.296h11.309
				c4.143,0,7.5-3.358,7.5-7.5v-11.308h118.491V303.188z"/>
			<path d="M145.909,261.057c-0.732,3.829-1.242,6.859-1.525,9.09c-0.438-3.15-1.247-7.384-2.429-12.7l-5.218-24.056h-12.504
				l11.881,47.979h15.324c2.801-12.58,4.393-19.756,4.775-21.528c0.383-1.772,0.771-3.713,1.166-5.825
				c0.393-2.111,0.678-3.877,0.854-5.3c0.217,1.751,0.563,3.927,1.033,6.531c0.471,2.603,0.814,4.343,1.033,5.218l4.596,20.905
				h15.324l11.814-47.979h-12.502l-5.318,24.121c-1.268,5.995-2.045,10.206-2.33,12.635c-0.24-1.881-0.721-4.726-1.443-8.533
				c-0.721-3.807-1.434-7.165-2.133-10.075l-4.102-18.148h-12.012l-4.234,18.148C147.325,254.056,146.643,257.228,145.909,261.057z"
				/>
		</g>
	</g>
</g>
<g>
</g>
<g>
</g>
<g>
</g>
<g>
</g>
<g>
</g>
<g>
</g>
<g>
</g>
<g>
</g>
<g>
</g>
<g>
</g>
<g>
</g>
<g>
</g>
<g>
</g>
<g>
</g>
<g>
</g>
</svg>
