<?xml version="1.0" encoding="iso-8859-1"?>
<!-- Generator: Adobe Illustrator 19.0.0, SVG Export Plug-In . SVG Version: 6.00 Build 0)  -->
<svg version="1.1" id="Layer_1" xmlns="http://www.w3.org/2000/svg" xmlns:xlink="http://www.w3.org/1999/xlink" x="0px" y="0px"
	 viewBox="0 0 318.188 318.188" style="enable-background:new 0 0 318.188 318.188;" xml:space="preserve">
<g>
	<g>
		<g>
			<polygon points="95.935,272.27 123.484,272.27 123.484,262.05 108.471,262.05 108.471,253.29 122.373,253.29 122.373,243.229 
				108.471,243.229 108.471,235.93 123.484,235.93 123.484,225.869 95.935,225.869 			"/>
			<path d="M215.059,83.366H103.13c-7.893,0-14.313,6.421-14.313,14.313v58.477c0,7.893,6.421,14.313,14.313,14.313h111.929
				c7.893,0,14.314-6.421,14.314-14.313V97.68C229.372,89.787,222.951,83.366,215.059,83.366z M199.564,98.366l-40.469,30.675
				l-40.469-30.675H199.564z M103.816,105.962l27.647,20.956l-27.647,20.956V105.962z M118.626,155.47l25.252-19.142l10.686,8.101
				c1.339,1.016,2.935,1.523,4.53,1.523c1.595,0,3.191-0.508,4.53-1.523l10.687-8.101l25.252,19.142H118.626z M214.372,147.873
				l-27.646-20.955l27.646-20.955V147.873z"/>
			<path d="M283.149,52.723L232.625,2.197C231.218,0.79,229.311,0,227.321,0H40.342c-4.143,0-7.5,3.358-7.5,7.5v303.188
				c0,4.142,3.357,7.5,7.5,7.5h237.504c4.143,0,7.5-3.358,7.5-7.5V58.025C285.346,56.036,284.556,54.129,283.149,52.723z
				 M234.821,25.606l24.918,24.919h-24.918V25.606z M47.842,15h171.98v10.263H47.842V15z M270.346,303.188H47.842V40.263h171.98
				v17.763c0,4.143,3.357,7.5,7.5,7.5h43.024V303.188z"/>
			<path d="M158.236,258.813h-0.254l-9.68-32.944h-16.694v46.401h11.108v-20.154c0-3.152-0.223-7.574-0.666-13.266h0.285l9.49,33.42
				h11.934l9.362-33.357h0.286c-0.254,5.037-0.397,8.199-0.429,9.49c-0.032,1.291-0.048,2.465-0.048,3.523v20.344h11.521v-46.401
				h-16.727L158.236,258.813z"/>
			<polygon points="206.986,225.868 194.45,225.868 194.45,272.269 224.855,272.269 224.855,262.144 206.986,262.144 			"/>
		</g>
	</g>
</g>
<g>
</g>
<g>
</g>
<g>
</g>
<g>
</g>
<g>
</g>
<g>
</g>
<g>
</g>
<g>
</g>
<g>
</g>
<g>
</g>
<g>
</g>
<g>
</g>
<g>
</g>
<g>
</g>
<g>
</g>
</svg>
