<?xml version="1.0" encoding="iso-8859-1"?>
<!-- Generator: Adobe Illustrator 19.0.0, SVG Export Plug-In . SVG Version: 6.00 Build 0)  -->
<svg version="1.1" id="Layer_1" xmlns="http://www.w3.org/2000/svg" xmlns:xlink="http://www.w3.org/1999/xlink" x="0px" y="0px"
	 viewBox="0 0 318.188 318.188" style="enable-background:new 0 0 318.188 318.188;" xml:space="preserve">
<g>
	<g>
		<g>
			<path d="M283.149,52.722L232.625,2.197C231.218,0.79,229.311,0,227.321,0H40.342c-4.142,0-7.5,3.358-7.5,7.5v303.188
				c0,4.142,3.358,7.5,7.5,7.5h237.504c4.143,0,7.5-3.358,7.5-7.5V58.025C285.346,56.036,284.556,54.129,283.149,52.722z
				 M234.821,25.606l24.918,24.919h-24.918V25.606z M47.842,15h171.98v10.263H47.842V15z M270.346,303.188H47.842V40.263h171.98
				v17.763c0,4.142,3.357,7.5,7.5,7.5h43.024V303.188z"/>
			<polygon points="104.461,281.371 132.947,281.371 132.947,270.804 117.424,270.804 117.424,261.746 131.798,261.746 
				131.798,251.343 117.424,251.343 117.424,243.795 132.947,243.795 132.947,233.392 104.461,233.392 			"/>
			<path d="M214.941,127.711l-12.297-12.296l2.321-2.321c1.406-1.406,2.196-3.314,2.196-5.303c0-1.989-0.79-3.897-2.197-5.304
				L189.715,87.24c-1.406-1.406-3.313-2.196-5.303-2.196c-1.989,0-3.897,0.791-5.304,2.197l-2.319,2.32l-12.297-12.296
				c0.874-2.183,1.369-4.558,1.369-7.049c-0.002-10.49-8.536-19.024-19.025-19.024c-5.082,0-9.859,1.979-13.453,5.572
				c-3.594,3.594-5.573,8.372-5.572,13.453c-0.001,5.081,1.979,9.859,5.572,13.452c3.594,3.593,8.371,5.572,13.453,5.572
				c2.491,0,4.865-0.495,7.048-1.369l4.841,4.841c-4.042-0.938-8.216-1.435-12.468-1.435c-11.77,0-22.969,3.7-32.278,10.541
				l-2.829-2.828c-1.407-1.407-3.314-2.197-5.304-2.197c-1.989,0-3.896,0.791-5.303,2.197l-15.247,15.248
				c-2.928,2.929-2.928,7.677,0,10.606l15.246,15.247c1.465,1.464,3.384,2.197,5.304,2.197c1.919,0,3.838-0.732,5.303-2.196
				l15.25-15.247c1.407-1.407,2.197-3.314,2.197-5.304c0-1.989-0.79-3.897-2.197-5.303l-1.636-1.636
				c6.35-4.112,13.75-6.325,21.494-6.325c5.453,0,10.734,1.101,15.602,3.183c0.303,1.332,0.965,2.599,2.002,3.636l15.248,15.248
				c1.029,1.029,2.285,1.689,3.605,1.995c5.106,11.969,4.07,25.95-3.116,37.097l-1.685-1.685c-2.929-2.929-7.678-2.929-10.606,0
				L152.058,181c-1.407,1.407-2.197,3.314-2.197,5.304c0,1.989,0.79,3.897,2.197,5.303l15.249,15.246
				c1.465,1.464,3.384,2.196,5.303,2.196s3.839-0.732,5.304-2.197l15.247-15.247c2.929-2.929,2.929-7.678,0-10.606l-2.774-2.774
				c9.602-13.112,12.617-29.567,9.064-44.786l4.884,4.883c-0.875,2.183-1.369,4.557-1.369,7.048
				c0,10.491,8.534,19.025,19.023,19.025c5.082,0,9.859-1.979,13.453-5.573s5.572-8.372,5.571-13.453
				c0-10.489-8.534-19.024-19.025-19.025C219.497,126.342,217.122,126.837,214.941,127.711z M146.837,74.239
				c-1.076,0-2.086-0.419-2.847-1.179c-0.76-0.76-1.178-1.77-1.178-2.845c0-1.075,0.418-2.085,1.178-2.845
				c0.76-0.761,1.771-1.179,2.847-1.179c2.219,0,4.025,1.806,4.025,4.025C150.861,72.434,149.056,74.239,146.837,74.239z
				 M105.847,124.18l-4.64-4.641l4.586-4.585c0.355,1.074,0.954,2.086,1.809,2.941c0.812,0.812,1.766,1.39,2.779,1.752
				L105.847,124.18z M172.609,190.941l-4.641-4.641l4.56-4.559c0.359,1.044,0.947,2.028,1.781,2.861
				c0.833,0.833,1.815,1.42,2.859,1.78L172.609,190.941z M187.159,109.687c-0.723-0.814-1.465-1.617-2.245-2.397
				c-0.777-0.778-1.581-1.52-2.395-2.245l1.893-1.895l4.643,4.642L187.159,109.687z M226.014,145.369
				c0,1.075-0.418,2.085-1.179,2.846c-0.76,0.76-1.77,1.179-2.846,1.179c-2.219,0-4.023-1.806-4.023-4.025
				c0-2.22,1.805-4.025,4.021-4.025C224.207,141.343,226.014,143.148,226.014,145.369z"/>
			<path d="M171.606,237.363c-3.043-2.647-7.594-3.971-13.652-3.971h-16.606v47.979h12.964v-15.917h3.643
				c5.818,0,10.309-1.46,13.471-4.381c3.162-2.92,4.742-7.061,4.742-12.421C176.167,243.773,174.645,240.01,171.606,237.363z
				 M161.317,253.247c-1.148,1.094-2.697,1.641-4.645,1.641h-2.361v-11.026h3.346c3.588,0,5.383,1.619,5.383,4.857
				C163.04,250.643,162.466,252.153,161.317,253.247z"/>
			<path d="M204.164,252.754c-4.311-1.969-6.952-3.326-7.926-4.07c-0.974-0.743-1.46-1.586-1.46-2.527
				c-0.003-0.874,0.379-1.607,1.146-2.198c0.766-0.591,1.99-0.886,3.676-0.886c3.26,0,7.132,1.029,11.617,3.085l3.971-10.009
				c-5.163-2.297-10.229-3.446-15.194-3.446c-5.623,0-10.042,1.236-13.259,3.708c-3.216,2.473-4.823,5.918-4.823,10.337
				c0,2.363,0.377,4.409,1.132,6.137c0.755,1.728,1.914,3.26,3.479,4.595c1.565,1.335,3.91,2.713,7.039,4.135
				c3.457,1.554,5.584,2.582,6.384,3.085c0.798,0.503,1.378,1.001,1.739,1.493c0.36,0.492,0.541,1.067,0.541,1.723
				c0,1.05-0.448,1.909-1.346,2.576c-0.897,0.668-2.309,1.001-4.233,1.001c-2.231,0-4.682-0.355-7.35-1.067
				c-2.67-0.71-5.24-1.701-7.713-2.97v11.552c2.341,1.116,4.595,1.898,6.761,2.346c2.166,0.448,4.846,0.673,8.04,0.673
				c3.829,0,7.165-0.64,10.01-1.92c2.844-1.28,5.021-3.073,6.53-5.382c1.51-2.308,2.265-4.95,2.265-7.925
				c0-3.238-0.804-5.924-2.412-8.057C211.171,256.61,208.299,254.614,204.164,252.754z"/>
		</g>
	</g>
</g>
<g>
</g>
<g>
</g>
<g>
</g>
<g>
</g>
<g>
</g>
<g>
</g>
<g>
</g>
<g>
</g>
<g>
</g>
<g>
</g>
<g>
</g>
<g>
</g>
<g>
</g>
<g>
</g>
<g>
</g>
</svg>
