<?xml version="1.0" encoding="iso-8859-1"?>
<!-- Generator: Adobe Illustrator 19.0.0, SVG Export Plug-In . SVG Version: 6.00 Build 0)  -->
<svg version="1.1" id="Layer_1" xmlns="http://www.w3.org/2000/svg" xmlns:xlink="http://www.w3.org/1999/xlink" x="0px" y="0px"
	 viewBox="0 0 318.188 318.188" style="enable-background:new 0 0 318.188 318.188;" xml:space="preserve">
<g>
	<g>
		<g>
			<path d="M283.149,52.722L232.624,2.197C231.218,0.79,229.311,0,227.321,0H40.342c-4.142,0-7.5,3.358-7.5,7.5v303.188
				c0,4.142,3.358,7.5,7.5,7.5h237.504c4.142,0,7.5-3.358,7.5-7.5V58.025C285.346,56.036,284.556,54.129,283.149,52.722z
				 M234.821,25.606l24.918,24.919h-24.918V25.606z M47.842,15h171.979v10.263H47.842V15z M270.346,303.188H47.842V40.263h171.979
				v17.763c0,1.575,0.487,3.034,1.316,4.241c-0.878-0.361-1.838-0.563-2.846-0.563H98.402c-4.142,0-7.5,3.358-7.5,7.5v119.89
				c0,4.142,3.358,7.5,7.5,7.5h119.89c4.142,0,7.5-3.358,7.5-7.5V69.204c0-1.575-0.487-3.034-1.316-4.241
				c0.878,0.36,1.838,0.563,2.846,0.563h43.024V303.188z M210.792,76.704v104.89h-104.89V76.704H210.792z"/>
			<path d="M128.105,263.289L128.105,263.289h8.566v7.515c-1.62,0.373-3.392,0.558-5.316,0.558c-3.523,0-6.219-1.176-8.09-3.528
				c-1.871-2.352-2.806-5.77-2.806-10.256c0-4.572,1.034-8.089,3.101-10.551c2.067-2.461,4.994-3.692,8.779-3.692
				c4.135,0,7.931,0.854,11.388,2.56l4.102-10.174c-1.992-0.874-4.327-1.597-7.007-2.166c-2.68-0.568-5.53-0.853-8.549-0.853
				c-7.964,0-14.155,2.155-18.575,6.465c-4.419,4.311-6.629,10.338-6.629,18.083c0,7.942,2.018,14.058,6.055,18.345
				c4.037,4.288,9.752,6.432,17.147,6.432c6.738,0,12.919-0.962,18.542-2.888v-25.86h-20.708V263.289z"/>
			<path d="M116.75,132.047c0.007,0.018,0.016,0.036,0.023,0.054l0.022,0.05c0.011,0.026,0.026,0.049,0.038,0.074
				c0.101,0.225,0.213,0.443,0.336,0.655c0.041,0.072,0.084,0.141,0.128,0.211c0.106,0.171,0.218,0.336,0.336,0.497
				c0.052,0.071,0.103,0.143,0.158,0.212c0.137,0.173,0.282,0.338,0.433,0.498c0.039,0.041,0.075,0.086,0.115,0.126
				c0.193,0.195,0.397,0.379,0.61,0.552c0.052,0.042,0.107,0.079,0.161,0.12c0.168,0.129,0.341,0.252,0.52,0.367
				c0.071,0.045,0.143,0.088,0.215,0.13c0.176,0.105,0.357,0.202,0.542,0.292c0.069,0.033,0.136,0.068,0.206,0.099
				c0.225,0.102,0.456,0.192,0.692,0.271c0.031,0.011,0.061,0.024,0.092,0.034c0.275,0.088,0.555,0.16,0.842,0.216
				c0.01,0.002,0.02,0.006,0.03,0.008c0.106,0.02,0.213,0.03,0.32,0.046c0.122,0.018,0.241,0.04,0.365,0.052
				c0.245,0.024,0.489,0.037,0.732,0.037c0.248,0,0.496-0.013,0.742-0.038c0.148-0.015,0.293-0.041,0.438-0.064
				c0.094-0.015,0.19-0.024,0.284-0.043c0.174-0.035,0.343-0.081,0.513-0.127c0.064-0.018,0.129-0.03,0.192-0.05
				c0.172-0.052,0.339-0.115,0.505-0.178c0.061-0.023,0.122-0.042,0.182-0.066c0.158-0.065,0.31-0.14,0.462-0.215
				c0.066-0.033,0.135-0.063,0.201-0.097c0.137-0.073,0.269-0.155,0.401-0.237c0.077-0.047,0.155-0.09,0.23-0.14
				c0.12-0.08,0.233-0.167,0.348-0.253c0.081-0.061,0.164-0.117,0.242-0.182c0.112-0.091,0.217-0.191,0.323-0.289
				c0.067-0.062,0.139-0.118,0.205-0.183l10.525-10.388c2.948-2.91,2.979-7.658,0.069-10.606c-0.657-0.666-1.41-1.174-2.211-1.542
				c4.988-6.088,12.561-9.98,21.028-9.98c9.674,0,18.697,5.21,23.548,13.596c2.074,3.586,6.662,4.811,10.247,2.737
				c3.586-2.074,4.811-6.662,2.737-10.247c-7.523-13.007-21.521-21.086-36.533-21.086c-15.848,0-29.676,8.789-36.882,21.746
				c-2.023-1.246-4.602-1.517-6.941-0.494c-3.796,1.659-5.528,6.08-3.87,9.875L116.75,132.047z"/>
			<path d="M195.315,122.007c-0.274-0.088-0.555-0.16-0.842-0.216c-0.01-0.002-0.02-0.006-0.03-0.008
				c-0.043-0.008-0.087-0.009-0.131-0.017c-0.223-0.039-0.447-0.068-0.676-0.087c-0.097-0.008-0.194-0.011-0.292-0.015
				c-0.106-0.004-0.21-0.016-0.317-0.016c-0.083,0-0.164,0.01-0.246,0.013c-0.101,0.003-0.2,0.007-0.3,0.015
				c-0.201,0.015-0.399,0.039-0.596,0.068c-0.077,0.012-0.155,0.021-0.231,0.036c-0.268,0.05-0.532,0.111-0.789,0.189
				c-0.006,0.001-0.012,0.002-0.018,0.004c-0.279,0.085-0.551,0.187-0.815,0.302c-0.04,0.017-0.078,0.038-0.117,0.057
				c-0.212,0.097-0.419,0.203-0.621,0.318c-0.072,0.041-0.142,0.085-0.212,0.129c-0.17,0.105-0.335,0.217-0.496,0.336
				c-0.071,0.052-0.142,0.103-0.211,0.157c-0.184,0.147-0.362,0.302-0.532,0.465c-0.027,0.026-0.058,0.047-0.085,0.074
				l-10.525,10.388c-2.948,2.91-2.979,7.658-0.069,10.606c0.657,0.666,1.41,1.174,2.211,1.542c-4.988,6.088-12.562,9.98-21.028,9.98
				c-9.674,0-18.697-5.21-23.548-13.596c-2.074-3.586-6.663-4.811-10.247-2.737c-3.586,2.074-4.811,6.662-2.737,10.247
				c7.523,13.007,21.521,21.086,36.533,21.086c15.85,0,29.679-8.791,36.885-21.749c1.178,0.726,2.541,1.127,3.94,1.127
				c1.002,0,2.022-0.202,2.999-0.629c3.796-1.659,5.528-6.08,3.87-9.876l-6.096-13.95c-0.007-0.018-0.016-0.036-0.024-0.054
				l-0.022-0.05c-0.011-0.026-0.026-0.049-0.038-0.074c-0.101-0.225-0.213-0.443-0.335-0.655c-0.041-0.072-0.084-0.141-0.128-0.211
				c-0.105-0.17-0.218-0.335-0.336-0.497c-0.052-0.071-0.104-0.143-0.158-0.211c-0.137-0.173-0.282-0.338-0.433-0.498
				c-0.039-0.041-0.075-0.086-0.115-0.126c-0.193-0.195-0.397-0.379-0.61-0.552c-0.052-0.042-0.107-0.079-0.161-0.12
				c-0.168-0.129-0.341-0.252-0.52-0.367c-0.071-0.045-0.143-0.088-0.215-0.13c-0.176-0.105-0.357-0.202-0.542-0.293
				c-0.069-0.033-0.136-0.068-0.206-0.099c-0.225-0.102-0.456-0.192-0.692-0.271C195.376,122.03,195.347,122.017,195.315,122.007z"
				/>
			<polygon points="181.993,281.371 194.759,281.371 194.759,263.354 209.133,263.354 209.133,252.951 194.759,252.951 
				194.759,243.795 210.348,243.795 210.348,233.392 181.993,233.392 			"/>
			<rect x="158.594" y="233.392" width="13.028" height="47.979"/>
		</g>
	</g>
</g>
<g>
</g>
<g>
</g>
<g>
</g>
<g>
</g>
<g>
</g>
<g>
</g>
<g>
</g>
<g>
</g>
<g>
</g>
<g>
</g>
<g>
</g>
<g>
</g>
<g>
</g>
<g>
</g>
<g>
</g>
</svg>
