<?xml version="1.0" encoding="iso-8859-1"?>
<!-- Generator: Adobe Illustrator 19.0.0, SVG Export Plug-In . SVG Version: 6.00 Build 0)  -->
<svg version="1.1" id="Layer_1" xmlns="http://www.w3.org/2000/svg" xmlns:xlink="http://www.w3.org/1999/xlink" x="0px" y="0px"
	 viewBox="0 0 318.188 318.188" style="enable-background:new 0 0 318.188 318.188;" xml:space="preserve">
<g>
	<g>
		<g>
			<path d="M213.323,141.39c0-11.587-3.384-20.61-10.151-27.07c-6.768-6.46-16.271-9.69-28.506-9.69h-23.532v74.956h21.225
				c13.262,0,23.404-3.281,30.43-9.844C209.812,163.179,213.323,153.729,213.323,141.39z M173.846,166.46h-6.819v-48.809h8.46
				c14.218,0,21.328,8.049,21.328,24.148C196.814,158.241,189.157,166.46,173.846,166.46z"/>
			<rect x="110.644" y="87.675" width="19.488" height="91.91"/>
			<path d="M283.149,52.722L232.625,2.197C231.218,0.79,229.311,0,227.321,0H40.342c-4.143,0-7.5,3.358-7.5,7.5v303.188
				c0,4.142,3.357,7.5,7.5,7.5h237.504c4.143,0,7.5-3.358,7.5-7.5V58.025C285.346,56.036,284.556,54.129,283.149,52.722z
				 M234.821,25.606l24.918,24.919h-24.918V25.606z M47.842,15h171.98v10.263H47.842V15z M270.346,303.188H47.842V40.263h171.98
				v17.763c0,4.142,3.357,7.5,7.5,7.5h43.024V303.188z"/>
			<path d="M132.011,255.084h0.001c0,2.932,0.153,6.816,0.46,11.65h-0.197l-17.459-33.343H97.882v47.979h11.486v-21.627
				c0-2.8-0.209-6.859-0.624-12.175h0.296l17.523,33.802h17v-47.979h-11.552V255.084z"/>
			<path d="M203.259,233.392v47.979h15.522c7.985,0,14.183-2.166,18.591-6.498c4.408-4.331,6.613-10.501,6.613-18.509
				c0-7.438-2.096-13.127-6.285-17.065c-4.189-3.938-10.135-5.907-17.836-5.907H203.259z M227.921,247.044
				c1.739,2.123,2.609,5.382,2.609,9.78c0,4.704-0.919,8.199-2.757,10.485c-1.838,2.287-4.726,3.43-8.664,3.43h-2.888v-26.877h3.773
				C223.54,243.861,226.182,244.922,227.921,247.044z"/>
			<rect x="74.482" y="233.392" width="13.028" height="47.979"/>
			<path d="M170.54,233.392h-16.605v47.979h15.523c7.985,0,14.183-2.166,18.591-6.498c4.408-4.331,6.613-10.501,6.613-18.509
				c0-7.438-2.096-13.127-6.285-17.065C184.187,235.361,178.241,233.392,170.54,233.392z M178.449,267.309
				c-1.838,2.287-4.726,3.43-8.664,3.43h-2.888v-26.877h3.773c3.545,0,6.187,1.061,7.926,3.183c1.739,2.123,2.609,5.382,2.609,9.78
				C181.206,261.528,180.287,265.023,178.449,267.309z"/>
		</g>
	</g>
</g>
<g>
</g>
<g>
</g>
<g>
</g>
<g>
</g>
<g>
</g>
<g>
</g>
<g>
</g>
<g>
</g>
<g>
</g>
<g>
</g>
<g>
</g>
<g>
</g>
<g>
</g>
<g>
</g>
<g>
</g>
</svg>
