<?xml version="1.0" encoding="iso-8859-1"?>
<!-- Generator: Adobe Illustrator 19.0.0, SVG Export Plug-In . SVG Version: 6.00 Build 0)  -->
<svg version="1.1" id="Layer_1" xmlns="http://www.w3.org/2000/svg" xmlns:xlink="http://www.w3.org/1999/xlink" x="0px" y="0px"
	 viewBox="0 0 318.188 318.188" style="enable-background:new 0 0 318.188 318.188;" xml:space="preserve">
<g>
	<g>
		<g>
			<rect x="105.659" y="233.392" width="13.029" height="47.979"/>
			<path d="M283.149,52.723L232.624,2.197C231.218,0.79,229.311,0,227.321,0H40.342c-4.142,0-7.5,3.358-7.5,7.5v303.188
				c0,4.142,3.358,7.5,7.5,7.5h237.504c4.142,0,7.5-3.358,7.5-7.5V58.025C285.346,56.036,284.556,54.129,283.149,52.723z
				 M234.821,25.606l24.918,24.919h-24.918V25.606z M47.842,15h171.979v10.263H47.842V15z M47.842,303.188V40.263h171.979v17.763
				c0,4.143,3.358,7.5,7.5,7.5h43.024v237.662H47.842z"/>
			<path d="M149.405,252.755c-4.311-1.969-6.953-3.325-7.926-4.069c-0.974-0.743-1.46-1.586-1.46-2.526
				c0-0.877,0.382-1.61,1.148-2.201c0.766-0.591,1.991-0.887,3.675-0.887c3.26,0,7.133,1.029,11.617,3.086l3.971-10.01
				c-5.162-2.297-10.229-3.445-15.194-3.445c-5.623,0-10.042,1.236-13.258,3.708c-3.216,2.473-4.824,5.919-4.824,10.337
				c0,2.363,0.377,4.409,1.132,6.137c0.755,1.729,1.914,3.261,3.479,4.596c1.564,1.334,3.911,2.713,7.04,4.135
				c3.457,1.553,5.584,2.582,6.383,3.084c0.798,0.504,1.378,1.002,1.739,1.494c0.361,0.492,0.541,1.066,0.541,1.723
				c0,1.05-0.447,1.908-1.345,2.576c-0.898,0.668-2.309,1.001-4.234,1.001c-2.232,0-4.682-0.355-7.351-1.067
				c-2.669-0.71-5.24-1.7-7.712-2.969v11.551c2.341,1.116,4.594,1.898,6.76,2.347c2.166,0.448,4.846,0.673,8.04,0.673
				c3.828,0,7.165-0.64,10.009-1.92c2.844-1.279,5.021-3.073,6.531-5.382c1.51-2.308,2.264-4.95,2.264-7.925
				c0-3.238-0.803-5.924-2.412-8.058C156.411,256.611,153.539,254.614,149.405,252.755z"/>
			<path d="M157.804,62.741c-36.89,0-66.901,30.012-66.901,66.901c0,36.89,30.012,66.901,66.901,66.901
				c36.89,0,66.901-30.012,66.901-66.901C224.705,92.753,194.693,62.741,157.804,62.741z M202.99,104.157l-24.491,10.538
				c-0.619-0.854-1.288-1.669-2.004-2.439l17.413-19.848C197.467,95.86,200.531,99.814,202.99,104.157z M209.705,129.643
				c0,28.618-23.283,51.901-51.901,51.901c-28.619,0-51.901-23.283-51.901-51.901s23.283-51.901,51.901-51.901
				c8.611,0,16.732,2.12,23.888,5.847l-18.499,21.087c-1.738-0.375-3.54-0.577-5.389-0.577c-14.085,0-25.544,11.459-25.544,25.545
				s11.459,25.545,25.544,25.545c14.086,0,25.545-11.459,25.545-25.545c0-0.233-0.011-0.464-0.018-0.695l25.078-10.791
				C209.247,121.854,209.705,125.694,209.705,129.643z M168.348,129.643c0,5.814-4.73,10.545-10.545,10.545
				c-5.814,0-10.544-4.73-10.544-10.545c0-5.814,4.73-10.545,10.544-10.545C163.618,119.098,168.348,123.828,168.348,129.643z"/>
			<path d="M189.475,232.637c-7.613,0-13.417,2.106-17.409,6.318c-3.993,4.211-5.989,10.31-5.989,18.295
				c0,8.073,2.007,14.222,6.021,18.443c4.015,4.223,9.785,6.334,17.311,6.334c7.636,0,13.434-2.1,17.394-6.301
				c3.96-4.201,5.94-10.338,5.94-18.41c0-8.096-1.97-14.233-5.907-18.411C202.897,234.727,197.11,232.637,189.475,232.637z
				 M196.711,267.85c-1.586,2.254-4.02,3.381-7.302,3.381c-6.454,0-9.681-4.639-9.681-13.914c0-9.364,3.249-14.047,9.746-14.047
				c3.194,0,5.596,1.145,7.204,3.43c1.607,2.287,2.412,5.825,2.412,10.617C199.091,262.086,198.297,265.598,196.711,267.85z"/>
		</g>
	</g>
</g>
<g>
</g>
<g>
</g>
<g>
</g>
<g>
</g>
<g>
</g>
<g>
</g>
<g>
</g>
<g>
</g>
<g>
</g>
<g>
</g>
<g>
</g>
<g>
</g>
<g>
</g>
<g>
</g>
<g>
</g>
</svg>
