<?xml version="1.0" encoding="iso-8859-1"?>
<!-- Generator: Adobe Illustrator 19.0.0, SVG Export Plug-In . SVG Version: 6.00 Build 0)  -->
<svg version="1.1" id="Layer_1" xmlns="http://www.w3.org/2000/svg" xmlns:xlink="http://www.w3.org/1999/xlink" x="0px" y="0px"
	 viewBox="0 0 318.188 318.188" style="enable-background:new 0 0 318.188 318.188;" xml:space="preserve">
<g>
	<g>
		<g>
			<path d="M104.824,277.794h-0.002c0,3.129-0.46,5.338-1.378,6.63c-0.919,1.29-2.451,1.936-4.594,1.936
				c-0.919,0-1.772-0.082-2.56-0.246c-0.788-0.164-1.531-0.313-2.231-0.443v10.075c2.123,0.46,4.365,0.689,6.728,0.689
				c5.688,0,9.955-1.669,12.799-5.005s4.266-8.254,4.266-14.752v-43.286h-13.028V277.794z"/>
			<path d="M283.149,52.723L232.625,2.197C231.218,0.79,229.311,0,227.321,0H40.342c-4.142,0-7.5,3.358-7.5,7.5v303.188
				c0,4.142,3.358,7.5,7.5,7.5h237.504c4.143,0,7.5-3.358,7.5-7.5V58.025C285.346,56.036,284.556,54.129,283.149,52.723z
				 M234.821,25.606l24.918,24.919h-24.918V25.606z M47.842,15h171.98v10.263H47.842V15z M270.346,303.188H47.842V40.263h171.98
				v17.763c0,4.143,3.357,7.5,7.5,7.5h43.024V303.188z"/>
			<path d="M221.753,109.096c0.516-2.228-0.013-4.568-1.436-6.358c-1.423-1.789-3.585-2.832-5.871-2.832H90.726
				c-2.286,0-4.448,1.043-5.871,2.833c-1.423,1.789-1.952,4.13-1.437,6.358c4.682,20.235,12.334,35.308,23.128,45.455
				c-2.937,1.017-5.049,3.799-5.049,7.082c0,4.143,3.358,7.5,7.5,7.5h87.178c4.143,0,7.5-3.357,7.5-7.5
				c0-3.283-2.112-6.065-5.049-7.082c1.031-0.97,2.035-1.982,3.01-3.043h16.494c10.235,0,18.563-8.327,18.563-18.563
				c0-9.472-7.136-17.295-16.311-18.412C220.862,112.761,221.323,110.955,221.753,109.096z M167.573,154.133h-29.975
				c-18.044-3.779-29.987-16.338-37.096-39.228H204.67C197.562,137.795,185.617,150.354,167.573,154.133z M221.692,132.945
				c0,1.965-1.598,3.563-3.563,3.563h-6.119c1.184-2.261,2.299-4.633,3.342-7.125h2.777
				C220.095,129.383,221.692,130.98,221.692,132.945z"/>
			<path d="M212.3,247.568c0-9.451-6.52-14.177-19.559-14.177h-15.72v47.979h12.963v-17.459h3.281l10.174,17.459h14.702
				l-13.98-20.904C209.587,257.426,212.3,253.127,212.3,247.568z M192.412,254.166h-2.428v-10.962h2.56
				c4.441,0,6.662,1.652,6.662,4.956C199.206,252.164,196.941,254.166,192.412,254.166z"/>
			<path d="M138.69,233.195l-15.654,48.176h14.243l2.429-8.992h15.588l2.362,8.992h14.178l-15.851-48.176H138.69z M142.398,261.746
				c1.991-7.525,3.276-12.568,3.856-15.129c0.58-2.559,0.968-4.397,1.166-5.514c0.218,1.204,0.673,3.195,1.361,5.973
				c0.689,2.779,1.274,5.043,1.756,6.794l2.067,7.876H142.398z"/>
		</g>
	</g>
</g>
<g>
</g>
<g>
</g>
<g>
</g>
<g>
</g>
<g>
</g>
<g>
</g>
<g>
</g>
<g>
</g>
<g>
</g>
<g>
</g>
<g>
</g>
<g>
</g>
<g>
</g>
<g>
</g>
<g>
</g>
</svg>
