<?xml version="1.0" encoding="iso-8859-1"?>
<!-- Generator: Adobe Illustrator 19.0.0, SVG Export Plug-In . SVG Version: 6.00 Build 0)  -->
<svg version="1.1" id="Layer_1" xmlns="http://www.w3.org/2000/svg" xmlns:xlink="http://www.w3.org/1999/xlink" x="0px" y="0px"
	 viewBox="0 0 318.188 318.188" style="enable-background:new 0 0 318.188 318.188;" xml:space="preserve">
<g>
	<g>
		<g>
			<path d="M283.149,52.722L232.625,2.197C231.218,0.79,229.311,0,227.321,0H40.342c-4.142,0-7.5,3.358-7.5,7.5v303.188
				c0,4.142,3.358,7.5,7.5,7.5h237.504c4.143,0,7.5-3.358,7.5-7.5V58.025C285.346,56.036,284.556,54.129,283.149,52.722z
				 M234.821,25.607l24.918,24.919h-24.918V25.607z M47.842,15h171.98v10.263H47.842V15z M270.346,303.188H47.842V40.263h171.98
				v17.763c0,1.574,0.487,3.034,1.316,4.24c-0.878-0.36-1.838-0.562-2.846-0.562H98.402c-4.142,0-7.5,3.358-7.5,7.5v119.89
				c0,4.142,3.358,7.5,7.5,7.5h119.89c4.143,0,7.5-3.358,7.5-7.5V69.204c0-1.575-0.487-3.034-1.316-4.241
				c0.878,0.36,1.838,0.563,2.846,0.563h43.024V303.188z M198.747,126.355c-1.351-2.279-3.803-3.677-6.452-3.677
				c-2.65,0-5.102,1.397-6.452,3.676l-17.359,29.293l-32.288-54.487c-1.35-2.279-3.803-3.676-6.452-3.676s-5.102,1.397-6.452,3.676
				l-17.389,29.344v-53.8h104.89v69.978L198.747,126.355z M210.792,176.105v5.489h-104.89v-21.667l23.841-40.231l32.288,54.487
				c1.351,2.279,3.803,3.676,6.452,3.676c2.648,0,5.102-1.397,6.452-3.676l17.359-29.293L210.792,176.105z"/>
			<path d="M159.513,237.363c-3.041-2.647-7.592-3.971-13.652-3.971h-16.606v47.979h12.963v-15.917h3.643
				c5.82,0,10.31-1.46,13.472-4.381c3.16-2.92,4.742-7.061,4.742-12.421C164.075,243.773,162.554,240.01,159.513,237.363z
				 M149.224,253.247c-1.149,1.094-2.695,1.641-4.643,1.641h-2.363v-11.026h3.348c3.588,0,5.383,1.619,5.383,4.857
				C150.948,250.643,150.374,252.153,149.224,253.247z"/>
			<path d="M190.983,263.289L190.983,263.289h8.566v7.515c-1.619,0.372-3.392,0.558-5.316,0.558c-3.523,0-6.219-1.176-8.09-3.528
				c-1.87-2.352-2.806-5.771-2.806-10.256c0-4.572,1.033-8.089,3.102-10.551c2.067-2.461,4.993-3.692,8.778-3.692
				c4.135,0,7.931,0.854,11.388,2.56l4.102-10.174c-1.991-0.874-4.327-1.597-7.007-2.166c-2.681-0.568-5.53-0.853-8.549-0.853
				c-7.964,0-14.156,2.155-18.575,6.465c-4.419,4.311-6.629,10.338-6.629,18.083c0,7.942,2.018,14.058,6.055,18.345
				c4.037,4.288,9.752,6.432,17.147,6.432c6.738,0,12.919-0.962,18.542-2.888v-25.86h-20.708V263.289z"/>
			<path d="M105.858,277.794h-0.002c0,3.129-0.46,5.338-1.378,6.629c-0.919,1.29-2.451,1.936-4.594,1.936
				c-0.919,0-1.772-0.082-2.56-0.246c-0.788-0.164-1.531-0.312-2.231-0.443v10.075c2.123,0.459,4.365,0.689,6.728,0.689
				c5.688,0,9.955-1.669,12.799-5.005s4.266-8.253,4.266-14.751v-43.287h-13.028V277.794z"/>
		</g>
	</g>
</g>
<g>
</g>
<g>
</g>
<g>
</g>
<g>
</g>
<g>
</g>
<g>
</g>
<g>
</g>
<g>
</g>
<g>
</g>
<g>
</g>
<g>
</g>
<g>
</g>
<g>
</g>
<g>
</g>
<g>
</g>
</svg>
