<?xml version="1.0" encoding="iso-8859-1"?>
<!-- Generator: Adobe Illustrator 19.0.0, SVG Export Plug-In . SVG Version: 6.00 Build 0)  -->
<svg version="1.1" id="Layer_1" xmlns="http://www.w3.org/2000/svg" xmlns:xlink="http://www.w3.org/1999/xlink" x="0px" y="0px"
	 viewBox="0 0 318.188 318.188" style="enable-background:new 0 0 318.188 318.188;" xml:space="preserve">
<g>
	<g>
		<g>
			<path d="M126.923,193.689c4.77-5.465,7.156-13.416,7.156-23.854V86.17H115.12v83.789c0,5.504-0.897,9.551-2.691,12.141
				c-1.795,2.588-4.771,3.883-8.93,3.883c-2.691,0-5.666-0.408-8.929-1.223v15.779c3.18,0.896,6.911,1.346,11.192,1.346
				C115.099,201.885,122.153,199.152,126.923,193.689z"/>
			<path d="M283.149,52.723L232.625,2.197C231.218,0.79,229.311,0,227.321,0H40.342c-4.142,0-7.5,3.358-7.5,7.5v303.188
				c0,4.142,3.358,7.5,7.5,7.5h237.504c4.143,0,7.5-3.358,7.5-7.5V58.025C285.346,56.036,284.556,54.129,283.149,52.723z
				 M234.821,25.606l24.918,24.919h-24.918V25.606z M47.842,15h171.98v10.263H47.842V15z M270.346,303.188H47.842V40.263h171.98
				v17.763c0,4.143,3.357,7.5,7.5,7.5h43.024V303.188z"/>
			<path d="M187.532,123.967c-6.32-3.017-10.326-5.107-12.018-6.27c-1.692-1.162-2.926-2.363-3.699-3.607
				c-0.775-1.244-1.162-2.701-1.162-4.373c0-2.691,0.957-4.872,2.874-6.545c1.916-1.671,4.668-2.508,8.257-2.508
				c3.017,0,6.085,0.389,9.204,1.162c3.119,0.775,7.063,2.141,11.835,4.098l6.115-14.738c-4.607-1.998-9.021-3.548-13.24-4.648
				c-4.221-1.102-8.654-1.651-13.303-1.651c-9.46,0-16.871,2.263-22.232,6.788c-5.361,4.526-8.042,10.744-8.042,18.654
				c0,4.199,0.815,7.869,2.446,11.009s3.812,5.892,6.545,8.257c2.73,2.365,6.828,4.831,12.293,7.4
				c5.83,2.773,9.693,4.791,11.59,6.055c1.896,1.264,3.332,2.578,4.311,3.944c0.98,1.366,1.469,2.927,1.469,4.679
				c0,3.141-1.111,5.504-3.334,7.095c-2.223,1.59-5.412,2.386-9.57,2.386c-3.467,0-7.289-0.551-11.469-1.652
				c-4.18-1.101-9.286-2.996-15.32-5.688v17.614c7.34,3.589,15.779,5.382,25.32,5.382c10.356,0,18.439-2.324,24.25-6.973
				c5.811-4.648,8.715-11.008,8.715-19.082c0-5.83-1.549-10.753-4.647-14.77C201.62,131.969,195.891,127.963,187.532,123.967z"/>
			<path d="M132.57,277.794L132.57,277.794c-0.001,3.129-0.461,5.338-1.379,6.63c-0.919,1.29-2.451,1.936-4.594,1.936
				c-0.919,0-1.772-0.082-2.56-0.246c-0.788-0.164-1.531-0.313-2.232-0.443v10.075c2.123,0.46,4.365,0.689,6.728,0.689
				c5.688,0,9.955-1.669,12.799-5.005s4.266-8.254,4.266-14.752v-43.286H132.57V277.794z"/>
			<path d="M176.317,252.755c-4.311-1.969-6.952-3.325-7.926-4.069c-0.974-0.743-1.46-1.586-1.46-2.526
				c-0.001-0.877,0.381-1.61,1.147-2.201s1.99-0.887,3.676-0.887c3.26,0,7.132,1.029,11.617,3.086l3.971-10.01
				c-5.163-2.297-10.229-3.445-15.194-3.445c-5.623,0-10.042,1.236-13.259,3.708c-3.216,2.473-4.823,5.919-4.823,10.337
				c0,2.363,0.377,4.409,1.132,6.137c0.755,1.729,1.914,3.261,3.479,4.596c1.564,1.334,3.91,2.713,7.039,4.135
				c3.457,1.553,5.584,2.582,6.384,3.084c0.798,0.504,1.378,1.002,1.739,1.494c0.36,0.492,0.541,1.066,0.541,1.723
				c0,1.05-0.448,1.908-1.346,2.576c-0.897,0.668-2.309,1.001-4.233,1.001c-2.231,0-4.682-0.355-7.351-1.067
				c-2.67-0.71-5.24-1.7-7.713-2.969v11.551c2.341,1.116,4.595,1.898,6.761,2.347c2.166,0.448,4.846,0.673,8.04,0.673
				c3.829,0,7.165-0.64,10.01-1.92c2.844-1.279,5.022-3.073,6.53-5.382c1.51-2.308,2.265-4.95,2.265-7.925
				c0-3.238-0.804-5.924-2.412-8.058C183.324,256.611,180.451,254.614,176.317,252.755z"/>
		</g>
	</g>
</g>
<g>
</g>
<g>
</g>
<g>
</g>
<g>
</g>
<g>
</g>
<g>
</g>
<g>
</g>
<g>
</g>
<g>
</g>
<g>
</g>
<g>
</g>
<g>
</g>
<g>
</g>
<g>
</g>
<g>
</g>
</svg>
