<?xml version="1.0" encoding="iso-8859-1"?>
<!-- Generator: Adobe Illustrator 19.0.0, SVG Export Plug-In . SVG Version: 6.00 Build 0)  -->
<svg version="1.1" id="Layer_1" xmlns="http://www.w3.org/2000/svg" xmlns:xlink="http://www.w3.org/1999/xlink" x="0px" y="0px"
	 viewBox="0 0 318.188 318.188" style="enable-background:new 0 0 318.188 318.188;" xml:space="preserve">
<g>
	<g>
		<g>
			<path d="M283.149,52.723L232.624,2.197C231.218,0.79,229.311,0,227.321,0H40.342c-4.142,0-7.5,3.358-7.5,7.5v303.188
				c0,4.142,3.358,7.5,7.5,7.5h237.504c4.142,0,7.5-3.358,7.5-7.5V58.025C285.346,56.036,284.556,54.129,283.149,52.723z
				 M234.821,25.606l24.918,24.919h-24.918V25.606z M47.842,15h171.979v10.263H47.842V15z M270.346,303.188H47.842V40.263h171.98
				v17.763c0,4.143,3.358,7.5,7.5,7.5h43.024V303.188z"/>
			<path d="M195.276,86.863c-0.027-0.208-0.059-0.414-0.102-0.615c-0.015-0.066-0.034-0.13-0.05-0.195
				c-0.047-0.191-0.098-0.381-0.16-0.567c-0.023-0.07-0.051-0.139-0.076-0.208c-0.063-0.176-0.132-0.35-0.208-0.519
				c-0.034-0.075-0.071-0.149-0.108-0.224c-0.078-0.158-0.159-0.313-0.247-0.463c-0.046-0.079-0.093-0.156-0.142-0.233
				c-0.089-0.142-0.184-0.278-0.282-0.413c-0.057-0.078-0.113-0.155-0.172-0.23c-0.104-0.133-0.214-0.258-0.327-0.383
				c-0.062-0.068-0.122-0.138-0.186-0.204c-0.14-0.144-0.288-0.279-0.438-0.411c-0.038-0.033-0.071-0.07-0.109-0.102
				c-0.006-0.005-0.013-0.01-0.02-0.015c-0.203-0.169-0.414-0.328-0.633-0.475c-0.028-0.019-0.058-0.034-0.086-0.053
				c-0.189-0.123-0.383-0.238-0.583-0.344c-0.071-0.037-0.143-0.068-0.215-0.104c-0.16-0.078-0.321-0.154-0.488-0.221
				c-0.091-0.037-0.184-0.068-0.276-0.101c-0.148-0.053-0.297-0.104-0.449-0.146c-0.11-0.032-0.221-0.059-0.332-0.086
				c-0.135-0.032-0.271-0.062-0.409-0.086c-0.129-0.023-0.258-0.043-0.388-0.06c-0.122-0.015-0.245-0.027-0.369-0.036
				c-0.143-0.012-0.285-0.02-0.429-0.021c-0.049-0.002-0.096-0.008-0.146-0.008c-0.076,0-0.149,0.009-0.225,0.012
				c-0.134,0.004-0.267,0.008-0.401,0.02c-0.16,0.014-0.317,0.035-0.475,0.059c-0.067,0.01-0.135,0.013-0.202,0.024L144.09,87.94
				c-0.03,0.006-0.058,0.014-0.088,0.02c-0.125,0.023-0.247,0.053-0.37,0.082c-0.106,0.025-0.212,0.052-0.316,0.082
				c-0.12,0.034-0.238,0.072-0.355,0.113c-0.105,0.035-0.21,0.074-0.314,0.114c-0.109,0.043-0.217,0.088-0.324,0.136
				c-0.109,0.049-0.216,0.102-0.322,0.155c-0.097,0.05-0.193,0.099-0.287,0.151c-0.114,0.064-0.224,0.133-0.334,0.203
				c-0.082,0.052-0.165,0.103-0.244,0.157c-0.121,0.083-0.236,0.173-0.352,0.263c-0.064,0.051-0.131,0.098-0.194,0.15
				c-0.15,0.125-0.293,0.257-0.432,0.393c-0.024,0.023-0.05,0.045-0.074,0.068c-0.16,0.16-0.311,0.327-0.456,0.501
				c-0.054,0.064-0.102,0.134-0.154,0.2c-0.087,0.112-0.174,0.225-0.255,0.341c-0.058,0.085-0.111,0.173-0.167,0.26
				c-0.066,0.105-0.132,0.21-0.194,0.319c-0.053,0.095-0.103,0.192-0.152,0.29c-0.054,0.106-0.106,0.214-0.155,0.323
				c-0.046,0.101-0.089,0.204-0.13,0.309c-0.044,0.112-0.085,0.226-0.124,0.34c-0.036,0.104-0.07,0.208-0.101,0.314
				c-0.036,0.123-0.066,0.25-0.097,0.376c-0.023,0.101-0.049,0.2-0.068,0.302c-0.028,0.146-0.048,0.295-0.067,0.443
				c-0.011,0.086-0.026,0.171-0.035,0.258c-0.023,0.238-0.037,0.479-0.037,0.722v17.543v26.897
				c-0.824-0.084-1.663-0.143-2.531-0.143c-1.644,0-3.338,0.151-5.035,0.451c-11.379,2.007-19.96,9.936-19.96,18.444
				c0,8.136,7.372,14.04,17.528,14.04c1.645,0,3.34-0.151,5.038-0.451c10.989-1.939,19.345-9.402,19.906-17.574
				c0.033-0.285,0.054-0.574,0.054-0.869v-1.361c0.727,7.471,7.838,12.77,17.458,12.77c1.644,0,3.338-0.151,5.035-0.451
				c10.99-1.938,19.346-9.401,19.906-17.573c0.033-0.285,0.054-0.574,0.054-0.869v-40.797V87.84c0-0.271-0.016-0.539-0.044-0.804
				C195.296,86.978,195.284,86.921,195.276,86.863z M130.328,157.336c-1.341,0.235-2.7,0.269-3.665,0.153
				c1.276-0.998,3.402-2.138,6.27-2.643c1.341-0.235,2.698-0.267,3.665-0.152C135.321,155.69,133.195,156.83,130.328,157.336z
				 M172.782,149.85c-1.341,0.235-2.701,0.267-3.665,0.152c1.276-0.997,3.402-2.137,6.27-2.643c1.34-0.236,2.7-0.267,3.665-0.152
				C177.775,148.205,175.649,149.345,172.782,149.85z M180.347,132.279c-0.824-0.084-1.663-0.142-2.53-0.142
				c-1.644,0-3.338,0.151-5.035,0.451c-10.861,1.916-19.154,9.226-19.888,17.287v-30.714l27.453-4.841V132.279z M180.347,99.09
				l-27.453,4.84v-2.312l27.453-4.84V99.09z"/>
			<path d="M157.803,55.063c-41.123,0-74.579,33.456-74.579,74.579c0,41.124,33.456,74.58,74.579,74.58
				c41.124,0,74.581-33.456,74.581-74.58C232.384,88.52,198.927,55.063,157.803,55.063z M157.803,189.223
				c-32.852,0-59.579-26.727-59.579-59.58c0-32.852,26.727-59.579,59.579-59.579c32.853,0,59.581,26.728,59.581,59.579
				C217.384,162.495,190.656,189.223,157.803,189.223z"/>
			<path d="M113.453,267.457h-0.263l-10.009-34.065H85.919v47.979h11.486v-20.84c0-3.259-0.23-7.832-0.689-13.717h0.295
				l9.813,34.557h12.339l9.681-34.491h0.295c-0.262,5.207-0.41,8.478-0.443,9.812c-0.033,1.335-0.049,2.549-0.049,3.643v21.036
				h11.913v-47.979h-17.295L113.453,267.457z"/>
			<path d="M170.326,256.299v-0.197c3.435-0.963,6.06-2.511,7.876-4.644c1.815-2.134,2.724-4.688,2.724-7.663
				c0-3.457-1.411-6.17-4.233-8.139c-2.822-1.969-6.717-2.953-11.683-2.953c-3.436,0-6.481,0.371-9.14,1.115
				c-2.658,0.744-5.257,1.991-7.794,3.741l5.382,8.664c3.281-2.056,6.453-3.085,9.517-3.085c1.642,0,2.948,0.307,3.922,0.919
				s1.461,1.554,1.461,2.822c0,3.37-3.293,5.054-9.879,5.054h-3.018v9.747h2.953c2.429,0,4.397,0.181,5.907,0.542
				c1.51,0.36,2.604,0.897,3.282,1.607c0.678,0.711,1.017,1.723,1.017,3.035c0,1.707-0.65,2.959-1.952,3.758
				c-1.302,0.799-3.375,1.198-6.219,1.198c-1.838,0-3.846-0.257-6.023-0.771c-2.177-0.514-4.315-1.308-6.416-2.379v10.765
				c2.561,0.984,4.939,1.662,7.138,2.034c2.199,0.372,4.589,0.558,7.171,0.558c6.279,0,11.186-1.279,14.719-3.84
				c3.533-2.56,5.3-6.07,5.3-10.534C182.337,261.09,178.334,257.305,170.326,256.299z"/>
			<path d="M218.109,261.484L218.109,261.484c-0.001,3.457-0.598,5.945-1.79,7.465c-1.192,1.522-3.112,2.281-5.759,2.281
				c-2.473,0-4.344-0.766-5.612-2.297c-1.269-1.531-1.903-3.992-1.903-7.385v-28.157h-13.028v29.175
				c0,6.279,1.756,11.093,5.267,14.439c3.512,3.348,8.538,5.022,15.08,5.022c6.694,0,11.819-1.723,15.375-5.168
				c3.555-3.447,5.333-8.309,5.333-14.588v-28.88h-12.963V261.484z"/>
		</g>
	</g>
</g>
<g>
</g>
<g>
</g>
<g>
</g>
<g>
</g>
<g>
</g>
<g>
</g>
<g>
</g>
<g>
</g>
<g>
</g>
<g>
</g>
<g>
</g>
<g>
</g>
<g>
</g>
<g>
</g>
<g>
</g>
</svg>
