<?xml version="1.0" encoding="iso-8859-1"?>
<!-- Generator: Adobe Illustrator 19.0.0, SVG Export Plug-In . SVG Version: 6.00 Build 0)  -->
<svg version="1.1" id="Layer_1" xmlns="http://www.w3.org/2000/svg" xmlns:xlink="http://www.w3.org/1999/xlink" x="0px" y="0px"
	 viewBox="0 0 318.188 318.188" style="enable-background:new 0 0 318.188 318.188;" xml:space="preserve">
<g>
	<g>
		<g>
			<path d="M121.315,189.909h77.471c9.581,0,17.42-7.839,17.42-17.421v-50.081c0-9.581-7.839-17.422-17.42-17.422h-48.632
				c-9.581,0-17.421,7.841-17.421,17.422v20.321c0,9.58,7.84,17.42,17.421,17.42h3.629c6.533,0,33.389,5.082,33.389-11.976
				c0-17.053-38.275-0.398-38.306-18.51c1.106-7.259,8.506-10.159,15.805-10.159h19.598c9.581,0,17.42,7.84,17.42,17.42v21.047
				c0,9.582-7.839,17.421-17.42,17.421h-48.438c-9.581,0-17.42-7.839-17.42-17.421v-49.84c0-9.583,7.839-17.421,17.42-17.421h55.696
				c9.581,0,17.42-3.266,17.42-7.258s-7.839-7.26-17.42-7.26h-70.212c-9.582,0-17.42,7.838-17.42,17.422v78.875
				C103.895,182.07,111.733,189.909,121.315,189.909z"/>
			<polygon points="170.279,133.315 166.785,126.01 157.577,129.662 			"/>
			<polygon points="238.193,233.393 223.393,233.393 223.393,233.392 215.057,248.226 206.393,233.392 192.019,233.392 
				206.984,256.825 191.067,281.372 205.737,281.372 214.992,266.374 224.345,281.372 239.343,281.372 222.999,257.842 			"/>
			<path d="M109.877,267.457h-0.263l-10.009-34.065H82.342v47.979h11.486v-20.84c0-3.259-0.23-7.832-0.689-13.717h0.295
				l9.813,34.557h12.339l9.681-34.491h0.295c-0.262,5.207-0.41,8.478-0.443,9.812c-0.033,1.335-0.049,2.549-0.049,3.643v21.036
				h11.913v-47.979h-17.295L109.877,267.457z"/>
			<path d="M283.149,52.723L232.624,2.197C231.218,0.79,229.311,0,227.321,0H40.342c-4.142,0-7.5,3.358-7.5,7.5v303.188
				c0,4.142,3.358,7.5,7.5,7.5h237.504c4.142,0,7.5-3.358,7.5-7.5V58.025C285.346,56.036,284.556,54.129,283.149,52.723z
				 M234.821,25.606l24.918,24.919h-24.918V25.606z M47.842,15h171.979v10.263H47.842V15z M47.842,303.188V40.263h171.979v17.763
				c0,4.143,3.358,7.5,7.5,7.5h43.024v237.662H47.842z"/>
			<path d="M157.79,233.195l-15.654,48.176h14.244l2.428-8.992h15.588l2.363,8.992h14.178l-15.852-48.176H157.79z M161.499,261.746
				c1.99-7.525,3.275-12.568,3.855-15.129c0.58-2.559,0.969-4.397,1.166-5.514c0.217,1.204,0.672,3.195,1.361,5.973
				c0.689,2.779,1.273,5.043,1.756,6.794l2.066,7.876H161.499z"/>
		</g>
	</g>
</g>
<g>
</g>
<g>
</g>
<g>
</g>
<g>
</g>
<g>
</g>
<g>
</g>
<g>
</g>
<g>
</g>
<g>
</g>
<g>
</g>
<g>
</g>
<g>
</g>
<g>
</g>
<g>
</g>
<g>
</g>
</svg>
