<?xml version="1.0" encoding="iso-8859-1"?>
<!-- Generator: Adobe Illustrator 19.0.0, SVG Export Plug-In . SVG Version: 6.00 Build 0)  -->
<svg version="1.1" id="Layer_1" xmlns="http://www.w3.org/2000/svg" xmlns:xlink="http://www.w3.org/1999/xlink" x="0px" y="0px"
	 viewBox="0 0 318.188 318.188" style="enable-background:new 0 0 318.188 318.188;" xml:space="preserve">
<g>
	<g>
		<g>
			<path d="M283.149,52.723L232.625,2.197C231.218,0.79,229.311,0,227.321,0H40.342c-4.142,0-7.5,3.358-7.5,7.5v303.188
				c0,4.142,3.358,7.5,7.5,7.5h237.504c4.143,0,7.5-3.358,7.5-7.5V58.025C285.346,56.036,284.556,54.129,283.149,52.723z
				 M234.821,25.606l24.918,24.919h-24.918V25.606z M47.842,15h171.98v10.263H47.842V15z M270.346,303.188H47.842V40.263h171.98
				v17.763c0,4.143,3.357,7.5,7.5,7.5h43.024V303.188z"/>
			<path d="M214.921,249.514c-0.339,1.27-0.73,3.015-1.174,5.236c-0.445,2.222-0.741,4.073-0.889,5.555
				c-0.127-2.053-0.847-5.691-2.158-10.918l-6.316-23.519h-27.548l-9.744,14.219c-1.926,2.708-3.205,4.687-3.84,5.934v-20.153
				h-12.601v46.401h12.601v-15.52l3.713-2.223l9.172,17.742h14.156l-14.378-25.613l14.458-20.541l15.058,46.154h14.759
				l15.202-46.401h-14.027L214.921,249.514z"/>
			<path d="M102.281,195.594h113.624c4.143,0,7.5-3.357,7.5-7.5v-19.125c0-4.143-3.357-7.5-7.5-7.5h-8.576l-34.04-85.266
				c-1.138-2.851-3.898-4.72-6.966-4.72h-14.459c-3.068,0-5.828,1.869-6.965,4.72l-34.039,85.266h-8.579c-4.142,0-7.5,3.357-7.5,7.5
				v19.125C94.781,192.236,98.139,195.594,102.281,195.594z M156.945,86.483h4.297l4.502,11.277h-13.301L156.945,86.483z
				 M146.455,112.761h25.277l8.361,20.945h-42L146.455,112.761z M132.105,148.706h53.977l5.095,12.763H127.01L132.105,148.706z
				 M109.78,176.469L109.78,176.469h92.442c0.009,0,0.018,0.002,0.026,0.002c0.014,0,0.027-0.002,0.042-0.002h6.114v4.125H109.78
				V176.469z"/>
			<path d="M114.437,258.813h-0.254l-9.68-32.944H87.81v46.401h11.108v-20.154c0-3.152-0.223-7.574-0.666-13.266h0.285l9.49,33.42
				h11.934l9.362-33.357h0.286c-0.254,5.037-0.398,8.199-0.429,9.49c-0.032,1.291-0.048,2.465-0.048,3.523v20.344h11.521v-46.401
				h-16.726L114.437,258.813z"/>
		</g>
	</g>
</g>
<g>
</g>
<g>
</g>
<g>
</g>
<g>
</g>
<g>
</g>
<g>
</g>
<g>
</g>
<g>
</g>
<g>
</g>
<g>
</g>
<g>
</g>
<g>
</g>
<g>
</g>
<g>
</g>
<g>
</g>
</svg>
