<?xml version="1.0" encoding="iso-8859-1"?>
<!-- Generator: Adobe Illustrator 19.0.0, SVG Export Plug-In . SVG Version: 6.00 Build 0)  -->
<svg version="1.1" id="Layer_1" xmlns="http://www.w3.org/2000/svg" xmlns:xlink="http://www.w3.org/1999/xlink" x="0px" y="0px"
	 viewBox="0 0 318.188 318.188" style="enable-background:new 0 0 318.188 318.188;" xml:space="preserve">
<g>
	<g>
		<g>
			<path d="M108.481,267.457h-0.263L98.21,233.392H80.947v47.979h11.486v-20.839c0-3.259-0.229-7.832-0.689-13.718h0.296
				l9.813,34.557h12.339l9.681-34.491h0.296c-0.263,5.207-0.41,8.478-0.442,9.813c-0.033,1.334-0.05,2.549-0.05,3.643v21.036h11.913
				v-47.979h-17.295L108.481,267.457z"/>
			<path d="M283.149,52.722L232.625,2.197C231.218,0.79,229.311,0,227.321,0H40.342c-4.143,0-7.5,3.358-7.5,7.5v303.188
				c0,4.142,3.357,7.5,7.5,7.5h237.504c4.143,0,7.5-3.358,7.5-7.5V58.025C285.346,56.036,284.556,54.129,283.149,52.722z
				 M234.821,25.607l24.918,24.919h-24.918V25.607z M47.842,15h171.98v10.263H47.842V15z M270.346,303.188H47.842V40.263h171.98
				v17.763c0,4.142,3.357,7.5,7.5,7.5h43.024V303.188z"/>
			<path d="M219.766,257.841c-0.351,1.313-0.755,3.118-1.215,5.415c-0.459,2.297-0.766,4.212-0.919,5.743
				c-0.131-2.122-0.875-5.885-2.231-11.29l-6.53-24.318H194.3l15.654,47.979h15.26l15.72-47.979h-14.506L219.766,257.841z"/>
			<path d="M167.553,232.637c-7.613,0-13.417,2.106-17.409,6.317c-3.993,4.212-5.989,10.31-5.989,18.295
				c0,8.073,2.007,14.222,6.021,18.444c4.015,4.223,9.785,6.333,17.312,6.333c7.636,0,13.434-2.1,17.394-6.301
				c3.96-4.201,5.94-10.337,5.94-18.411c0-8.095-1.97-14.232-5.907-18.411C180.976,234.727,175.189,232.637,167.553,232.637z
				 M174.789,267.85c-1.586,2.254-4.019,3.38-7.302,3.38c-6.454,0-9.681-4.638-9.681-13.914c0-9.364,3.249-14.046,9.746-14.046
				c3.194,0,5.596,1.144,7.204,3.429c1.607,2.287,2.412,5.825,2.412,10.617C177.169,262.086,176.375,265.597,174.789,267.85z"/>
			<path d="M217.303,196.593c4.143,0,7.5-3.358,7.5-7.5v-18.999c0-1.989-0.79-3.897-2.196-5.303l-4.982-4.982
				c4.705-9.314,7.179-19.627,7.179-30.166c0-36.916-30.034-66.95-66.95-66.95s-66.95,30.034-66.95,66.95s30.034,66.95,66.95,66.95
				c10.54,0,20.852-2.473,30.166-7.178l4.981,4.981c1.407,1.407,3.314,2.197,5.304,2.197H217.303z M157.853,181.593
				c-28.645,0-51.95-23.305-51.95-51.95c0-28.645,23.305-51.95,51.95-51.95c28.645,0,51.95,23.305,51.95,51.95
				c0,6.486-1.208,12.859-3.523,18.822l-7.972-7.972c0.943-3.522,1.432-7.152,1.432-10.85c0-23.097-18.79-41.888-41.887-41.888
				c-23.097,0-41.887,18.79-41.887,41.888c0,23.098,18.79,41.888,41.886,41.888h0.005c3.697,0,7.327-0.488,10.847-1.431l7.971,7.97
				C170.712,180.386,164.339,181.593,157.853,181.593z M152.549,153.945l2.43,2.43c-13.479-1.439-24.013-12.877-24.013-26.732
				c0-14.826,12.062-26.888,26.887-26.888c13.855,0,25.293,10.535,26.731,24.014l-2.43-2.429c-3.953-3.954-9.21-6.132-14.802-6.132
				s-10.849,2.177-14.803,6.131c-3.955,3.954-6.133,9.211-6.133,14.803C146.417,144.734,148.595,149.991,152.549,153.945z
				 M163.156,143.339c-1.121-1.121-1.739-2.611-1.739-4.196c0-1.585,0.617-3.075,1.738-4.196c1.121-1.121,2.611-1.738,4.197-1.738
				c1.584,0,3.074,0.617,4.194,1.738l38.256,38.254v8.393h-8.393L163.156,143.339z"/>
		</g>
	</g>
</g>
<g>
</g>
<g>
</g>
<g>
</g>
<g>
</g>
<g>
</g>
<g>
</g>
<g>
</g>
<g>
</g>
<g>
</g>
<g>
</g>
<g>
</g>
<g>
</g>
<g>
</g>
<g>
</g>
<g>
</g>
</svg>
