<?xml version="1.0" encoding="iso-8859-1"?>
<!-- Generator: Adobe Illustrator 19.0.0, SVG Export Plug-In . SVG Version: 6.00 Build 0)  -->
<svg version="1.1" id="Layer_1" xmlns="http://www.w3.org/2000/svg" xmlns:xlink="http://www.w3.org/1999/xlink" x="0px" y="0px"
	 viewBox="0 0 318.188 318.188" style="enable-background:new 0 0 318.188 318.188;" xml:space="preserve">
<g>
	<g>
		<g>
			<path d="M283.149,52.722L232.625,2.197C231.218,0.79,229.311,0,227.321,0H40.342c-4.143,0-7.5,3.358-7.5,7.5v303.188
				c0,4.142,3.357,7.5,7.5,7.5h237.504c4.143,0,7.5-3.358,7.5-7.5V58.025C285.346,56.036,284.556,54.129,283.149,52.722z
				 M234.821,25.607l24.918,24.919h-24.918V25.607z M47.842,15h171.98v10.263H47.842V15z M270.346,303.188H47.842V40.263h171.98
				v17.763c0,4.142,3.357,7.5,7.5,7.5h43.024V303.188z"/>
			<path d="M216.992,256.298v-0.197c3.435-0.962,6.06-2.511,7.876-4.643c1.815-2.133,2.724-4.688,2.724-7.663
				c0-3.457-1.411-6.169-4.233-8.139c-2.822-1.969-6.717-2.954-11.683-2.954c-3.436,0-6.481,0.372-9.14,1.116
				c-2.658,0.744-5.257,1.991-7.794,3.741l5.382,8.664c3.281-2.056,6.453-3.085,9.517-3.085c1.642,0,2.948,0.307,3.922,0.919
				c0.974,0.613,1.461,1.554,1.461,2.822c0,3.37-3.293,5.054-9.879,5.054h-3.019v9.747h2.953c2.429,0,4.397,0.18,5.907,0.542
				c1.51,0.361,2.604,0.897,3.282,1.608s1.017,1.723,1.017,3.036c0,1.706-0.65,2.959-1.952,3.758s-3.375,1.198-6.219,1.198
				c-1.838,0-3.846-0.257-6.023-0.771c-2.177-0.514-4.315-1.307-6.416-2.379v10.764c2.561,0.984,4.939,1.663,7.138,2.035
				c2.199,0.372,4.589,0.558,7.171,0.558c6.279,0,11.186-1.28,14.719-3.839c3.533-2.56,5.3-6.071,5.3-10.535
				C229.003,261.09,225,257.305,216.992,256.298z"/>
			<path d="M117.653,267.457h-0.262l-10.01-34.065H90.12v47.979h11.486v-20.839c0-3.259-0.23-7.832-0.689-13.718h0.295l9.813,34.557
				h12.34l9.681-34.491h0.296c-0.263,5.207-0.41,8.478-0.443,9.813c-0.033,1.334-0.049,2.549-0.049,3.643v21.036h11.912v-47.979
				h-17.295L117.653,267.457z"/>
			<path d="M157.803,55.063c-41.123,0-74.579,33.456-74.579,74.58c0,41.124,33.456,74.58,74.579,74.58
				c41.124,0,74.581-33.456,74.581-74.58C232.384,88.52,198.927,55.063,157.803,55.063z M157.803,189.223
				c-32.852,0-59.579-26.727-59.579-59.58c0-32.852,26.728-59.58,59.579-59.58c32.854,0,59.581,26.727,59.581,59.58
				C217.384,162.496,190.656,189.223,157.803,189.223z"/>
			<path d="M195.276,86.862c-0.027-0.207-0.059-0.413-0.102-0.614c-0.015-0.066-0.034-0.132-0.051-0.198
				c-0.047-0.19-0.098-0.378-0.158-0.563c-0.024-0.072-0.053-0.144-0.079-0.215c-0.063-0.173-0.129-0.344-0.205-0.511
				c-0.035-0.078-0.073-0.154-0.111-0.232c-0.076-0.154-0.156-0.306-0.242-0.454c-0.048-0.082-0.097-0.163-0.147-0.243
				c-0.087-0.137-0.179-0.271-0.274-0.401c-0.059-0.082-0.117-0.162-0.18-0.241c-0.102-0.128-0.208-0.25-0.317-0.37
				c-0.064-0.072-0.128-0.146-0.195-0.215c-0.134-0.137-0.275-0.267-0.42-0.394c-0.043-0.038-0.081-0.08-0.125-0.117
				c-0.007-0.006-0.015-0.011-0.023-0.017c-0.201-0.168-0.41-0.325-0.629-0.472c-0.031-0.021-0.064-0.038-0.096-0.058
				c-0.188-0.122-0.379-0.236-0.576-0.34c-0.066-0.034-0.133-0.063-0.199-0.096c-0.168-0.083-0.337-0.162-0.512-0.231
				c-0.078-0.031-0.156-0.058-0.234-0.086c-0.166-0.06-0.334-0.116-0.504-0.165c-0.089-0.025-0.178-0.046-0.266-0.068
				c-0.162-0.04-0.324-0.075-0.49-0.103c-0.102-0.018-0.203-0.033-0.305-0.047c-0.152-0.02-0.307-0.035-0.461-0.046
				c-0.115-0.008-0.23-0.015-0.346-0.017c-0.061-0.001-0.12-0.009-0.182-0.009c-0.091,0-0.179,0.01-0.268,0.014
				c-0.113,0.004-0.226,0.008-0.339,0.017c-0.166,0.013-0.329,0.035-0.492,0.059c-0.067,0.01-0.135,0.012-0.203,0.024l-42.453,7.485
				c-0.032,0.006-0.063,0.015-0.096,0.021c-0.116,0.022-0.23,0.049-0.345,0.077c-0.115,0.027-0.23,0.055-0.342,0.088
				c-0.113,0.033-0.226,0.069-0.337,0.107c-0.111,0.038-0.222,0.078-0.331,0.121c-0.105,0.042-0.208,0.084-0.31,0.13
				c-0.114,0.051-0.227,0.106-0.337,0.163c-0.093,0.047-0.186,0.094-0.275,0.145c-0.117,0.066-0.231,0.137-0.345,0.209
				c-0.079,0.051-0.158,0.099-0.236,0.152c-0.124,0.086-0.243,0.178-0.361,0.271c-0.061,0.048-0.124,0.093-0.184,0.142
				c-0.156,0.13-0.306,0.267-0.45,0.409c-0.018,0.018-0.038,0.034-0.056,0.052c-0.16,0.161-0.313,0.329-0.457,0.503
				c-0.053,0.063-0.101,0.131-0.151,0.196c-0.088,0.114-0.177,0.228-0.259,0.346c-0.058,0.083-0.109,0.171-0.164,0.257
				c-0.067,0.106-0.134,0.211-0.195,0.321c-0.054,0.095-0.103,0.192-0.152,0.29c-0.054,0.107-0.106,0.214-0.156,0.325
				c-0.045,0.101-0.088,0.203-0.129,0.307c-0.045,0.113-0.086,0.227-0.125,0.342c-0.035,0.104-0.069,0.207-0.101,0.313
				c-0.036,0.123-0.066,0.249-0.097,0.375c-0.023,0.101-0.049,0.2-0.068,0.302c-0.028,0.146-0.048,0.295-0.067,0.443
				c-0.012,0.086-0.026,0.171-0.035,0.258c-0.022,0.238-0.036,0.479-0.036,0.722v44.44c-0.824-0.083-1.662-0.142-2.53-0.142
				c-1.645,0-3.338,0.152-5.035,0.451c-11.379,2.007-19.96,9.936-19.96,18.445c0,8.135,7.372,14.04,17.529,14.04
				c1.645,0,3.339-0.151,5.036-0.451c10.989-1.938,19.345-9.402,19.905-17.575c0.033-0.285,0.055-0.574,0.055-0.869v-1.362
				c0.727,7.471,7.838,12.771,17.456,12.771c1.646,0,3.34-0.152,5.036-0.451c10.99-1.938,19.346-9.401,19.906-17.574
				c0.033-0.285,0.055-0.574,0.055-0.869V87.84c0-0.271-0.016-0.539-0.045-0.804C195.296,86.978,195.283,86.921,195.276,86.862z
				 M130.328,157.335c-1.342,0.237-2.703,0.269-3.665,0.153c1.276-0.997,3.402-2.137,6.27-2.643c1.34-0.236,2.701-0.268,3.665-0.153
				C135.321,155.691,133.195,156.83,130.328,157.335z M152.894,101.618l27.453-4.841v2.312l-27.453,4.841V101.618z M172.781,149.85
				c-1.342,0.236-2.7,0.268-3.664,0.153c1.276-0.998,3.402-2.137,6.27-2.643c1.341-0.236,2.698-0.268,3.665-0.153
				C177.774,148.205,175.648,149.344,172.781,149.85z M180.347,132.28L180.347,132.28c-0.823-0.084-1.661-0.142-2.528-0.142
				c-1.646,0-3.34,0.152-5.036,0.451c-10.861,1.915-19.154,9.227-19.889,17.286v-30.713l27.453-4.841V132.28z"/>
			<path d="M185.357,237.363c-3.042-2.647-7.593-3.971-13.652-3.971H155.1v47.979h12.963v-15.917h3.643
				c5.819,0,10.31-1.46,13.472-4.381c3.161-2.92,4.742-7.061,4.742-12.421C189.918,243.773,188.396,240.01,185.357,237.363z
				 M175.067,253.247c-1.148,1.094-2.696,1.641-4.643,1.641h-2.362v-11.026h3.347c3.588,0,5.383,1.619,5.383,4.857
				C176.791,250.643,176.217,252.153,175.067,253.247z"/>
		</g>
	</g>
</g>
<g>
</g>
<g>
</g>
<g>
</g>
<g>
</g>
<g>
</g>
<g>
</g>
<g>
</g>
<g>
</g>
<g>
</g>
<g>
</g>
<g>
</g>
<g>
</g>
<g>
</g>
<g>
</g>
<g>
</g>
</svg>
