<?xml version="1.0" encoding="iso-8859-1"?>
<!-- Generator: Adobe Illustrator 19.0.0, SVG Export Plug-In . SVG Version: 6.00 Build 0)  -->
<svg version="1.1" id="Layer_1" xmlns="http://www.w3.org/2000/svg" xmlns:xlink="http://www.w3.org/1999/xlink" x="0px" y="0px"
	 viewBox="0 0 318.188 318.188" style="enable-background:new 0 0 318.188 318.188;" xml:space="preserve">
<g>
	<g>
		<g>
			<path d="M283.149,52.722L232.624,2.197C231.218,0.79,229.311,0,227.321,0H40.342c-4.142,0-7.5,3.358-7.5,7.5v303.188
				c0,4.142,3.358,7.5,7.5,7.5h237.504c4.142,0,7.5-3.358,7.5-7.5V58.025C285.346,56.036,284.556,54.129,283.149,52.722z
				 M234.821,25.606l24.918,24.919h-24.918V25.606z M47.842,15h171.98v10.263H47.842V15z M270.346,303.188H47.842V40.263h171.98
				v17.763c0,0.263,0.014,0.522,0.04,0.777H95.502c-4.142,0-7.5,3.358-7.5,7.5v125.691c0,4.142,3.358,7.5,7.5,7.5h125.691
				c4.142,0,7.5-3.358,7.5-7.5V66.303c0-0.263-0.014-0.522-0.04-0.777h41.693V303.188z M213.693,73.803v110.691H103.002V73.803
				H213.693z"/>
			<path d="M147.881,160.435c2.632,0,5.264-0.839,7.823-2.495l26.859-17.382c4.249-2.748,6.687-6.906,6.688-11.409
				c0-4.503-2.437-8.662-6.686-11.412l-26.863-17.382c-2.558-1.655-5.189-2.494-7.821-2.494c-5.791,0-11.654,4.497-11.654,13.091
				v36.391C136.228,155.938,142.09,160.435,147.881,160.435z M151.228,115.327l21.359,13.821l-21.359,13.823V115.327z"/>
			<path d="M117.654,267.457h-0.263l-10.009-34.065H90.12v47.979h11.486v-20.839c0-3.259-0.23-7.832-0.69-13.718h0.295l9.813,34.557
				h12.339l9.681-34.491h0.295c-0.262,5.207-0.41,8.478-0.443,9.812c-0.033,1.335-0.049,2.549-0.049,3.643v21.036h11.913v-47.979
				h-17.295L117.654,267.457z"/>
			<path d="M225.459,233.392H213.48l-19.953,29.175v9.517h19.133v9.288h12.799v-9.288h5.283v-9.681h-5.283V233.392z
				 M212.775,252.574c-0.077,1.783-0.115,3.2-0.115,4.25v5.579h-7.909l5.316-7.909c0.94-1.466,1.783-3.041,2.527-4.726h0.36
				C212.911,249.855,212.852,250.79,212.775,252.574z"/>
			<path d="M158.347,184.334c30.429,0,55.186-24.756,55.186-55.185s-24.756-55.186-55.186-55.186
				c-30.43,0-55.186,24.756-55.186,55.186S127.918,184.334,158.347,184.334z M158.347,88.963c22.158,0,40.186,18.027,40.186,40.186
				c0,22.158-18.027,40.185-40.186,40.185c-22.159,0-40.186-18.027-40.186-40.185C118.162,106.99,136.189,88.963,158.347,88.963z"/>
			<path d="M185.357,237.363c-3.042-2.647-7.593-3.971-13.652-3.971H155.1v47.979h12.963v-15.917h3.643
				c5.819,0,10.31-1.46,13.472-4.381c3.161-2.92,4.742-7.061,4.742-12.421C189.918,243.773,188.396,240.01,185.357,237.363z
				 M175.067,253.247c-1.148,1.094-2.696,1.641-4.643,1.641h-2.362v-11.026h3.347c3.588,0,5.383,1.619,5.383,4.857
				C176.791,250.643,176.217,252.153,175.067,253.247z"/>
		</g>
	</g>
</g>
<g>
</g>
<g>
</g>
<g>
</g>
<g>
</g>
<g>
</g>
<g>
</g>
<g>
</g>
<g>
</g>
<g>
</g>
<g>
</g>
<g>
</g>
<g>
</g>
<g>
</g>
<g>
</g>
<g>
</g>
</svg>
