<?xml version="1.0" encoding="iso-8859-1"?>
<!-- Generator: Adobe Illustrator 19.0.0, SVG Export Plug-In . SVG Version: 6.00 Build 0)  -->
<svg version="1.1" id="Layer_1" xmlns="http://www.w3.org/2000/svg" xmlns:xlink="http://www.w3.org/1999/xlink" x="0px" y="0px"
	 viewBox="0 0 318.188 318.188" style="enable-background:new 0 0 318.188 318.188;" xml:space="preserve">
<g>
	<g>
		<g>
			<path d="M94.026,193.26h128.643c4.142,0,7.5-3.357,7.5-7.5V77.053c0-4.143-3.358-7.5-7.5-7.5H94.026c-4.142,0-7.5,3.357-7.5,7.5
				V185.76C86.526,189.903,89.884,193.26,94.026,193.26z M210.603,84.553h4.566v6.278h-4.566V84.553z M210.603,105.831h4.566v7.05
				h-4.566V105.831z M210.603,127.881h4.566v7.051h-4.566V127.881z M210.603,149.931h4.566v7.051h-4.566V149.931z M210.603,171.983
				h4.566v6.277h-4.566V171.983z M121.092,84.553h74.511v39.353h-74.511V84.553z M121.092,138.906h74.511v39.354h-74.511V138.906z
				 M101.526,84.553h4.566v6.278h-4.566V84.553z M101.526,105.831h4.566v7.05h-4.566V105.831z M101.526,127.881h4.566v7.051h-4.566
				V127.881z M101.526,149.931h4.566v7.051h-4.566V149.931z M101.526,171.983h4.566v6.277h-4.566V171.983z"/>
			<path d="M283.149,52.723L232.624,2.197C231.218,0.79,229.311,0,227.321,0H40.342c-4.142,0-7.5,3.358-7.5,7.5v303.188
				c0,4.142,3.358,7.5,7.5,7.5h237.504c4.142,0,7.5-3.358,7.5-7.5V58.025C285.346,56.036,284.556,54.129,283.149,52.723z
				 M234.821,25.606l24.918,24.919h-24.918V25.606z M47.842,15h171.979v10.263H47.842V15z M47.842,303.188V40.263h171.979v17.763
				c0,4.143,3.358,7.5,7.5,7.5h43.024v237.662H47.842z"/>
			<path d="M161.365,242.084c-2.715-2.363-6.777-3.545-12.188-3.545h-14.824v42.832h11.572v-14.209h3.252
				c5.195,0,9.204-1.304,12.026-3.911s4.233-6.304,4.233-11.089C165.438,247.807,164.08,244.447,161.365,242.084z M152.181,256.264
				c-1.025,0.977-2.407,1.465-4.145,1.465h-2.109v-9.844h2.988c3.203,0,4.805,1.445,4.805,4.336
				C153.719,253.939,153.206,255.287,152.181,256.264z"/>
			<path d="M100.926,268.949h-0.234l-8.936-30.41h-15.41v42.832H86.6v-18.604c0-2.91-0.205-6.992-0.615-12.246h0.264l8.76,30.85
				h11.016l8.643-30.791h0.264c-0.234,4.648-0.366,7.568-0.396,8.76c-0.029,1.191-0.044,2.275-0.044,3.252v18.779h10.635v-42.832
				h-15.439L100.926,268.949z"/>
			<polygon points="172.264,281.371 197.694,281.371 197.694,271.937 183.837,271.937 183.837,263.851 196.669,263.851 
				196.669,254.564 183.837,254.564 183.837,247.826 197.694,247.826 197.694,238.539 172.264,238.539 			"/>
			<path d="M222.391,265.229h7.646v6.709c-1.445,0.332-3.027,0.498-4.746,0.498c-3.145,0-5.552-1.05-7.222-3.149
				c-1.67-2.099-2.505-5.151-2.505-9.155c0-4.082,0.923-7.222,2.768-9.419c1.846-2.197,4.458-3.296,7.837-3.296
				c3.691,0,7.08,0.762,10.166,2.285l3.662-9.082c-1.777-0.781-3.862-1.426-6.255-1.934s-4.936-0.762-7.632-0.762
				c-7.108,0-12.635,1.924-16.581,5.771c-3.945,3.848-5.918,9.229-5.918,16.143c0,7.09,1.802,12.549,5.405,16.377
				c3.604,3.828,8.706,5.742,15.308,5.742c6.016,0,11.533-0.859,16.553-2.578v-23.086h-18.486V265.229z"/>
		</g>
	</g>
</g>
<g>
</g>
<g>
</g>
<g>
</g>
<g>
</g>
<g>
</g>
<g>
</g>
<g>
</g>
<g>
</g>
<g>
</g>
<g>
</g>
<g>
</g>
<g>
</g>
<g>
</g>
<g>
</g>
<g>
</g>
</svg>
