<?xml version="1.0" encoding="iso-8859-1"?>
<!-- Generator: Adobe Illustrator 19.0.0, SVG Export Plug-In . SVG Version: 6.00 Build 0)  -->
<svg version="1.1" id="Layer_1" xmlns="http://www.w3.org/2000/svg" xmlns:xlink="http://www.w3.org/1999/xlink" x="0px" y="0px"
	 viewBox="0 0 318.188 318.188" style="enable-background:new 0 0 318.188 318.188;" xml:space="preserve">
<g>
	<g>
		<g>
			<rect x="100.317" y="148.161" width="107.543" height="15"/>
			<rect x="100.317" y="172.803" width="49.543" height="15"/>
			<polygon points="100.317,138.52 217.868,138.52 217.868,123.52 217.868,123.52 100.317,123.52 			"/>
			<path d="M162.4,233.392h-16.606v47.979h15.523c7.985,0,14.183-2.166,18.591-6.498c4.408-4.332,6.613-10.502,6.613-18.509
				c0-7.438-2.096-13.127-6.285-17.065C176.047,235.361,170.102,233.392,162.4,233.392z M170.31,267.309
				c-1.838,2.287-4.726,3.43-8.664,3.43h-2.888v-26.877h3.773c3.545,0,6.187,1.061,7.926,3.183c1.739,2.122,2.609,5.382,2.609,9.78
				C173.066,261.527,172.147,265.023,170.31,267.309z"/>
			<polygon points="191.609,243.992 203.324,243.992 203.324,281.371 216.287,281.371 216.287,243.992 227.97,243.992 
				227.97,233.392 191.609,233.392 			"/>
			<path d="M283.149,52.723L232.625,2.197C231.218,0.79,229.311,0,227.321,0H40.342c-4.142,0-7.5,3.358-7.5,7.5v303.188
				c0,4.142,3.358,7.5,7.5,7.5h237.504c4.143,0,7.5-3.358,7.5-7.5V58.025C285.346,56.036,284.556,54.129,283.149,52.723z
				 M234.821,25.606l24.918,24.919h-24.918V25.606z M47.842,15h171.98v10.263H47.842V15z M270.346,303.188H47.842V40.263h171.98
				v17.763c0,4.143,3.357,7.5,7.5,7.5h43.024V303.188z"/>
			<path d="M92.348,113.152c3.163,2.677,7.895,2.281,10.57-0.88c1.212-1.432,6.092-4.583,10.028-4.177
				c1.391,0.142,3.479,0.772,5.557,4.586c1.344,2.468,3.904,3.914,6.587,3.914c0.808,0,1.627-0.131,2.428-0.405
				c3.459-1.184,5.56-4.689,4.974-8.298c-0.601-3.703,0.76-7.646,3.387-9.812c1.973-1.627,4.346-1.946,7.055-0.949
				c3.887,1.433,8.198-0.559,9.63-4.444c1.433-3.887-0.558-8.198-4.444-9.63c-7.729-2.849-15.667-1.592-21.781,3.449
				c-2.637,2.174-4.763,4.938-6.283,8.034c-1.986-0.797-3.898-1.195-5.585-1.368c-10.084-1.028-19.461,5.225-23.002,9.41
				C88.792,105.744,89.186,110.477,92.348,113.152z"/>
			<path d="M113.863,232.637c-7.614,0-13.418,2.106-17.41,6.318c-3.993,4.211-5.989,10.31-5.989,18.295
				c0,8.073,2.007,14.222,6.022,18.443c4.015,4.223,9.785,6.334,17.311,6.334c7.635,0,13.434-2.1,17.394-6.301
				c3.959-4.201,5.94-10.338,5.94-18.41c0-8.096-1.969-14.233-5.907-18.411C127.286,234.727,121.499,232.637,113.863,232.637z
				 M121.1,267.85c-1.586,2.254-4.02,3.381-7.302,3.381c-6.454,0-9.681-4.639-9.681-13.914c0-9.364,3.249-14.047,9.747-14.047
				c3.194,0,5.595,1.145,7.204,3.43c1.608,2.287,2.412,5.825,2.412,10.617C123.479,262.086,122.686,265.598,121.1,267.85z"/>
			<path d="M99.227,80.978c3.16,2.676,7.88,2.298,10.557-0.863c0.742-0.799,3.531-2.479,5.36-2.249
				c0.282,0.035,1.141,0.144,2.233,2.148c1.344,2.468,3.904,3.914,6.587,3.914c0.808,0,1.627-0.131,2.428-0.405
				c3.459-1.184,5.56-4.689,4.974-8.298c-0.305-1.878,0.377-3.927,1.657-4.982c0.575-0.474,1.371-0.884,2.91-0.316
				c3.887,1.433,8.199-0.558,9.63-4.443c1.433-3.887-0.557-8.199-4.444-9.631c-6.244-2.303-12.673-1.275-17.637,2.816
				c-1.632,1.345-3.018,2.97-4.125,4.78c-0.888-0.244-1.802-0.415-2.74-0.511c-8.068-0.83-15.336,4.006-18.256,7.455
				C95.686,73.554,96.065,78.301,99.227,80.978z"/>
		</g>
	</g>
</g>
<g>
</g>
<g>
</g>
<g>
</g>
<g>
</g>
<g>
</g>
<g>
</g>
<g>
</g>
<g>
</g>
<g>
</g>
<g>
</g>
<g>
</g>
<g>
</g>
<g>
</g>
<g>
</g>
<g>
</g>
</svg>
