<?xml version="1.0" encoding="iso-8859-1"?>
<!-- Generator: Adobe Illustrator 19.0.0, SVG Export Plug-In . SVG Version: 6.00 Build 0)  -->
<svg version="1.1" id="Layer_1" xmlns="http://www.w3.org/2000/svg" xmlns:xlink="http://www.w3.org/1999/xlink" x="0px" y="0px"
	 viewBox="0 0 318.188 318.188" style="enable-background:new 0 0 318.188 318.188;" xml:space="preserve">
<g>
	<g>
		<g>
			<path d="M283.149,52.722L232.625,2.197C231.218,0.79,229.311,0,227.321,0H40.342c-4.143,0-7.5,3.358-7.5,7.5v303.188
				c0,4.142,3.357,7.5,7.5,7.5h237.504c4.143,0,7.5-3.358,7.5-7.5V58.025C285.346,56.036,284.556,54.129,283.149,52.722z
				 M234.821,25.606l24.918,24.919h-24.918V25.606z M47.842,15h171.979v10.263H47.842V15z M270.346,303.188H47.842V40.263h171.979
				v17.763c0,1.574,0.487,3.034,1.316,4.24c-0.878-0.36-1.838-0.562-2.846-0.562H98.402c-4.143,0-7.5,3.358-7.5,7.5v119.89
				c0,4.142,3.357,7.5,7.5,7.5h119.89c4.143,0,7.5-3.358,7.5-7.5V69.204c0-1.575-0.487-3.034-1.316-4.241
				c0.878,0.361,1.838,0.563,2.846,0.563h43.024V303.188z M120.022,106.676l-14.12,23.828v-23.828
				C105.902,106.676,120.022,106.676,120.022,106.676z M105.902,91.676V76.704h14.973v14.972H105.902z M129.743,119.695
				l32.288,54.487c1.351,2.279,3.803,3.676,6.452,3.676c2.648,0,5.102-1.397,6.452-3.676l17.359-29.292l18.497,31.215v5.489h-104.89
				v-21.666L129.743,119.695z M135.875,91.676V76.704h14.972v14.972H135.875z M150.847,106.676v14.972h-2.511l-8.872-14.972H150.847
				z M180.819,106.676v14.972h-14.973v-14.972H180.819z M165.847,91.676V76.704h14.973v14.972H165.847z M179.743,136.648
				l-11.26,18.999l-2.637-4.45v-14.549H179.743z M204.847,136.648h5.945v10.033L204.847,136.648z M195.819,121.648v-14.972h14.973
				v14.972H195.819z M195.819,91.676V76.704h14.973v14.972H195.819z"/>
			<path d="M207.18,263.289L207.18,263.289h8.566v7.515c-1.619,0.372-3.392,0.558-5.316,0.558c-3.523,0-6.219-1.176-8.09-3.528
				c-1.87-2.352-2.806-5.77-2.806-10.256c0-4.572,1.033-8.089,3.102-10.551c2.067-2.461,4.993-3.692,8.778-3.692
				c4.135,0,7.931,0.854,11.388,2.56l4.102-10.174c-1.991-0.874-4.327-1.597-7.007-2.166c-2.681-0.568-5.53-0.853-8.549-0.853
				c-7.964,0-14.156,2.155-18.575,6.465c-4.419,4.311-6.629,10.338-6.629,18.083c0,7.942,2.019,14.058,6.055,18.345
				c4.037,4.288,9.752,6.432,17.147,6.432c6.738,0,12.919-0.962,18.542-2.888v-25.86H207.18V263.289z"/>
			<path d="M119.655,237.363c-3.041-2.647-7.592-3.971-13.651-3.971H89.397v47.979h12.963v-15.917h3.644
				c5.819,0,10.31-1.46,13.472-4.381c3.161-2.92,4.742-7.061,4.742-12.421C124.218,243.773,122.696,240.01,119.655,237.363z
				 M109.368,253.247c-1.149,1.094-2.697,1.641-4.645,1.641h-2.363v-11.026h3.348c3.588,0,5.383,1.619,5.383,4.857
				C111.091,250.643,110.517,252.153,109.368,253.247z"/>
			<path d="M165.993,255.084L165.993,255.084c0.001,2.932,0.153,6.816,0.46,11.65h-0.196l-17.459-33.343h-16.934v47.979h11.486
				v-21.627c0-2.8-0.209-6.859-0.624-12.175h0.296l17.524,33.802h16.999v-47.979h-11.552V255.084z"/>
		</g>
	</g>
</g>
<g>
</g>
<g>
</g>
<g>
</g>
<g>
</g>
<g>
</g>
<g>
</g>
<g>
</g>
<g>
</g>
<g>
</g>
<g>
</g>
<g>
</g>
<g>
</g>
<g>
</g>
<g>
</g>
<g>
</g>
</svg>
