<?xml version="1.0" encoding="iso-8859-1"?>
<!-- Generator: Adobe Illustrator 19.0.0, SVG Export Plug-In . SVG Version: 6.00 Build 0)  -->
<svg version="1.1" id="Layer_1" xmlns="http://www.w3.org/2000/svg" xmlns:xlink="http://www.w3.org/1999/xlink" x="0px" y="0px"
	 viewBox="0 0 318.188 318.188" style="enable-background:new 0 0 318.188 318.188;" xml:space="preserve">
<g>
	<g>
		<g>
			<rect x="176.169" y="125.927" width="17.41" height="15"/>
			<rect x="123.116" y="92.182" width="70.463" height="15"/>
			<path d="M162.826,125.966h-10.495v-10.495c0-4.142-3.358-7.5-7.5-7.5c-14.058,0-25.495,11.437-25.495,25.495
				s11.437,25.496,25.495,25.496c14.058,0,25.495-11.438,25.495-25.496C170.326,129.324,166.968,125.966,162.826,125.966z
				 M144.832,143.962c-5.787,0-10.495-4.709-10.495-10.496c0-2.852,1.143-5.441,2.995-7.334v7.334c0,4.142,3.358,7.5,7.5,7.5h7.334
				C150.273,142.819,147.683,143.962,144.832,143.962z"/>
			<path d="M173.937,237.363c-3.042-2.647-7.593-3.971-13.652-3.971h-16.606v47.979h12.963v-15.917h3.643
				c5.819,0,10.31-1.46,13.472-4.381c3.161-2.92,4.742-7.061,4.742-12.421C178.498,243.773,176.977,240.01,173.937,237.363z
				 M163.648,253.247c-1.148,1.094-2.696,1.641-4.644,1.641h-2.362v-11.026h3.347c3.588,0,5.383,1.619,5.383,4.857
				C165.371,250.643,164.797,252.153,163.648,253.247z"/>
			<polygon points="182.634,243.992 194.349,243.992 194.349,281.371 207.312,281.371 207.312,243.992 218.995,243.992 
				218.995,233.392 182.634,233.392 			"/>
			<rect x="159.093" y="108.844" width="34.486" height="15"/>
			<path d="M283.149,52.722L232.624,2.197C231.218,0.79,229.311,0,227.321,0H40.342c-4.142,0-7.5,3.358-7.5,7.5v303.188
				c0,4.142,3.358,7.5,7.5,7.5h237.504c4.142,0,7.5-3.358,7.5-7.5V58.025C285.346,56.036,284.556,54.129,283.149,52.722z
				 M234.821,25.607l24.918,24.919h-24.918V25.607z M47.842,15h171.979v10.263H47.842V15z M47.842,303.188V40.263h171.979v17.763
				c0,4.142,3.358,7.5,7.5,7.5h43.024v237.662H47.842z"/>
			<path d="M210.903,189.204c4.142,0,7.5-3.358,7.5-7.5V76.594c0-4.142-3.358-7.5-7.5-7.5H105.792c-4.142,0-7.5,3.358-7.5,7.5
				v105.11c0,4.142,3.358,7.5,7.5,7.5H210.903z M113.292,84.094h90.111v90.11h-90.111V84.094z"/>
			<path d="M131.47,237.363c-3.041-2.647-7.592-3.971-13.652-3.971h-16.606v47.979h12.963v-15.917h3.643
				c5.819,0,10.31-1.46,13.472-4.381c3.161-2.92,4.742-7.061,4.742-12.421C136.032,243.773,134.511,240.01,131.47,237.363z
				 M121.182,253.247c-1.149,1.094-2.697,1.641-4.644,1.641h-2.363v-11.026h3.348c3.588,0,5.382,1.619,5.382,4.857
				C122.905,250.643,122.331,252.153,121.182,253.247z"/>
		</g>
	</g>
</g>
<g>
</g>
<g>
</g>
<g>
</g>
<g>
</g>
<g>
</g>
<g>
</g>
<g>
</g>
<g>
</g>
<g>
</g>
<g>
</g>
<g>
</g>
<g>
</g>
<g>
</g>
<g>
</g>
<g>
</g>
</svg>
