<?xml version="1.0" encoding="iso-8859-1"?>
<!-- Generator: Adobe Illustrator 19.0.0, SVG Export Plug-In . SVG Version: 6.00 Build 0)  -->
<svg version="1.1" id="Layer_1" xmlns="http://www.w3.org/2000/svg" xmlns:xlink="http://www.w3.org/1999/xlink" x="0px" y="0px"
	 viewBox="0 0 318.188 318.188" style="enable-background:new 0 0 318.188 318.188;" xml:space="preserve">
<g>
	<g>
		<g>
			<path d="M199.517,143.814L199.517,143.814c0-5.658,1.707-10.059,5.123-13.201c3.416-3.144,8.183-4.715,14.303-4.715
				c2.221,0,4.107,0.21,5.657,0.629l1.446-17.98c-1.719-0.377-3.877-0.566-6.475-0.566c-4.359,0-8.394,1.206-12.103,3.615
				c-3.709,2.41-6.653,5.586-8.833,9.524h-0.942l-2.829-11.819h-14.521v70.285h19.174V143.814z"/>
			<path d="M283.149,52.723L232.625,2.197C231.218,0.79,229.311,0,227.321,0H40.342c-4.143,0-7.5,3.358-7.5,7.5v303.188
				c0,4.142,3.357,7.5,7.5,7.5h237.504c4.143,0,7.5-3.358,7.5-7.5V58.025C285.346,56.036,284.556,54.129,283.149,52.723z
				 M234.821,25.606l24.918,24.919h-24.918V25.606z M47.842,15h171.98v10.263H47.842V15z M270.346,303.188H47.842V40.263h171.98
				v17.763c0,4.143,3.357,7.5,7.5,7.5h43.024V303.188z"/>
			<path d="M155.228,139.037c6.182-5.238,9.272-12.803,9.272-22.695c0-9.513-2.903-16.669-8.707-21.469
				c-5.806-4.798-14.281-7.197-25.429-7.197h-29.359v91.91h19.488v-32.691h8.361C140.255,146.895,149.045,144.276,155.228,139.037z
				 M120.493,130.929v-0.001v-27.284h8.865c5.321,0,9.23,1.091,11.725,3.269c2.492,2.18,3.74,5.555,3.74,10.121
				c0,4.527-1.488,7.975-4.464,10.342c-2.976,2.369-7.46,3.553-13.453,3.553H120.493z"/>
			<path d="M111.205,237.363c-3.041-2.647-7.592-3.972-13.651-3.972H80.947v47.979H93.91v-15.916h3.644
				c5.818,0,10.309-1.461,13.471-4.382c3.162-2.921,4.742-7.061,4.742-12.421C115.767,243.773,114.246,240.01,111.205,237.363z
				 M100.917,253.246c-1.148,1.095-2.697,1.641-4.645,1.641H93.91v-11.025h3.348c3.588,0,5.382,1.619,5.382,4.856
				C102.64,250.643,102.065,252.152,100.917,253.246z"/>
			<path d="M207.886,238.905c-3.939-4.179-9.726-6.268-17.361-6.268c-7.613,0-13.417,2.106-17.409,6.318
				c-3.993,4.211-5.989,10.31-5.989,18.295c0,8.073,2.007,14.222,6.021,18.443c4.015,4.223,9.785,6.334,17.311,6.334
				c7.636,0,13.434-2.1,17.394-6.301c3.96-4.201,5.94-10.338,5.94-18.41C213.793,249.221,211.823,243.084,207.886,238.905z
				 M197.761,267.85c-1.586,2.254-4.02,3.381-7.302,3.381c-6.454,0-9.681-4.639-9.681-13.914c0-9.364,3.249-14.047,9.746-14.047
				c3.194,0,5.596,1.145,7.204,3.43c1.607,2.287,2.412,5.825,2.412,10.617C200.141,262.086,199.347,265.598,197.761,267.85z"/>
			<path d="M158.692,247.568c0-9.451-6.52-14.177-19.56-14.177h-15.72v47.979h12.963v-17.459h3.281l10.174,17.459h14.703
				l-13.98-20.904C155.98,257.426,158.692,253.127,158.692,247.568z M138.805,254.166h-2.429v-10.962h2.561
				c4.44,0,6.661,1.652,6.661,4.956C145.598,252.164,143.333,254.166,138.805,254.166z"/>
			<path d="M222.72,277.794L222.72,277.794c-0.001,3.129-0.46,5.338-1.379,6.63c-0.919,1.29-2.45,1.936-4.595,1.936
				c-0.919,0-1.771-0.082-2.559-0.246c-0.787-0.164-1.531-0.313-2.232-0.443v10.075c2.122,0.46,4.364,0.689,6.728,0.689
				c5.688,0,9.954-1.669,12.799-5.005c2.844-3.336,4.267-8.254,4.267-14.752v-43.286H222.72V277.794z"/>
		</g>
	</g>
</g>
<g>
</g>
<g>
</g>
<g>
</g>
<g>
</g>
<g>
</g>
<g>
</g>
<g>
</g>
<g>
</g>
<g>
</g>
<g>
</g>
<g>
</g>
<g>
</g>
<g>
</g>
<g>
</g>
<g>
</g>
</svg>
