<?xml version="1.0" encoding="iso-8859-1"?>
<!-- Generator: Adobe Illustrator 19.0.0, SVG Export Plug-In . SVG Version: 6.00 Build 0)  -->
<svg version="1.1" id="Layer_1" xmlns="http://www.w3.org/2000/svg" xmlns:xlink="http://www.w3.org/1999/xlink" x="0px" y="0px"
	 viewBox="0 0 318.188 318.188" style="enable-background:new 0 0 318.188 318.188;" xml:space="preserve">
<g>
	<g>
		<g>
			<path d="M106.418,170.279v0.002l9.724,9.725c1.407,1.407,3.314,2.197,5.304,2.197h49.328c1.079,0,2.145-0.233,3.125-0.682
				l19.258-8.828v4.35h-2.931v15h20.862v-15h-2.932v-4.505h2.932c4.143,0,7.5-3.358,7.5-7.5c0-4.142-3.357-7.5-7.5-7.5h-2.932
				v-5.496l4.344-0.833c4.068-0.78,6.733-4.71,5.954-8.778c-0.78-4.069-4.72-6.736-8.778-5.954l-1.52,0.291v-3.487l4.344-0.833
				c4.068-0.78,6.733-4.71,5.954-8.778c-0.78-4.069-4.72-6.737-8.778-5.954l-1.52,0.291v-3.486l4.344-0.833
				c4.068-0.78,6.733-4.71,5.954-8.778c-0.78-4.069-4.72-6.738-8.778-5.954l-1.52,0.292v-3.396h2.932c4.143,0,7.5-3.358,7.5-7.5
				c0-4.142-3.357-7.5-7.5-7.5h-17.593l-19.597-8.983c-0.98-0.449-2.046-0.682-3.125-0.682h-49.328c-1.989,0-3.897,0.79-5.304,2.197
				l-9.723,9.724h-9.227c-4.142,0-7.5,3.358-7.5,7.5v72.171c0,4.142,3.358,7.5,7.5,7.5H106.418z M175.601,89.152l13.134,6.02
				c0.98,0.449,2.046,0.682,3.125,0.682h1.298v6.272l-4.343,0.832c-4.068,0.78-6.733,4.71-5.954,8.778
				c0.688,3.591,3.832,6.089,7.357,6.089c0.469,0,0.944-0.044,1.421-0.136l1.519-0.291v3.486l-4.343,0.833
				c-4.068,0.78-6.733,4.71-5.954,8.778c0.688,3.591,3.832,6.089,7.357,6.089c0.469,0,0.944-0.044,1.421-0.136l1.519-0.291v3.487
				l-4.343,0.833c-4.068,0.78-6.733,4.71-5.954,8.778c0.688,3.591,3.832,6.089,7.357,6.089c0.469,0,0.944-0.044,1.421-0.136
				l1.519-0.291v2.62h-1.298c-1.079,0-2.145,0.233-3.125,0.682l-13.134,6.02c0.094-0.473,0.145-0.96,0.145-1.459V90.61
				C175.745,90.111,175.694,89.624,175.601,89.152z M104.692,98.11h56.053v21.086h-56.053V98.11z M104.692,134.196h56.053v21.085
				h-56.053V134.196z"/>
			<rect x="119.911" y="136.748" width="25.615" height="15"/>
			<path d="M283.149,52.722L232.625,2.197C231.218,0.79,229.311,0,227.321,0H40.342c-4.142,0-7.5,3.358-7.5,7.5v303.188
				c0,4.142,3.358,7.5,7.5,7.5h237.504c4.143,0,7.5-3.358,7.5-7.5V58.025C285.346,56.036,284.556,54.129,283.149,52.722z
				 M234.821,25.606l24.918,24.919h-24.918V25.606z M47.842,15h171.98v10.263H47.842V15z M270.346,303.188H47.842V40.263h171.98
				v17.763c0,4.142,3.357,7.5,7.5,7.5h43.024V303.188z"/>
			<path d="M223.211,247.569c0-9.451-6.52-14.177-19.559-14.177h-15.72v47.979h12.963v-17.459h3.281l10.174,17.459h14.702
				l-13.98-20.905C220.498,257.426,223.211,253.126,223.211,247.569z M203.323,254.166h-2.428v-10.961h2.56
				c4.441,0,6.662,1.652,6.662,4.956C210.117,252.164,207.853,254.166,203.323,254.166z"/>
			<rect x="119.911" y="100.599" width="25.615" height="15"/>
			<path d="M149.603,233.195L149.603,233.195l-15.387,47.351l-13.428-20.079c5.426-3.041,8.139-7.34,8.139-12.898
				c0-9.451-6.52-14.177-19.559-14.177h-15.72v47.979h12.963v-17.459h3.282l10.174,17.459h28.124l2.428-8.992h15.59l2.361,8.992
				h14.178l-15.85-48.176H149.603z M109.039,254.166h-2.429v-10.961h2.56c4.441,0,6.662,1.652,6.662,4.956
				C115.832,252.164,113.568,254.166,109.039,254.166z M153.31,261.747v-0.001c1.99-7.526,3.277-12.569,3.857-15.129
				c0.578-2.559,0.967-4.397,1.164-5.513c0.219,1.204,0.674,3.194,1.361,5.973c0.689,2.779,1.275,5.043,1.756,6.794l2.068,7.876
				H153.31z"/>
		</g>
	</g>
</g>
<g>
</g>
<g>
</g>
<g>
</g>
<g>
</g>
<g>
</g>
<g>
</g>
<g>
</g>
<g>
</g>
<g>
</g>
<g>
</g>
<g>
</g>
<g>
</g>
<g>
</g>
<g>
</g>
<g>
</g>
</svg>
