<?xml version="1.0" encoding="iso-8859-1"?>
<!-- Generator: Adobe Illustrator 19.0.0, SVG Export Plug-In . SVG Version: 6.00 Build 0)  -->
<svg version="1.1" id="Layer_1" xmlns="http://www.w3.org/2000/svg" xmlns:xlink="http://www.w3.org/1999/xlink" x="0px" y="0px"
	 viewBox="0 0 318.188 318.188" style="enable-background:new 0 0 318.188 318.188;" xml:space="preserve">
<g>
	<g>
		<g>
			<path d="M283.149,52.723L232.624,2.197C231.218,0.79,229.311,0,227.321,0H40.342c-4.142,0-7.5,3.358-7.5,7.5v303.188
				c0,4.142,3.358,7.5,7.5,7.5h237.504c4.142,0,7.5-3.358,7.5-7.5V58.025C285.346,56.036,284.556,54.129,283.149,52.723z
				 M234.821,25.606l24.918,24.919h-24.918V25.606z M47.842,15h171.98v10.263H47.842V15z M270.346,303.188H47.842V40.263h171.98
				v17.763c0,4.143,3.358,7.5,7.5,7.5h43.024V303.188z"/>
			<path d="M221.57,257.513c-1.268,5.995-2.046,10.206-2.33,12.635c-0.24-1.882-0.722-4.726-1.443-8.532
				c-0.722-3.807-1.434-7.166-2.133-10.075l-4.102-18.148H199.55l-4.233,18.148c-0.635,2.517-1.318,5.688-2.051,9.517
				c-0.733,3.829-1.242,6.859-1.526,9.091c-0.438-3.15-1.247-7.384-2.428-12.7l-5.219-24.056H171.59l11.88,47.979h15.325
				c2.801-12.58,4.393-19.756,4.775-21.528c0.383-1.772,0.771-3.714,1.165-5.825s0.678-3.877,0.854-5.3
				c0.218,1.751,0.563,3.927,1.033,6.53c0.47,2.603,0.815,4.344,1.034,5.219l4.595,20.904h15.325l11.814-47.979h-12.503
				L221.57,257.513z"/>
			<path d="M159.093,61.169c-38.729,0-70.237,31.509-70.237,70.237c0,38.728,31.508,70.237,70.237,70.237
				s70.237-31.509,70.237-70.237C229.33,92.678,197.822,61.169,159.093,61.169z M172.668,77.861
				c13.651,3.463,25.281,12.025,32.759,23.528h-46.343L172.668,77.861z M176.433,131.406l-8.67,15.017h-17.34l-8.67-15.017
				l8.67-15.017h17.34L176.433,131.406z M156.283,76.24l-23.19,40.166L119.53,92.914C128.961,83.224,141.901,76.965,156.283,76.24z
				 M105.948,146.423c-1.353-4.778-2.092-9.812-2.092-15.017c0-9.046,2.2-17.582,6.07-25.126l23.177,40.143H105.948z
				 M145.519,184.951c-13.651-3.463-25.281-12.025-32.759-23.528h46.343L145.519,184.951z M161.903,186.572l23.19-40.166
				l13.563,23.492C189.226,179.589,176.285,185.848,161.903,186.572z M214.331,131.406c0,9.046-2.2,17.582-6.07,25.126
				l-23.177-40.143h27.155C213.591,121.168,214.331,126.201,214.331,131.406z"/>
			<path d="M137.426,233.195L137.426,233.195l-15.386,47.351l-13.428-20.079c5.426-3.041,8.139-7.34,8.139-12.898
				c0-9.451-6.52-14.177-19.559-14.177h-15.72v47.979h12.963v-17.459h3.282l10.174,17.459h28.124l2.429-8.992h15.588l2.362,8.992
				h14.178l-15.851-48.176H137.426z M96.864,254.166h-2.429v-10.962h2.56c4.441,0,6.662,1.652,6.662,4.956
				C103.657,252.164,101.393,254.166,96.864,254.166z M141.135,261.746c1.991-7.525,3.276-12.568,3.856-15.129
				c0.579-2.559,0.968-4.397,1.165-5.514c0.219,1.204,0.673,3.195,1.362,5.973c0.69,2.779,1.274,5.043,1.756,6.794l2.067,7.876
				H141.135z"/>
		</g>
	</g>
</g>
<g>
</g>
<g>
</g>
<g>
</g>
<g>
</g>
<g>
</g>
<g>
</g>
<g>
</g>
<g>
</g>
<g>
</g>
<g>
</g>
<g>
</g>
<g>
</g>
<g>
</g>
<g>
</g>
<g>
</g>
</svg>
