<?xml version="1.0" encoding="iso-8859-1"?>
<!-- Generator: Adobe Illustrator 19.0.0, SVG Export Plug-In . SVG Version: 6.00 Build 0)  -->
<svg version="1.1" id="Layer_1" xmlns="http://www.w3.org/2000/svg" xmlns:xlink="http://www.w3.org/1999/xlink" x="0px" y="0px"
	 viewBox="0 0 318.188 318.188" style="enable-background:new 0 0 318.188 318.188;" xml:space="preserve">
<g>
	<g>
		<g>
			<rect x="100.318" y="148.161" width="107.542" height="15"/>
			<rect x="100.318" y="172.803" width="49.542" height="15"/>
			<rect x="100.317" y="98.878" width="82.209" height="15"/>
			<polygon points="188.017,281.371 200.782,281.371 200.782,263.354 215.156,263.354 215.156,252.951 200.782,252.951 
				200.782,243.795 216.371,243.795 216.371,233.392 188.017,233.392 			"/>
			<path d="M283.149,52.722L232.624,2.197C231.218,0.79,229.311,0,227.321,0H40.342c-4.142,0-7.5,3.358-7.5,7.5v303.188
				c0,4.142,3.358,7.5,7.5,7.5h237.504c4.142,0,7.5-3.358,7.5-7.5V58.025C285.346,56.036,284.556,54.129,283.149,52.722z
				 M234.821,25.606l24.918,24.919h-24.918V25.606z M47.842,15h171.979v10.263H47.842V15z M47.842,303.188V40.263h171.979v17.763
				c0,4.142,3.358,7.5,7.5,7.5h43.024v237.662H47.842z"/>
			<rect x="100.318" y="74.236" width="117.55" height="15"/>
			<rect x="100.318" y="123.52" width="117.55" height="15"/>
			<polygon points="144.794,243.992 156.51,243.992 156.51,281.371 169.473,281.371 169.473,243.992 181.155,243.992 
				181.155,233.392 144.794,233.392 			"/>
			<path d="M138.099,247.569c0-9.451-6.52-14.177-19.559-14.177h-15.72v47.979h12.963v-17.459h3.282l10.174,17.459h14.702
				l-13.98-20.905C135.386,257.426,138.099,253.126,138.099,247.569z M118.212,254.166h-2.429v-10.961h2.56
				c4.441,0,6.662,1.652,6.662,4.956C125.005,252.164,122.741,254.166,118.212,254.166z"/>
		</g>
	</g>
</g>
<g>
</g>
<g>
</g>
<g>
</g>
<g>
</g>
<g>
</g>
<g>
</g>
<g>
</g>
<g>
</g>
<g>
</g>
<g>
</g>
<g>
</g>
<g>
</g>
<g>
</g>
<g>
</g>
<g>
</g>
</svg>
