<?xml version="1.0" encoding="iso-8859-1"?>
<!-- Generator: Adobe Illustrator 19.0.0, SVG Export Plug-In . SVG Version: 6.00 Build 0)  -->
<svg version="1.1" id="Layer_1" xmlns="http://www.w3.org/2000/svg" xmlns:xlink="http://www.w3.org/1999/xlink" x="0px" y="0px"
	 viewBox="0 0 318.188 318.188" style="enable-background:new 0 0 318.188 318.188;" xml:space="preserve">
<g>
	<g>
		<g>
			<path d="M118.54,161.508c3.802-2.864,5.705-7.033,5.705-12.508c0-2.641-0.462-4.917-1.384-6.826
				c-0.924-1.91-2.356-3.597-4.297-5.061c-1.941-1.464-4.997-3.039-9.165-4.727c-4.679-1.877-7.71-3.294-9.094-4.248
				c-1.385-0.955-2.077-2.084-2.077-3.39c0-2.323,2.148-3.485,6.445-3.485c2.418,0,4.79,0.366,7.113,1.099
				c2.323,0.732,4.822,1.671,7.495,2.816l4.392-10.503c-6.08-2.8-12.333-4.201-18.762-4.201c-6.748,0-11.959,1.298-15.634,3.892
				c-3.676,2.594-5.514,6.262-5.514,11.003c0,2.769,0.437,5.101,1.313,6.994c0.875,1.894,2.275,3.573,4.201,5.036
				c1.925,1.465,4.941,3.056,9.046,4.774c2.864,1.21,5.156,2.268,6.874,3.175c1.719,0.906,2.928,1.718,3.628,2.435
				c0.699,0.716,1.05,1.646,1.05,2.793c0,3.055-2.642,4.582-7.924,4.582c-2.578,0-5.562-0.43-8.951-1.288
				c-3.39-0.859-6.437-1.926-9.142-3.199v12.03c2.387,1.02,4.949,1.79,7.686,2.316c2.737,0.525,6.046,0.788,9.93,0.788
				C109.047,165.805,114.736,164.372,118.54,161.508z"/>
			<path d="M108.055,243.959c0.766-0.591,1.991-0.887,3.675-0.887c3.26,0,7.132,1.029,11.618,3.086l3.971-10.01
				c-5.164-2.297-10.228-3.445-15.194-3.445c-5.623,0-10.042,1.236-13.258,3.708c-3.216,2.473-4.824,5.919-4.824,10.337
				c0,2.363,0.378,4.409,1.132,6.137c0.755,1.729,1.914,3.261,3.479,4.596c1.564,1.334,3.911,2.713,7.04,4.135
				c3.457,1.553,5.584,2.582,6.383,3.084c0.798,0.504,1.379,1.002,1.739,1.494c0.361,0.492,0.541,1.066,0.541,1.723
				c0,1.05-0.449,1.908-1.345,2.576c-0.897,0.668-2.309,1.001-4.234,1.001c-2.231,0-4.682-0.355-7.351-1.067
				c-2.669-0.71-5.24-1.7-7.712-2.969v11.551c2.341,1.116,4.594,1.898,6.76,2.347c2.166,0.448,4.846,0.673,8.04,0.673
				c3.828,0,7.165-0.64,10.009-1.92c2.844-1.279,5.021-3.073,6.531-5.382c1.51-2.308,2.264-4.95,2.264-7.925
				c0-3.238-0.804-5.924-2.412-8.058c-1.608-2.133-4.479-4.13-8.614-5.989c-4.311-1.969-6.952-3.325-7.926-4.069
				c-0.974-0.743-1.46-1.586-1.46-2.526C106.906,245.283,107.289,244.55,108.055,243.959z"/>
			<path d="M215.116,110.881c-2.053-0.271-3.828-0.406-5.323-0.406c-7.034,0-12.444,1.592-16.231,4.774
				c-3.788,3.183-5.681,7.686-5.681,13.51c0,3.628,0.819,6.779,2.458,9.452c1.639,2.674,3.859,4.615,6.66,5.824
				c-2.228,1.306-3.931,2.634-5.108,3.986c-1.178,1.354-1.767,3.048-1.767,5.084c0,1.623,0.557,3.159,1.671,4.607
				c1.114,1.448,2.418,2.49,3.915,3.127c-3.883,0.923-6.827,2.467-8.831,4.63c-2.005,2.164-3.007,4.854-3.007,8.068
				c0,4.679,1.964,8.314,5.895,10.908c3.93,2.594,9.62,3.891,17.067,3.891c9.738,0,17.21-1.719,22.413-5.155
				c5.204-3.438,7.805-8.275,7.805-14.513c0-4.869-1.536-8.561-4.606-11.075c-3.072-2.515-7.536-3.771-13.391-3.771h-9.07
				c-5.347,0-8.02-1.051-8.02-3.151c0-1.399,0.748-2.673,2.244-3.818l2.148,0.238l2.626,0.143c7.097,0,12.643-1.6,16.637-4.798
				c3.994-3.199,5.991-7.662,5.991-13.391c0-2.96-0.764-5.634-2.292-8.021l8.354-2.148v-7.399h-18.618
				C218.481,111.351,217.169,111.151,215.116,110.881z M205.878,165.518h7.543c3.659,0,6.365,0.382,8.115,1.146
				s2.626,2.147,2.626,4.153c0,2.482-1.48,4.439-4.44,5.871c-2.96,1.433-7.05,2.148-12.269,2.148c-3.47,0-6.167-0.572-8.092-1.719
				c-1.926-1.146-2.888-2.721-2.888-4.726c0-2.069,0.898-3.732,2.697-4.989C200.968,166.146,203.205,165.518,205.878,165.518z
				 M215.808,135.824c-1.273,1.688-3.278,2.53-6.015,2.53c-2.706,0-4.719-0.843-6.039-2.53c-1.321-1.687-1.981-3.978-1.981-6.874
				c0-6.429,2.673-9.644,8.02-9.644c5.283,0,7.925,3.215,7.925,9.644C217.717,131.847,217.08,134.138,215.808,135.824z"/>
			<path d="M200.635,263.289h8.564v7.515c-1.619,0.372-3.392,0.558-5.316,0.558c-3.523,0-6.219-1.176-8.09-3.527
				c-1.87-2.352-2.806-5.771-2.806-10.256c0-4.572,1.033-8.09,3.102-10.551c2.067-2.461,4.993-3.691,8.778-3.691
				c4.135,0,7.931,0.854,11.388,2.56l4.103-10.174c-1.991-0.874-4.327-1.597-7.007-2.166c-2.681-0.568-5.53-0.853-8.549-0.853
				c-7.964,0-14.156,2.154-18.575,6.465c-4.419,4.311-6.629,10.338-6.629,18.082c0,7.941,2.019,14.058,6.055,18.346
				c4.037,4.287,9.752,6.432,17.148,6.432c6.738,0,12.919-0.963,18.542-2.888v-25.86h-20.708V263.289z"/>
			<path d="M163.247,164.85l20.337-53.372h-15.229l-10.264,30.41c-1.273,4.232-1.989,7.876-2.148,10.932h-0.287
				c-0.287-3.438-1.003-7.081-2.148-10.932l-10.312-30.41h-15.228l20.337,53.372H163.247z"/>
			<path d="M283.149,52.723L232.624,2.197C231.218,0.79,229.311,0,227.321,0H40.342c-4.142,0-7.5,3.358-7.5,7.5v303.188
				c0,4.142,3.358,7.5,7.5,7.5h237.504c4.142,0,7.5-3.358,7.5-7.5V58.025C285.346,56.036,284.556,54.129,283.149,52.723z
				 M234.821,25.606l24.918,24.919h-24.918V25.606z M47.842,15h171.98v10.263H47.842V15z M270.346,303.188H47.842V40.263h171.98
				v17.763c0,4.143,3.358,7.5,7.5,7.5h43.024V303.188z"/>
			<path d="M155.017,257.841c-0.35,1.313-0.754,3.118-1.215,5.415c-0.459,2.297-0.766,4.212-0.918,5.743
				c-0.131-2.122-0.875-5.886-2.232-11.29l-6.53-24.317H129.55l15.654,47.979h15.26l15.721-47.979h-14.506L155.017,257.841z"/>
		</g>
	</g>
</g>
<g>
</g>
<g>
</g>
<g>
</g>
<g>
</g>
<g>
</g>
<g>
</g>
<g>
</g>
<g>
</g>
<g>
</g>
<g>
</g>
<g>
</g>
<g>
</g>
<g>
</g>
<g>
</g>
<g>
</g>
</svg>
