<?xml version="1.0" encoding="iso-8859-1"?>
<!-- Generator: Adobe Illustrator 19.0.0, SVG Export Plug-In . SVG Version: 6.00 Build 0)  -->
<svg version="1.1" id="Layer_1" xmlns="http://www.w3.org/2000/svg" xmlns:xlink="http://www.w3.org/1999/xlink" x="0px" y="0px"
	 viewBox="0 0 318.188 318.188" style="enable-background:new 0 0 318.188 318.188;" xml:space="preserve">
<g>
	<g>
		<g>
			<path d="M283.149,52.722L232.624,2.197C231.218,0.79,229.311,0,227.321,0H40.342c-4.142,0-7.5,3.358-7.5,7.5v303.188
				c0,4.142,3.358,7.5,7.5,7.5h237.504c4.142,0,7.5-3.358,7.5-7.5V58.025C285.346,56.036,284.556,54.129,283.149,52.722z
				 M234.821,25.606l24.918,24.919h-24.918V25.606z M47.842,15h171.979v10.263H47.842V15z M47.842,303.188V40.263h171.979v17.763
				c0,4.142,3.358,7.5,7.5,7.5h43.024v237.662H47.842z"/>
			<path d="M111.454,252.754c-4.311-1.969-6.952-3.326-7.926-4.07c-0.974-0.743-1.46-1.586-1.46-2.527
				c-0.002-0.874,0.38-1.607,1.146-2.198s1.991-0.886,3.675-0.886c3.26,0,7.132,1.029,11.618,3.085l3.971-10.009
				c-5.164-2.297-10.228-3.446-15.194-3.446c-5.623,0-10.042,1.236-13.258,3.708c-3.216,2.473-4.824,5.918-4.824,10.337
				c0,2.363,0.377,4.409,1.132,6.137c0.755,1.728,1.914,3.26,3.479,4.595c1.564,1.335,3.911,2.713,7.04,4.135
				c3.457,1.554,5.584,2.582,6.383,3.085c0.798,0.503,1.378,1.001,1.739,1.493c0.361,0.492,0.542,1.067,0.542,1.723
				c0,1.05-0.449,1.909-1.345,2.576c-0.897,0.668-2.309,1.001-4.234,1.001c-2.231,0-4.682-0.355-7.351-1.067
				c-2.669-0.71-5.24-1.701-7.712-2.97v11.552c2.341,1.116,4.594,1.898,6.76,2.346s4.846,0.673,8.041,0.673
				c3.828,0,7.165-0.64,10.009-1.92c2.844-1.28,5.021-3.073,6.531-5.382c1.51-2.308,2.264-4.95,2.264-7.925
				c0-3.238-0.804-5.924-2.412-8.057C118.46,256.61,115.589,254.614,111.454,252.754z"/>
			<path d="M204.678,139.932v-25.138c0-4.142-3.358-7.5-7.5-7.5h-1.307c3.155-1.979,6.37-2.875,9.915-2.875
				c4.142,0,7.5-3.358,7.5-7.5V71.78c0-4.142-3.358-7.5-7.5-7.5c-38.042,0-56.459,33.533-69.907,58.019
				c-12.546,22.844-19.575,33.036-28.057,33.036c-4.142,0-7.5,3.358-7.5,7.5v25.139c0,4.142,3.358,7.5,7.5,7.5
				c31.663,0,48.152-26.634,60.036-48.041h29.32C201.32,147.432,204.678,144.074,204.678,139.932z M189.679,132.432h-0.001h-26.247
				c-2.735,0-5.253,1.489-6.571,3.885c-12.183,22.145-23.258,39.682-41.538,43.419v-10.531
				c14.372-4.484,23.803-21.655,33.705-39.685c11.774-21.438,24.979-45.481,49.259-49.618v10.339
				c-12.19,2.765-20.209,12.005-26.017,20.225c-1.617,2.289-1.823,5.288-0.534,7.777c1.289,2.488,3.857,4.051,6.66,4.051h11.284
				V132.432z"/>
			<polygon points="199.731,281.371 212.497,281.371 212.497,263.354 226.871,263.354 226.871,252.951 212.497,252.951 
				212.497,243.795 228.086,243.795 228.086,233.392 199.731,233.392 			"/>
			<path d="M175.708,257.513c-1.268,5.995-2.046,10.206-2.33,12.635c-0.24-1.881-0.722-4.726-1.443-8.533
				c-0.722-3.807-1.434-7.165-2.133-10.075l-4.103-18.148h-12.012l-4.233,18.148c-0.635,2.516-1.318,5.689-2.051,9.517
				c-0.733,3.829-1.242,6.859-1.526,9.09c-0.438-3.15-1.247-7.384-2.429-12.7l-5.218-24.056h-12.503l11.88,47.979h15.325
				c2.801-12.58,4.393-19.756,4.775-21.528c0.383-1.772,0.771-3.713,1.165-5.825c0.394-2.111,0.678-3.877,0.854-5.3
				c0.218,1.751,0.563,3.927,1.033,6.531c0.471,2.603,0.815,4.343,1.034,5.218l4.595,20.905h15.325l11.814-47.979h-12.503
				L175.708,257.513z"/>
		</g>
	</g>
</g>
<g>
</g>
<g>
</g>
<g>
</g>
<g>
</g>
<g>
</g>
<g>
</g>
<g>
</g>
<g>
</g>
<g>
</g>
<g>
</g>
<g>
</g>
<g>
</g>
<g>
</g>
<g>
</g>
<g>
</g>
</svg>
