<?xml version="1.0" encoding="iso-8859-1"?>
<!-- Generator: Adobe Illustrator 19.0.0, SVG Export Plug-In . SVG Version: 6.00 Build 0)  -->
<svg version="1.1" id="Layer_1" xmlns="http://www.w3.org/2000/svg" xmlns:xlink="http://www.w3.org/1999/xlink" x="0px" y="0px"
	 viewBox="0 0 318.188 318.188" style="enable-background:new 0 0 318.188 318.188;" xml:space="preserve">
<g>
	<g>
		<g>
			<path d="M283.149,52.723L232.625,2.197C231.218,0.79,229.311,0,227.321,0H40.342c-4.143,0-7.5,3.358-7.5,7.5v303.188
				c0,4.142,3.357,7.5,7.5,7.5h237.504c4.143,0,7.5-3.358,7.5-7.5V58.025C285.346,56.036,284.556,54.129,283.149,52.723z
				 M234.821,25.606l24.918,24.919h-24.918V25.606z M47.842,15h171.98v10.263H47.842V15z M270.346,303.188H47.842V40.263h171.98
				v17.763c0,4.143,3.357,7.5,7.5,7.5h43.024V303.188z"/>
			<polygon points="92.237,243.992 103.952,243.992 103.952,281.371 116.915,281.371 116.915,243.992 128.599,243.992 
				128.599,233.392 92.237,233.392 			"/>
			<polygon points="158.858,281.371 171.623,281.371 171.623,263.354 185.997,263.354 185.997,252.951 171.623,252.951 
				171.623,243.795 187.212,243.795 187.212,233.392 158.858,233.392 			"/>
			<rect x="135.458" y="233.392" width="13.028" height="47.979"/>
			<polygon points="195.087,281.371 207.853,281.371 207.853,263.354 222.227,263.354 222.227,252.951 207.853,252.951 
				207.853,243.795 223.442,243.795 223.442,233.392 195.087,233.392 			"/>
			<path d="M196.362,119.527l7.24-27.019c0.693-2.589-0.046-5.35-1.941-7.245c-1.896-1.895-4.659-2.634-7.245-1.94L150.879,94.99
				c-1.327-2.107-3.669-3.512-6.344-3.512h-43.947c-4.143,0-7.5,3.357-7.5,7.5v43.947c0,4.143,3.357,7.5,7.5,7.5h43.947
				c4.143,0,7.5-3.357,7.5-7.5v-5.707l6.465,6.466c-0.886,3.055-1.335,6.223-1.335,9.47c0,18.759,15.262,34.021,34.021,34.021
				c18.759,0,34.02-15.262,34.02-34.021C225.206,136.155,212.674,122.027,196.362,119.527z M137.035,135.426h-28.947v-28.947h17.472
				c-0.336,2.324,0.428,4.691,2.112,6.376l9.363,9.363V135.426z M147.464,111.434l38.288-10.26l-10.26,38.289L147.464,111.434z
				 M191.187,172.175c-8.812,0-16.222-6.031-18.373-14.177l1.257,1.257c1.426,1.426,3.341,2.197,5.304,2.197
				c0.647,0,1.3-0.084,1.941-0.256c2.588-0.693,4.609-2.715,5.303-5.303l5.814-21.696c9.907,0.646,17.774,8.889,17.774,18.957
				C210.206,163.643,201.674,172.175,191.187,172.175z"/>
		</g>
	</g>
</g>
<g>
</g>
<g>
</g>
<g>
</g>
<g>
</g>
<g>
</g>
<g>
</g>
<g>
</g>
<g>
</g>
<g>
</g>
<g>
</g>
<g>
</g>
<g>
</g>
<g>
</g>
<g>
</g>
<g>
</g>
</svg>
