<?xml version="1.0" encoding="iso-8859-1"?>
<!-- Generator: Adobe Illustrator 19.0.0, SVG Export Plug-In . SVG Version: 6.00 Build 0)  -->
<svg version="1.1" id="Layer_1" xmlns="http://www.w3.org/2000/svg" xmlns:xlink="http://www.w3.org/1999/xlink" x="0px" y="0px"
	 viewBox="0 0 318.188 318.188" style="enable-background:new 0 0 318.188 318.188;" xml:space="preserve">
<g>
	<g>
		<g>
			<polygon points="217.868,123.52 217.868,123.52 100.317,123.52 100.317,138.52 217.868,138.52 			"/>
			<polygon points="217.868,74.236 217.868,74.236 100.317,74.236 100.317,89.236 217.868,89.236 			"/>
			<rect x="100.317" y="98.878" width="82.209" height="15"/>
			<rect x="100.317" y="148.161" width="107.543" height="15"/>
			<polygon points="184.324,243.992 196.039,243.992 196.039,281.371 209.002,281.371 209.002,243.992 220.685,243.992 
				220.685,233.392 184.324,233.392 			"/>
			<path d="M283.149,52.723L232.625,2.197C231.218,0.79,229.311,0,227.321,0H40.342c-4.143,0-7.5,3.358-7.5,7.5v303.188
				c0,4.142,3.357,7.5,7.5,7.5h237.504c4.143,0,7.5-3.358,7.5-7.5V58.025C285.346,56.036,284.556,54.129,283.149,52.723z
				 M234.821,25.606l24.918,24.919h-24.918V25.606z M47.842,15h171.98v10.263H47.842V15z M270.346,303.188H47.842V40.263h171.98
				v17.763c0,4.143,3.357,7.5,7.5,7.5h43.024V303.188z"/>
			<polygon points="181.304,233.392 166.503,233.392 158.167,248.226 149.503,233.392 135.13,233.392 150.095,256.825 
				134.178,281.372 148.847,281.372 158.103,266.374 167.455,281.372 182.453,281.372 166.109,257.842 			"/>
			<polygon points="96.011,243.992 107.727,243.992 107.727,281.371 120.69,281.371 120.69,243.992 132.373,243.992 
				132.373,233.392 96.011,233.392 			"/>
			<rect x="100.317" y="172.803" width="49.543" height="15"/>
		</g>
	</g>
</g>
<g>
</g>
<g>
</g>
<g>
</g>
<g>
</g>
<g>
</g>
<g>
</g>
<g>
</g>
<g>
</g>
<g>
</g>
<g>
</g>
<g>
</g>
<g>
</g>
<g>
</g>
<g>
</g>
<g>
</g>
</svg>
