<?xml version="1.0" encoding="iso-8859-1"?>
<!-- Generator: Adobe Illustrator 19.0.0, SVG Export Plug-In . SVG Version: 6.00 Build 0)  -->
<svg version="1.1" id="Layer_1" xmlns="http://www.w3.org/2000/svg" xmlns:xlink="http://www.w3.org/1999/xlink" x="0px" y="0px"
	 viewBox="0 0 318.188 318.188" style="enable-background:new 0 0 318.188 318.188;" xml:space="preserve">
<g>
	<g>
		<g>
			<path d="M157.628,199.044c38.267,0,69.4-31.134,69.4-69.401c0-38.268-31.133-69.4-69.4-69.4c-38.268,0-69.401,31.133-69.401,69.4
				C88.227,167.91,119.36,199.044,157.628,199.044z M157.628,75.242c29.996,0,54.4,24.404,54.4,54.4
				c0,29.997-24.404,54.401-54.4,54.401c-29.997,0-54.401-24.404-54.401-54.401C103.227,99.646,127.631,75.242,157.628,75.242z"/>
			<path d="M283.149,52.723L232.625,2.197C231.218,0.79,229.311,0,227.321,0H40.342c-4.143,0-7.5,3.358-7.5,7.5v303.188
				c0,4.142,3.357,7.5,7.5,7.5h237.504c4.143,0,7.5-3.358,7.5-7.5V58.025C285.346,56.036,284.556,54.129,283.149,52.723z
				 M234.821,25.606l24.918,24.919h-24.918V25.606z M47.842,15h171.98v10.263H47.842V15z M270.346,303.188H47.842V40.263h171.98
				v17.763c0,4.143,3.357,7.5,7.5,7.5h43.024V303.188z"/>
			<path d="M219.816,257.841c-0.351,1.313-0.755,3.118-1.215,5.415c-0.459,2.297-0.766,4.212-0.919,5.743
				c-0.131-2.122-0.875-5.886-2.232-11.29l-6.53-24.317h-14.571l15.654,47.979h15.26l15.72-47.979h-14.506L219.816,257.841z"/>
			<path d="M126.712,257.513c-1.27,5.995-2.047,10.206-2.33,12.635c-0.242-1.882-0.723-4.726-1.444-8.532
				c-0.722-3.807-1.433-7.166-2.134-10.075l-4.102-18.148H104.69l-4.232,18.148c-0.635,2.517-1.318,5.688-2.052,9.517
				c-0.733,3.829-1.242,6.859-1.526,9.091c-0.438-3.15-1.246-7.384-2.428-12.7l-5.219-24.056H76.73l11.88,47.979h15.326
				c2.8-12.58,4.392-19.756,4.774-21.528c0.382-1.772,0.771-3.714,1.165-5.825c0.395-2.111,0.678-3.877,0.854-5.3
				c0.219,1.751,0.563,3.927,1.033,6.53c0.471,2.604,0.814,4.344,1.034,5.219l4.595,20.904h15.325l11.814-47.979h-12.503
				L126.712,257.513z"/>
			<path d="M161.203,233.195l-15.654,48.176h14.243l2.428-8.992h15.589l2.362,8.992h14.178l-15.851-48.176H161.203z
				 M164.911,261.746c1.99-7.525,3.276-12.568,3.856-15.129c0.579-2.559,0.968-4.397,1.165-5.514
				c0.218,1.204,0.673,3.195,1.361,5.973c0.689,2.779,1.274,5.043,1.756,6.794l2.067,7.876H164.911z"/>
			<path d="M144.02,169.97c1.865,0,3.789-0.172,5.717-0.513c12.402-2.188,21.822-10.508,22.403-19.571
				c0.033-0.289,0.056-0.581,0.056-0.88v-46.604c2.112,1.424,4.149,3.378,5.605,5.83c3.262,5.493,2.852,12.064-1.218,19.53
				c-1.982,3.638-0.642,8.192,2.995,10.175c3.64,1.984,8.194,0.641,10.175-2.995c6.591-12.091,6.926-24.297,0.945-34.369
				c-6.229-10.49-17.797-15.979-26.003-15.979c-4.143,0-7.5,3.357-7.5,7.5v42.033c-1.389-0.224-2.84-0.35-4.353-0.35
				c-1.863,0-3.785,0.172-5.713,0.512c-12.804,2.259-22.459,11.052-22.459,20.453C124.672,163.565,132.81,169.97,144.02,169.97z
				 M149.736,149.061c1.069-0.189,2.114-0.283,3.107-0.283c2.046,0,3.364,0.398,4.064,0.722c-0.994,1.484-4.333,4.227-9.776,5.187
				c-1.07,0.188-2.116,0.284-3.11,0.284c-2.045,0-3.361-0.397-4.06-0.721C140.952,152.765,144.291,150.021,149.736,149.061z"/>
		</g>
	</g>
</g>
<g>
</g>
<g>
</g>
<g>
</g>
<g>
</g>
<g>
</g>
<g>
</g>
<g>
</g>
<g>
</g>
<g>
</g>
<g>
</g>
<g>
</g>
<g>
</g>
<g>
</g>
<g>
</g>
<g>
</g>
</svg>
