<?xml version="1.0" encoding="iso-8859-1"?>
<!-- Generator: Adobe Illustrator 19.0.0, SVG Export Plug-In . SVG Version: 6.00 Build 0)  -->
<svg version="1.1" id="Layer_1" xmlns="http://www.w3.org/2000/svg" xmlns:xlink="http://www.w3.org/1999/xlink" x="0px" y="0px"
	 viewBox="0 0 318.188 318.188" style="enable-background:new 0 0 318.188 318.188;" xml:space="preserve">
<g>
	<g>
		<g>
			<path d="M283.149,52.723L232.625,2.197C231.218,0.79,229.311,0,227.321,0H40.342c-4.143,0-7.5,3.358-7.5,7.5v303.188
				c0,4.142,3.357,7.5,7.5,7.5h237.504c4.143,0,7.5-3.358,7.5-7.5V58.025C285.346,56.036,284.556,54.129,283.149,52.723z
				 M234.821,25.606l24.918,24.919h-24.918V25.606z M47.842,15h171.98v10.263H47.842V15z M270.346,303.188H47.842V40.263h171.98
				v17.763c0,4.143,3.357,7.5,7.5,7.5h43.024V303.188z"/>
			<path d="M122.884,260.072c-1.133,5.352-1.826,9.111-2.08,11.279c-0.215-1.68-0.645-4.219-1.289-7.617
				c-0.645-3.398-1.279-6.397-1.904-8.994l-3.662-16.201h-10.723l-3.779,16.201c-0.566,2.246-1.177,5.078-1.831,8.496
				c-0.655,3.418-1.108,6.123-1.362,8.115c-0.391-2.813-1.113-6.592-2.168-11.338l-4.658-21.475H78.265L88.87,281.37h13.682
				c2.5-11.23,3.921-17.637,4.263-19.219c0.341-1.582,0.688-3.315,1.04-5.2s0.605-3.462,0.762-4.731
				c0.195,1.563,0.502,3.506,0.923,5.83c0.42,2.324,0.728,3.877,0.923,4.658l4.102,18.662h13.682l10.547-42.832H127.63
				L122.884,260.072z"/>
			<path d="M168.909,268.949h-0.234l-8.936-30.41h-15.41v42.832h10.254v-18.604c0-2.91-0.205-6.992-0.615-12.246h0.264l8.76,30.85
				h11.016l8.643-30.791h0.264c-0.234,4.648-0.366,7.568-0.396,8.76c-0.029,1.191-0.044,2.275-0.044,3.252v18.779h10.635v-42.832
				h-15.439L168.909,268.949z"/>
			<path d="M94.026,69.553c-4.143,0-7.5,3.357-7.5,7.5V185.76c0,4.143,3.357,7.5,7.5,7.5h128.643c4.143,0,7.5-3.357,7.5-7.5V77.053
				c0-4.143-3.357-7.5-7.5-7.5H94.026z M106.093,178.26h-4.566v-6.277h4.566V178.26z M106.093,156.982h-4.566v-7.051h4.566V156.982z
				 M106.093,134.932h-4.566v-7.051h4.566V134.932z M106.093,112.881h-4.566v-7.05h4.566V112.881z M106.093,90.831h-4.566v-6.278
				h4.566V90.831z M195.603,178.26h-74.51v-39.354h74.51V178.26z M195.603,123.906h-74.51V84.553h74.51V123.906z M215.169,178.26
				h-4.566v-6.277h4.566V178.26z M215.169,156.982h-4.566v-7.051h4.566V156.982z M215.169,134.932h-4.566v-7.051h4.566V134.932z
				 M215.169,112.881h-4.566v-7.05h4.566V112.881z M215.169,90.831h-4.566v-6.278h4.566V90.831z"/>
			<path d="M220.442,260.365c-0.313,1.172-0.674,2.783-1.084,4.834c-0.41,2.051-0.684,3.76-0.82,5.127
				c-0.117-1.895-0.781-5.254-1.992-10.078l-5.83-21.709h-13.008l13.975,42.832h13.623l14.033-42.832H226.39L220.442,260.365z"/>
		</g>
	</g>
</g>
<g>
</g>
<g>
</g>
<g>
</g>
<g>
</g>
<g>
</g>
<g>
</g>
<g>
</g>
<g>
</g>
<g>
</g>
<g>
</g>
<g>
</g>
<g>
</g>
<g>
</g>
<g>
</g>
<g>
</g>
</svg>
