<?xml version="1.0" encoding="iso-8859-1"?>
<!-- Generator: Adobe Illustrator 19.0.0, SVG Export Plug-In . SVG Version: 6.00 Build 0)  -->
<svg version="1.1" id="Layer_1" xmlns="http://www.w3.org/2000/svg" xmlns:xlink="http://www.w3.org/1999/xlink" x="0px" y="0px"
	 viewBox="0 0 318.188 318.188" style="enable-background:new 0 0 318.188 318.188;" xml:space="preserve">
<g>
	<g>
		<g>
			<path d="M105.792,189.204h105.111c4.142,0,7.5-3.358,7.5-7.5V76.594c0-4.142-3.358-7.5-7.5-7.5H105.792
				c-4.142,0-7.5,3.358-7.5,7.5v105.11C98.292,185.846,101.65,189.204,105.792,189.204z M113.292,174.204v-12.497
				c1.307,2.407,3.818,3.931,6.577,3.931h42.402c-0.425,1.674-0.267,3.477,0.509,5.092c0.743,1.546,1.98,2.746,3.462,3.474H113.292z
				 M113.292,154.561v-45.598c0.21,0.386,0.442,0.761,0.723,1.111l17.366,21.687l-17.366,21.688
				C113.735,153.799,113.502,154.175,113.292,154.561z M135.483,150.638l11.361-14.188c2.194-2.74,2.194-6.636,0-9.376
				l-11.361-14.188h10.049l4.236,5.289c1.423,1.777,3.577,2.812,5.854,2.812s4.431-1.035,5.854-2.812l4.235-5.289h10.05
				l-11.36,14.188c-2.194,2.74-2.194,6.636,0,9.376l10.539,13.161c0.302,0.376,0.636,0.72,0.997,1.027H135.483z M184.293,159.982
				c0.035-0.137,0.065-0.274,0.092-0.412c0.07,0.139,0.145,0.277,0.224,0.412H184.293z M183.726,154.771
				c-0.46-0.914-1.091-1.708-1.845-2.348h2.729C184.179,153.161,183.884,153.956,183.726,154.771z M203.403,159.583l-2.707-3.38
				l2.707-3.381V159.583z M113.291,84.094L113.291,84.094h90.112v54.1c-1.006-0.491-2.121-0.771-3.283-0.771h-15.724l-4.533-5.661
				l17.366-21.687c1.802-2.251,2.155-5.336,0.906-7.936c-1.249-2.599-3.876-4.252-6.76-4.252h-29.266
				c-2.277,0-4.431,1.035-5.855,2.812l-0.632,0.79l-0.633-0.79c-1.424-1.777-3.577-2.812-5.855-2.812h-29.266
				c-2.759,0-5.27,1.524-6.577,3.931V84.094z"/>
			<path d="M283.149,52.722L232.624,2.197C231.218,0.79,229.311,0,227.321,0H40.342c-4.142,0-7.5,3.358-7.5,7.5v303.188
				c0,4.142,3.358,7.5,7.5,7.5h237.504c4.142,0,7.5-3.358,7.5-7.5V58.025C285.346,56.036,284.556,54.129,283.149,52.722z
				 M234.821,25.607l24.918,24.919h-24.918V25.607z M47.842,15h171.98v10.263H47.842V15z M270.346,303.188H47.842V40.263h171.98
				v17.763c0,4.142,3.358,7.5,7.5,7.5h43.024V303.188z"/>
			<polygon points="161.842,233.392 148.88,233.392 148.88,281.371 180.319,281.371 180.319,270.902 161.842,270.902 			"/>
			<polygon points="142.349,233.392 127.548,233.392 119.212,248.226 110.548,233.392 96.175,233.392 111.14,256.824 
				95.223,281.371 109.892,281.371 119.146,266.374 128.499,281.371 143.497,281.371 127.154,257.841 			"/>
			<path d="M208.347,252.754c-4.311-1.969-6.952-3.326-7.926-4.07c-0.974-0.743-1.46-1.586-1.46-2.527
				c-0.001-0.874,0.381-1.607,1.147-2.198c0.766-0.591,1.99-0.886,3.676-0.886c3.26,0,7.132,1.029,11.617,3.085l3.971-10.009
				c-5.163-2.297-10.229-3.446-15.194-3.446c-5.623,0-10.042,1.236-13.259,3.708c-3.216,2.473-4.823,5.918-4.823,10.337
				c0,2.363,0.377,4.409,1.132,6.137c0.755,1.729,1.914,3.26,3.479,4.595c1.564,1.335,3.91,2.713,7.039,4.135
				c3.457,1.554,5.584,2.582,6.384,3.085c0.798,0.503,1.378,1.001,1.739,1.493c0.36,0.492,0.541,1.067,0.541,1.723
				c0,1.05-0.448,1.909-1.346,2.576c-0.898,0.668-2.309,1.001-4.233,1.001c-2.231,0-4.682-0.355-7.351-1.067
				c-2.67-0.71-5.24-1.701-7.713-2.97v11.552c2.341,1.116,4.595,1.898,6.761,2.346s4.846,0.673,8.04,0.673
				c3.829,0,7.165-0.64,10.01-1.92c2.844-1.28,5.021-3.073,6.53-5.382c1.51-2.308,2.265-4.95,2.265-7.925
				c0-3.238-0.804-5.924-2.412-8.057C215.354,256.61,212.481,254.614,208.347,252.754z"/>
		</g>
	</g>
</g>
<g>
</g>
<g>
</g>
<g>
</g>
<g>
</g>
<g>
</g>
<g>
</g>
<g>
</g>
<g>
</g>
<g>
</g>
<g>
</g>
<g>
</g>
<g>
</g>
<g>
</g>
<g>
</g>
<g>
</g>
</svg>
