<?xml version="1.0" encoding="iso-8859-1"?>
<!-- Generator: Adobe Illustrator 19.0.0, SVG Export Plug-In . SVG Version: 6.00 Build 0)  -->
<svg version="1.1" id="Layer_1" xmlns="http://www.w3.org/2000/svg" xmlns:xlink="http://www.w3.org/1999/xlink" x="0px" y="0px"
	 viewBox="0 0 318.188 318.188" style="enable-background:new 0 0 318.188 318.188;" xml:space="preserve">
<g>
	<g>
		<g>
			<path d="M283.149,52.722L232.624,2.197C231.218,0.79,229.311,0,227.321,0H40.342c-4.142,0-7.5,3.358-7.5,7.5v303.188
				c0,4.142,3.358,7.5,7.5,7.5h237.504c4.142,0,7.5-3.358,7.5-7.5V58.025C285.346,56.036,284.556,54.129,283.149,52.722z
				 M234.821,25.606l24.918,24.919h-24.918V25.606z M47.842,15h171.979v10.263H47.842V15z M159.094,150.058
				c3.142,3.109,7.433,14.617,7.433,20.536c0,4.098-3.335,7.433-7.433,7.433s-7.433-3.335-7.433-7.433
				C151.661,164.675,155.952,153.167,159.094,150.058z M270.346,303.188H47.842V40.263h103.006v97.22
				c-3.074,2.279-6.273,6.197-9.169,12.729c-3.001,6.768-5.018,14.96-5.018,20.383c0,12.369,10.063,22.433,22.433,22.433
				c12.369,0,22.433-10.064,22.433-22.433c0-5.423-2.016-13.615-5.018-20.383c-3.369-7.597-7.146-11.659-10.661-13.717V40.263
				h53.974v17.763c0,4.142,3.358,7.5,7.5,7.5h43.024V303.188z"/>
			<polygon points="143.744,241.367 143.744,233.392 107.382,233.392 107.382,243.861 127.663,243.861 106.89,273.364 
				106.89,281.371 144.269,281.371 144.269,270.902 122.97,270.902 			"/>
			<path d="M204.785,237.363c-3.042-2.647-7.593-3.971-13.652-3.971h-16.605v47.979h12.963v-15.917h3.643
				c5.819,0,10.31-1.46,13.472-4.381c3.161-2.92,4.742-7.061,4.742-12.421C209.347,243.773,207.825,240.01,204.785,237.363z
				 M194.496,253.247c-1.148,1.094-2.696,1.641-4.643,1.641h-2.362v-11.026h3.347c3.588,0,5.383,1.619,5.383,4.857
				C196.22,250.643,195.645,252.153,194.496,253.247z"/>
			<rect x="151.128" y="233.392" width="13.028" height="47.979"/>
		</g>
	</g>
</g>
<g>
</g>
<g>
</g>
<g>
</g>
<g>
</g>
<g>
</g>
<g>
</g>
<g>
</g>
<g>
</g>
<g>
</g>
<g>
</g>
<g>
</g>
<g>
</g>
<g>
</g>
<g>
</g>
<g>
</g>
</svg>
